<svg viewBox="0 0 26 22" fill="none" xmlns="http://www.w3.org/2000/svg">
<path d="M5.50941 3.12891L5.01531 0.0820312H0V1.60547H3.71902L6.31734 17.6287C5.6097 18.0175 5.12891 18.77 5.12891 19.6328C5.12891 20.8928 6.15403 21.918 7.41406 21.918C8.40709 21.918 9.25377 21.2811 9.5682 20.3945H20.0373C20.3517 21.2811 21.1984 21.918 22.1914 21.918C23.4514 21.918 24.4766 20.8928 24.4766 19.6328C24.4766 18.3728 23.4514 17.3477 22.1914 17.3477C21.1984 17.3477 20.3517 17.9845 20.0373 18.8711H9.5682C9.29779 18.1086 8.63352 17.5315 7.82118 17.3847L7.56813 15.8242H22.1914C24.2915 15.8242 26 14.1157 26 12.0156V3.12891H5.50941ZM22.1914 18.8711C22.6114 18.8711 22.9531 19.2128 22.9531 19.6328C22.9531 20.0528 22.6114 20.3945 22.1914 20.3945C21.7714 20.3945 21.4297 20.0528 21.4297 19.6328C21.4297 19.2128 21.7714 18.8711 22.1914 18.8711ZM8.17578 19.6328C8.17578 20.0528 7.83407 20.3945 7.41406 20.3945C6.99405 20.3945 6.65234 20.0528 6.65234 19.6328C6.65234 19.2128 6.99405 18.8711 7.41406 18.8711C7.83407 18.8711 8.17578 19.2128 8.17578 19.6328ZM24.4766 12.0156C24.4766 13.2757 23.4514 14.3008 22.1914 14.3008H7.32108L5.75646 4.65234H24.4766V12.0156Z" fill="#000000"/>
</svg>
