<svg viewBox="0 0 13 13" fill="none" xmlns="http://www.w3.org/2000/svg">
<path d="M9.37331 4.43751C9.57167 4.63587 9.57167 4.95742 9.37331 5.15569L5.9666 8.56249C5.76823 8.76076 5.44678 8.76076 5.24842 8.56249L3.62669 6.94067C3.42833 6.7424 3.42833 6.42085 3.62669 6.22259C3.82496 6.02422 4.14651 6.02422 4.34477 6.22259L5.60746 7.48528L8.65513 4.43751C8.85349 4.23924 9.17504 4.23924 9.37331 4.43751ZM13 6.5C13 10.0929 10.0924 13 6.5 13C2.90713 13 0 10.0924 0 6.5C0 2.90713 2.90762 0 6.5 0C10.0929 0 13 2.90762 13 6.5ZM11.9844 6.5C11.9844 3.4685 9.53111 1.01562 6.5 1.01562C3.4685 1.01562 1.01562 3.46889 1.01562 6.5C1.01562 9.5315 3.46889 11.9844 6.5 11.9844C9.5315 11.9844 11.9844 9.53111 11.9844 6.5Z" fill="#83B74D"/>
</svg>
