<svg width="623" height="303" viewBox="0 0 623 303" fill="none" xmlns="http://www.w3.org/2000/svg">
<path d="M577.5 21C600.833 47 640.5 121.3 612.5 210.5M460.5 0.5C498.167 11.6667 572.5 57.2 568.5 150C567.94 163 565 197.5 543.5 236.5M443.5 51C403.5 30.5 311 45.9185 311 150C311 188 344 253.5 421 253.5C498 253.5 520 181.5 517.5 150M336 274.5C360.667 291 427 314.1 495 274.5M333 15C308.167 29.3333 258.8 76.4 260 150C260 166.167 265.1 206.1 285.5 236.5M251.5 21C227.667 47.8333 188 124.9 220 218.5M205 0.5C168.667 45.3333 117.8 168.2 205 301" stroke="white" stroke-opacity="0.2"/>
<path d="M142.5 0.5C113.5 49.1667 73.4002 177.7 145 302.5M86.0002 0.5C61.0002 47.6667 25.5002 174.1 83.5002 302.5M29.0001 0.5C7.66681 53 -22.1999 186.9 29.0001 302.5" stroke="white" stroke-opacity="0.1"/>
<path d="M357.731 92.9548C357.887 92.7568 358.025 92.5957 358.221 92.3779C354.761 94.9413 353.025 96.2282 350.304 99.3737L349.532 100.308C351.662 97.9482 353.343 96.0844 356.585 93.7731C356.926 93.5276 357.424 93.2465 357.731 92.9548Z" fill="white"/>
<path d="M480.344 184.327C482.831 184.707 485.925 185.181 485.668 186.096L486.085 185.217C486.068 185.113 486.046 184.973 486.029 184.867C485.399 184.425 484.804 184.008 480.74 183.448L480.344 184.327Z" fill="white"/>
<path d="M356.463 92.9366C356.575 92.8191 356.676 92.7174 356.808 92.5854C356.149 93.1966 355.272 94.0123 354.612 94.6248L354.088 95.1633C354.8 94.4928 355.753 93.6071 356.463 92.9366Z" fill="white"/>
<path d="M482.601 115.29C484.565 115.76 485.461 115.975 485.824 116.525L485.401 115.649C484.858 115.166 484.585 114.923 482.197 114.417L482.601 115.29Z" fill="white"/>
<path d="M486.716 141.54C491.115 142.043 492.586 142.32 493.218 143.074L493.153 142.441C492.502 141.681 491.034 141.403 486.653 140.897L486.716 141.54Z" fill="white"/>
<path d="M351.723 99.1598L351.826 100.255C352.047 99.9782 352.193 99.8066 352.424 99.5478L352.333 98.3823C348.587 101.711 348.516 101.776 345.817 105.249L345.164 106.204C347.921 102.578 347.921 102.578 351.723 99.1598Z" fill="white"/>
<path d="M476.597 191.506C480.416 192.085 481.341 192.369 481.803 193.099C481.787 193.152 481.766 193.222 481.749 193.276L482.25 192.448C482.249 192.345 482.246 192.209 482.245 192.106C481.673 191.65 481.178 191.255 477.077 190.678L476.597 191.506Z" fill="white"/>
<path d="M472.926 199.115C475.563 199.605 476.017 199.754 476.664 200.336C476.654 200.44 476.68 200.597 476.617 200.682L476.982 200.209C476.998 200.112 477.019 199.98 477.036 199.882C476.638 199.502 476.225 199.11 473.288 198.641L472.926 199.115Z" fill="white"/>
<path d="M492.28 148.605C492.289 148.777 492.289 148.915 492.289 148.961C493.491 149.37 493.537 149.386 493.605 149.659L493.597 149.272C493.52 149.18 493.447 149.022 493.341 148.966C493.041 148.808 492.605 148.667 492.277 148.574C492.278 148.583 492.28 148.595 492.28 148.605Z" fill="white"/>
<path d="M358.491 92.2738L358.358 92.4296C357.767 93.1582 357.804 93.3152 357.939 93.3192C358.546 93.3337 361.546 90.4061 361.317 90.0219C361.174 89.7817 359.51 91.1083 358.491 92.2738ZM358.22 92.3781C359.752 90.6912 361.977 88.9818 361.999 89.4742C362.009 89.7329 361.367 90.4945 361.157 90.7453C359.293 92.8731 357.182 94.4372 357.211 93.8511C357.221 93.6188 357.617 93.0407 358.22 92.3781Z" fill="white"/>
<path d="M350.934 101.512C350.185 102.719 350.035 103.487 350.567 103.377C351.282 103.232 353.06 101.417 354.197 99.3804C354.974 97.8704 354.463 97.9377 354.207 98.0367C353.438 98.335 351.878 99.9915 350.934 101.512Z" fill="white"/>
<path d="M356.809 92.5852C356.619 92.7739 355.994 93.3996 355.932 93.5632C355.939 93.5672 355.947 93.5712 355.952 93.5738C356.213 93.4563 357.476 92.2789 358.496 91.256C358.978 90.7689 359.165 90.5617 359.187 90.4917C359.031 90.5102 357.715 91.6876 356.809 92.5852Z" fill="white"/>
<path d="M491.879 148.62C491.877 149.347 492.007 149.964 492.139 149.864C492.22 149.803 492.297 149.429 492.288 148.831C492.274 148.133 492.149 147.593 492.024 147.698C491.939 147.769 491.88 148.149 491.879 148.62Z" fill="white"/>
<path d="M485.668 186.096C484.245 186.865 484.245 186.865 482.727 187.135C483.526 179.878 483.611 172.686 476.52 158.129C431.907 157.069 400.59 148.104 382.174 140.768C376.882 143.693 376.882 143.693 366.316 149.444C344.575 137.712 339.843 129.12 339.429 119.828C342.173 113.153 342.593 112.127 345.81 106.71C347.126 103.717 347.363 103.178 349.53 100.307L350.301 99.3726C348.309 102.018 347.708 102.815 346.293 106.177C342.785 112.275 342.154 113.375 339.85 119.225C340.29 127.185 343.805 136.226 366.335 148.372C375.63 143.336 377.564 142.29 382.187 139.722C410.442 150.678 442.282 156.531 476.822 157.119C482.737 169.371 484.352 176.721 483.222 186.246C485.324 185.802 485.395 185.747 486.084 185.219L485.668 186.096Z" fill="white"/>
<path d="M489.654 128.173C489.704 128.34 489.773 128.563 489.824 128.731C484.424 130.709 467.632 130.381 453.386 129.177C448.473 135.207 445.637 138.496 434.969 147.338C426.068 145.877 405.224 142.454 384.05 133.906C381.941 126.66 380.98 123.352 380.203 115.216C383.179 129.242 383.179 129.242 384.456 133.422C391.457 136.138 407.853 142.501 434.805 146.694C444.044 138.928 448.152 134.865 453.12 128.582C483.504 130.948 489.409 128.261 489.646 128.145C489.647 128.153 489.651 128.163 489.654 128.173Z" fill="white"/>
<path d="M342.795 115.947C342.735 115.988 342.664 116.05 342.609 116.097C345.663 109.214 345.782 108.945 348.441 104.702C349.379 101.786 350.187 99.2693 354.09 95.1616L354.614 94.623C352.124 97.4016 349.973 99.8012 348.788 104.375C344.992 110.826 344.764 111.211 342.824 115.928C342.815 115.934 342.803 115.942 342.795 115.947Z" fill="white"/>
<path d="M485.824 116.527C485.81 116.637 485.79 116.785 485.774 116.896C482.281 119.338 459.134 119.383 434.529 115.783C429.152 109.292 428.182 108.043 424.484 103.211C424.566 103.136 424.676 103.035 424.759 102.96C428.134 106.933 431.418 110.981 434.769 114.974C465.618 119.238 484.152 117.782 485.438 115.806C485.426 115.758 485.411 115.696 485.399 115.649L485.824 116.527Z" fill="white"/>
<path d="M375.791 130.184C374.702 124.048 373.054 114.774 375.313 104.474C372.379 101.925 367.942 98.0734 367.33 92.6603C372.013 87.7593 372.103 87.6656 374.973 85.4494C375.136 85.4098 375.35 85.3464 375.509 85.2949C373.19 87.2603 370.221 90.0283 368.109 92.2128C368.597 94.6877 369.333 98.4272 376.048 103.875C375.155 109.037 373.804 116.839 376.538 129.788L375.791 130.184Z" fill="white"/>
<path d="M378.732 196.853C378.589 196.912 378.409 197.018 378.278 197.102C373.926 191.374 367.35 182.716 360.961 168.215C352.914 163.756 348.587 161.025 342.62 155.653C342.724 155.269 342.747 155.167 342.81 154.742C348.746 159.923 352.269 162.485 361.439 167.439C364.696 174.563 368.75 183.43 378.816 196.824C378.792 196.832 378.757 196.844 378.732 196.853Z" fill="white"/>
<path d="M454.955 197.499C451.382 197.658 441.89 198.076 416.785 193.639C410.368 184.343 408.916 182.131 403.84 173.913C363.804 162.893 341.037 149.189 336.171 133.183L336.366 132.654C341.934 149.044 364.762 162.745 404.216 173.373C408.748 180.717 410.115 182.934 417.161 193.166C432.254 195.812 440.382 196.736 454.976 197.464C454.971 197.474 454.961 197.489 454.955 197.499Z" fill="white"/>
<path d="M493.218 143.074C493.127 143.212 492.996 143.405 492.853 143.491C492.589 149.709 492.562 150.359 491.44 155.514C491.41 155.299 491.401 155.25 491.358 155.075C492.591 148.65 492.691 148.125 492.763 142.876C492.895 142.761 493.128 142.614 493.153 142.441L493.218 143.074Z" fill="white"/>
<path d="M471.386 165.74C471.362 165.864 471.338 166.03 471.317 166.154C461.634 166.088 426.968 164.821 387.395 151.311C387.45 151.135 387.526 150.9 387.561 150.719C414.476 159.801 439.547 164.281 471.396 165.698C471.392 165.711 471.388 165.728 471.386 165.74Z" fill="white"/>
<path d="M357.327 116.771C353.902 112.725 346.774 104.307 355.929 93.5662C356.078 93.4342 356.139 93.3787 356.321 93.2124C349.118 102.599 351.331 108.743 357.585 116.186C360.076 115.062 363.398 113.564 365.889 112.44C365.852 112.608 365.844 112.649 365.825 112.809C363.289 114.024 359.89 115.611 357.327 116.771Z" fill="white"/>
<path d="M344.4 107.535C344.194 107.833 344.031 108.082 343.953 108.199C344.316 107.601 344.8 106.803 345.164 106.205L345.817 105.249L344.428 107.494C344.419 107.507 344.408 107.523 344.4 107.535Z" fill="white"/>
<path d="M481.75 193.276C481.121 193.768 480.772 193.961 478.172 194.391C478.875 190.435 479.936 184.457 476.687 174.572C471.306 174.534 458.705 174.445 439.032 171.85C439.167 171.415 439.191 171.302 439.239 170.855C445.632 171.663 460.604 173.556 477.137 173.6C478.527 178.417 480.627 185.697 478.748 193.557C480.7 193.203 481.681 193.026 482.251 192.448L481.75 193.276Z" fill="white"/>
<path d="M476.617 200.682C475.846 201.222 475.411 201.379 472.548 201.821C473.788 197.16 474.252 195.417 473.494 188.798C473.675 188.633 473.74 188.563 473.874 188.408C474.362 193.623 474.565 195.782 472.953 201.346C475.431 200.953 476.18 200.811 476.983 200.209L476.617 200.682Z" fill="white"/>
<path d="M434.345 139.416C434.333 139.482 434.325 139.573 434.317 139.64C414.998 136.796 400.324 132.257 391.417 128.95C391.444 128.888 391.478 128.806 391.504 128.744C403.607 132.676 415.038 136.392 434.35 139.395C434.349 139.401 434.346 139.411 434.345 139.416Z" fill="white"/>
<path d="M344.891 120.573C344.825 120.596 344.793 120.618 344.735 120.661C345.614 117.78 346.897 113.97 348.009 111.17C348.087 111.138 348.087 111.138 348.159 111.091C347.086 113.898 345.76 117.685 344.911 120.568C344.906 120.571 344.898 120.572 344.891 120.573Z" fill="white"/>
<path d="M346.414 122.427C346.355 122.444 346.31 122.472 346.268 122.498C346.96 119.626 347.993 115.82 348.929 113.018C348.999 113.011 349.013 113.01 349.099 112.969C348.199 115.774 347.103 119.552 346.436 122.421C346.429 122.423 346.42 122.425 346.414 122.427Z" fill="white"/>
<path d="M348.118 125.884C348.051 125.912 348.003 125.946 347.957 125.979C348.407 122.996 349.135 119.032 349.847 116.1C349.933 116.073 349.957 116.061 350.054 115.996C349.371 118.936 348.58 122.888 348.145 125.873C348.137 125.877 348.126 125.881 348.118 125.884Z" fill="white"/>
<path d="M350.447 127.628C350.377 127.647 350.326 127.678 350.277 127.707C350.569 124.74 351.07 120.79 351.606 117.857C351.7 117.827 351.725 117.815 351.827 117.749C351.318 120.695 350.751 124.644 350.473 127.621C350.465 127.624 350.455 127.626 350.447 127.628Z" fill="white"/>
<path d="M353.069 130.943C352.995 130.966 352.942 130.997 352.89 131.028C352.958 128.035 353.158 124.044 353.466 121.066C353.567 121.033 353.593 121.02 353.699 120.95C353.418 123.938 353.154 127.935 353.098 130.935C353.09 130.938 353.078 130.94 353.069 130.943Z" fill="white"/>
<path d="M488.861 136.073C488.876 136.169 488.903 136.296 488.924 136.391C479.776 137.68 465.659 136.944 458.059 136.391C458.059 136.297 458.051 136.172 458.039 136.078C465.929 136.52 480.618 137.343 488.855 136.05C488.858 136.057 488.859 136.066 488.861 136.073Z" fill="white"/>
<path d="M493.605 149.659L493.598 149.71C493.286 156.645 493.169 159.24 490.281 167.73C490.284 167.614 490.285 167.567 490.276 167.481C492.641 160.225 493.335 157.759 493.587 149.333L493.595 149.272L493.605 149.659Z" fill="white"/>
<path d="M438.271 170.958L438.229 171.226C437.579 173.747 434.728 174.163 433.614 172.437C432.34 170.463 434.278 167.724 436.534 168.309C437.675 168.607 438.406 169.721 438.271 170.958ZM439.239 170.855C439.416 167.675 435.975 166.047 433.575 168.175C432.517 169.112 432.341 170.228 432.266 170.704C432.047 174.267 435.701 175.547 437.944 173.501C438.835 172.688 439.196 171.602 439.239 170.855Z" fill="white"/>
<path d="M393.02 162.293L392.968 162.555C392.247 164.985 389.518 164.948 388.53 163.036C387.454 160.954 389.162 158.607 391.257 159.286C392.436 159.669 393.212 160.989 393.02 162.293ZM393.957 162.345C394.202 158.707 390.614 157.052 388.463 158.982C387.625 159.734 387.436 160.651 387.344 161.091C386.955 164.661 390.379 166.513 392.626 164.788C393.297 164.272 393.552 163.691 393.722 163.307C393.696 163.299 393.665 163.29 393.64 163.282L393.874 162.32L393.957 162.345Z" fill="white"/>
<path d="M343.194 110.097L343.063 110.297C342.568 111.038 342.303 111.384 342.204 111.421C342.096 111.003 344.617 107.214 344.846 107.137C344.919 107.377 343.54 109.568 343.194 110.097ZM343.098 110.419C343.799 109.341 345.353 106.824 345.398 106.368C345.388 106.36 345.374 106.351 345.364 106.343C345.144 106.465 344.591 107.245 344.165 107.878C342.983 109.642 341.722 111.886 341.713 112.242C341.766 112.245 341.904 112.255 343.098 110.419Z" fill="white"/>
<path d="M378.722 133.702L378.632 133.946C377.627 136.131 375.489 136.063 374.906 134.371C374.219 132.379 376.155 129.999 377.824 130.783C378.72 131.204 379.115 132.487 378.722 133.702ZM379.459 133.924C380.349 131.123 378.37 128.826 376.098 130.022C374.894 130.657 374.407 131.867 374.248 132.264C373.256 135.434 375.496 137.391 377.651 136.227C378.465 135.787 379.141 134.927 379.459 133.924Z" fill="white"/>
<path d="M398.707 124.807L398.64 125.046C397.857 127.164 395.653 127.304 394.91 125.745C394.037 123.912 395.765 121.497 397.515 122.109C398.458 122.437 398.981 123.623 398.707 124.807ZM399.465 124.958C400.075 122.239 397.862 120.218 395.705 121.525C394.554 122.222 394.172 123.407 394.046 123.798C393.323 126.901 395.775 128.584 397.862 127.296C398.647 126.813 399.245 125.939 399.465 124.958Z" fill="white"/>
<path d="M342.3 154.504L342.255 154.754C341.809 156.6 340.863 156.453 340.354 155.636C339.319 153.979 339.836 150.694 341.103 150.885C341.951 151.016 342.555 152.841 342.3 154.504ZM342.812 154.741C343.167 151.862 341.816 149.14 340.481 150.044C339.757 150.534 339.523 151.788 339.446 152.2C339.009 155.544 340.523 158.011 341.806 157.035C342.395 156.586 342.711 155.555 342.812 154.741Z" fill="white"/>
<path d="M383.544 200.282C383.687 202.589 380.934 203.133 378.866 201.205C377.64 200.062 377.59 198.944 377.574 198.575C377.722 196.106 380.791 196.178 382.557 198.138C383.356 199.027 383.519 199.862 383.544 200.282Z" fill="white"/>
<path d="M425.191 100.897C425.569 102.975 423.907 104.215 422.322 103.041C421.851 102.691 421.046 101.861 420.951 100.23C420.993 97.8875 422.725 97.4599 424.058 98.7666C424.625 99.321 425.048 100.118 425.191 100.897Z" fill="white"/>
<path d="M377.643 84.2957C375.43 85.5009 374.396 85.6962 374.547 85.2685C374.63 85.0323 375.411 84.1413 377.987 82.8794C379.925 81.9753 380.911 81.801 380.746 82.1561C380.571 82.5323 379.03 83.5394 377.643 84.2957Z" fill="white"/>
<path d="M440.573 124.376C440.965 127.072 438.45 128.626 436.302 127.016C436.173 126.92 436.016 126.775 435.899 126.665C436.504 126.068 437.312 125.274 437.916 124.677L437.323 123.959L435.325 125.927C434.924 125.213 434.775 124.7 434.74 123.894C434.844 120.876 437.562 120.237 439.395 122.061C440.283 122.947 440.515 123.975 440.573 124.376Z" fill="white"/>
<path d="M465.838 189.378C464.942 192.167 461.764 193.805 460.837 191.957C460.481 191.247 460.661 190.44 460.748 190.054C461.472 190.077 462.436 190.108 463.16 190.132L463.5 189.263L461.07 189.184C462.537 186.33 465.289 185.689 465.909 187.443C466.093 187.96 466.067 188.666 465.838 189.378Z" fill="white"/>
<path d="M356.409 93.0908L356.289 93.1977C355.831 93.6082 355.624 93.7825 355.573 93.7983C355.65 93.5911 357.854 91.5372 358.055 91.4857C358.012 91.6362 356.424 93.0763 356.409 93.0908ZM356.321 93.2122C356.53 93.0208 358.372 91.3418 358.496 91.1069C358.473 91.1016 358.405 91.0884 357.371 92.0097C356.195 93.071 355.274 94.0108 355.155 94.193C355.188 94.1956 355.236 94.2009 356.321 93.2122Z" fill="white"/>
<path d="M421.239 207.659L421.202 207.786C420.649 209.089 418.666 209.082 418.214 208.048C417.756 207.003 419.161 205.942 420.424 206.377C421.03 206.587 421.365 207.114 421.239 207.659ZM421.769 207.697C421.896 207.167 421.674 206.789 421.578 206.628C421.566 206.635 421.549 206.644 421.536 206.651L421.287 206.306C420.15 205.418 418.02 205.844 417.615 207.404C417.386 209.122 419.664 209.745 421.041 208.731C421.412 208.459 421.676 208.081 421.769 207.697Z" fill="white"/>
<path d="M450.691 142.876L450.695 143.056C450.587 144.702 449 145.135 448.085 144.164C447.038 143.052 447.623 141.157 449.017 141.137C449.875 141.125 450.625 141.905 450.691 142.876ZM451.222 142.864C451.074 140.782 448.773 139.76 447.547 141.232C447.006 141.882 447.01 142.614 447.013 142.927C447.238 145.265 449.566 145.984 450.714 144.576C451.218 143.957 451.248 143.237 451.222 142.864Z" fill="white"/>
<path d="M342.211 118.596L342.124 118.744C341.507 119.725 341.246 119.658 341.19 119.464C340.99 118.776 342.327 116.236 342.796 116.41C343.067 116.511 342.772 117.614 342.211 118.596ZM342.285 118.806C343.127 117.329 343.491 115.764 342.968 115.867C342.813 115.897 342.458 116.106 341.823 117.164C340.865 118.863 340.637 120.275 341.159 120.131C341.43 120.056 341.861 119.548 342.285 118.806Z" fill="white"/>
<path d="M381.286 113.632L381.205 113.782C380.354 115.149 379.217 115.018 379.013 114.165C378.724 112.954 380.196 111.317 381.114 111.829C381.581 112.09 381.656 112.882 381.286 113.632ZM381.646 113.759C382.379 112.257 381.774 110.913 380.529 111.278C380.097 111.405 379.463 111.764 378.894 112.754C378.049 114.477 378.845 115.649 380.055 115.269C380.678 115.072 381.287 114.494 381.646 113.759Z" fill="white"/>
<path d="M457.814 197.72L457.749 197.868C457.005 199.267 455.471 199.663 455.143 198.809C454.722 197.713 456.518 195.949 457.545 196.449C457.94 196.64 458.044 197.139 457.814 197.72ZM458.253 197.682C458.799 196.321 457.952 195.473 456.605 196.033C455.863 196.342 455.156 197.031 454.805 197.787C454.19 199.147 454.967 200.105 456.29 199.618C457.11 199.317 457.917 198.521 458.253 197.682Z" fill="white"/>
<path d="M336.366 132.654C336.039 133.652 335.555 134.47 335.345 134.054C335.174 133.715 335.254 132.366 335.848 130.715C336.453 129.169 336.715 129.514 336.763 129.599C336.972 129.98 336.793 131.35 336.366 132.654Z" fill="white"/>
<path d="M368.617 112.507C367.672 113.991 366.123 114.442 365.854 113.311C365.788 113.03 365.723 112.252 366.557 111.101C367.787 109.574 369.042 109.577 369.169 110.649C369.231 111.173 369.025 111.867 368.617 112.507Z" fill="white"/>
<path d="M490.388 148.257C490.523 149.983 490.114 151.414 489.607 150.992C489.473 150.88 489.146 150.461 489.002 148.984L489.728 148.904L489.697 148.273L488.973 148.353C488.98 146.599 489.402 145.884 489.788 146.226C490.072 146.478 490.313 147.293 490.388 148.257Z" fill="white"/>
<path d="M387.561 150.718C387.281 152.679 385.078 153.434 383.879 151.981C383.508 151.532 383.131 150.748 383.438 149.568C384.2 147.444 386.46 147.457 387.302 149.072C387.56 149.567 387.647 150.121 387.561 150.718Z" fill="white"/>
<path d="M490.016 127.882C490.319 128.848 490.714 130.365 490.597 130.555C490.364 130.479 489.821 128.728 489.714 128.379C489.397 127.33 489.103 126.129 489.205 125.968C489.427 126.053 489.882 127.455 490.016 127.882Z" fill="white"/>
<path d="M491.493 156.606C491.464 158.431 490.972 160.015 490.584 159.528C490.501 159.422 490.233 158.945 490.309 157.196C490.445 155.123 490.896 154.393 491.17 154.664C491.381 154.872 491.508 155.635 491.493 156.606Z" fill="white"/>
<path d="M474.475 165.896C474.317 167.951 472.728 169.296 471.775 168.181C471.377 167.716 471.212 166.919 471.33 166.048C471.621 164.061 473.171 162.935 474.047 164.073C474.372 164.49 474.53 165.171 474.475 165.896Z" fill="white"/>
<path d="M464.811 204.581C463.863 206.078 462.114 207.066 461.933 206.208C461.848 205.812 462.17 205.242 462.276 205.053L463.92 205.006L464.23 204.559L462.579 204.606C463.764 203.1 465.143 202.618 465.222 203.414C465.249 203.699 465.099 204.124 464.811 204.581Z" fill="white"/>
<path d="M474.737 186.876C474.123 188.681 472.488 189.897 472.005 188.909C471.816 188.522 471.862 187.93 472.144 187.147C472.945 185.232 474.397 184.433 474.814 185.316C474.979 185.665 474.951 186.248 474.737 186.876Z" fill="white"/>
<path d="M344.759 121.747L344.726 121.804C344.493 122.171 344.301 122.208 344.249 122.031C344.141 121.655 344.623 120.785 344.871 120.909C345.012 120.98 344.958 121.387 344.759 121.747ZM344.853 121.872C345.233 121.183 345.254 120.467 344.891 120.574C344.725 120.622 344.541 120.819 344.343 121.157C343.94 121.916 343.969 122.539 344.285 122.468C344.455 122.431 344.672 122.202 344.853 121.872Z" fill="white"/>
<path d="M348.249 127.065L348.219 127.124C347.946 127.585 347.679 127.533 347.609 127.293C347.476 126.842 347.948 126.052 348.247 126.223C348.419 126.322 348.42 126.715 348.249 127.065ZM348.398 127.189C348.751 126.464 348.609 125.728 348.145 125.874C347.946 125.938 347.753 126.141 347.573 126.481C347.192 127.302 347.402 127.957 347.838 127.8C348.038 127.727 348.247 127.499 348.398 127.189Z" fill="white"/>
<path d="M353.335 132.142L353.307 132.204C353.044 132.691 352.671 132.679 352.574 132.313C352.44 131.806 352.914 131.107 353.25 131.314C353.44 131.433 353.479 131.804 353.335 132.142ZM353.527 132.259C353.853 131.491 353.553 130.741 353.009 130.964C352.685 131.098 352.509 131.471 352.451 131.594C352.115 132.44 352.456 133.087 352.95 132.903C353.176 132.819 353.392 132.579 353.527 132.259Z" fill="white"/>
<path d="M435.877 139.741L435.874 139.808C435.793 140.447 435.116 140.552 434.793 140.115C434.439 139.638 434.767 138.975 435.315 139.058C435.625 139.107 435.871 139.405 435.877 139.741ZM436.212 139.754C436.196 138.855 435.183 138.353 434.595 138.954C434.483 139.069 434.343 139.275 434.319 139.594C434.27 140.506 435.229 141.087 435.874 140.537C436.091 140.353 436.217 140.06 436.212 139.754Z" fill="white"/>
<path d="M489.316 136.091L489.331 136.16C489.43 136.688 489.35 136.899 489.255 136.849C489.018 136.723 488.814 135.559 489.023 135.523C489.111 135.508 489.239 135.757 489.316 136.091ZM489.398 136.038C489.254 135.41 489.009 135.014 488.883 135.209C488.809 135.325 488.78 135.702 488.894 136.256C489.039 136.953 489.301 137.394 489.431 137.162C489.524 136.997 489.509 136.524 489.398 136.038Z" fill="white"/>
<path d="M490.141 168.265L490.127 168.334C490.02 168.847 489.873 169.117 489.812 169.015C489.687 168.805 489.966 167.638 490.13 167.687C490.192 167.706 490.198 167.948 490.141 168.265ZM490.233 168.156C490.322 167.614 490.292 167.251 490.162 167.328C490.069 167.382 489.88 167.744 489.737 168.515C489.622 169.213 489.688 169.46 489.799 169.394C489.937 169.312 490.137 168.744 490.233 168.156Z" fill="white"/>
<path d="M352.132 117.157L352.095 117.213C351.798 117.612 351.53 117.625 351.487 117.371C351.416 116.946 351.97 116.204 352.238 116.368C352.39 116.461 352.341 116.829 352.132 117.157ZM352.259 117.275C352.674 116.622 352.659 115.946 352.23 116.029C352.084 116.057 351.849 116.181 351.557 116.608C351.097 117.358 351.197 117.957 351.608 117.858C351.768 117.819 352.022 117.646 352.259 117.275Z" fill="white"/>
<path d="M349.541 112.341L349.502 112.394C349.217 112.749 349.034 112.767 349.007 112.605C348.946 112.235 349.578 111.388 349.777 111.575C349.876 111.671 349.766 112.028 349.541 112.341ZM349.617 112.459C350.063 111.834 350.185 111.178 349.841 111.249C349.724 111.273 349.519 111.388 349.212 111.796C348.718 112.503 348.666 113.082 348.987 113.013C349.156 112.977 349.398 112.765 349.617 112.459Z" fill="white"/>
<path d="M348.598 110.633C348.242 111.113 347.891 111.321 347.847 111.075C347.819 110.915 347.94 110.469 348.39 109.891C348.84 109.349 349.046 109.382 349.074 109.536C349.113 109.741 348.902 110.222 348.598 110.633Z" fill="white"/>
<path d="M346.49 123.735C346.167 124.344 345.721 124.543 345.606 124.13C345.593 124.082 345.487 123.639 345.889 122.933C346.267 122.329 346.623 122.29 346.717 122.632C346.791 122.893 346.697 123.347 346.49 123.735Z" fill="white"/>
<path d="M350.774 128.943C350.459 129.618 349.905 129.817 349.717 129.323C349.675 129.211 349.561 128.798 349.884 128.165C350.283 127.474 350.783 127.472 350.911 127.953C350.984 128.22 350.93 128.609 350.774 128.943Z" fill="white"/>
<path d="M354.124 120.459C353.749 121.103 353.191 121.293 353.057 120.822C353.027 120.716 352.958 120.323 353.336 119.718C353.808 119.05 354.28 119.061 354.357 119.515C354.401 119.77 354.309 120.141 354.124 120.459Z" fill="white"/>
<path d="M391.534 128.639C391.342 129.487 390.377 129.787 389.993 129.118C389.847 128.863 389.831 128.556 389.948 128.207C390.321 127.332 391.194 127.316 391.479 127.967C391.599 128.236 391.564 128.504 391.534 128.639Z" fill="white"/>
<path d="M458.036 136.056C458.208 136.903 457.549 137.469 456.918 137.017C456.724 136.878 456.484 136.606 456.425 136.09C456.398 135.186 457.12 134.887 457.648 135.36C457.839 135.532 457.981 135.785 458.036 136.056Z" fill="white"/>
<path d="M350.477 115.533C350.095 116.108 349.635 116.297 349.567 115.908C349.559 115.863 349.502 115.444 349.972 114.778C350.422 114.194 350.762 114.176 350.817 114.491C350.861 114.737 350.721 115.166 350.477 115.533Z" fill="white"/>
<path d="M463.16 190.131L460.748 190.053C444.454 189.305 437.627 188.32 428.982 187.073C422.706 177.534 422.13 176.62 417.659 169.512C406.653 167.047 403.968 166.351 393.723 163.307L393.641 163.282L393.875 162.32L393.957 162.345C400.832 164.382 407.326 166.305 418.265 168.615C423.634 177.115 424.797 178.912 429.613 186.239C437.808 187.398 445.549 188.492 461.069 189.182L463.499 189.261L463.16 190.131Z" fill="white"/>
<path d="M435.898 126.665C433.755 128.633 430.86 131.219 428.647 133.108C420.322 131.515 412.458 130.011 399.314 125.818L399.592 124.935C406.549 127.115 413.745 129.37 428.377 132.112C430.488 130.287 433.28 127.826 435.323 125.928L437.322 123.959L437.915 124.678L435.898 126.665Z" fill="white"/>
<path d="M489.728 148.905L489.002 148.986C486.126 149.223 485.825 149.248 483.333 149.335C482.58 147.98 481.621 146.145 480.823 144.816C472.708 144.882 464.933 144.676 451.27 143.447L451.28 142.84C460.741 143.666 469.498 144.338 480.9 144.197C481.659 145.55 482.719 147.326 483.428 148.706C487.067 148.538 487.209 148.532 488.973 148.357L489.697 148.277L489.728 148.905Z" fill="white"/>
<path d="M463.919 205.006L462.275 205.053C447.739 205.214 436.912 204.119 428.238 203.025C426.243 204.111 423.586 205.565 421.578 206.628L421.536 206.65L421.287 206.306L421.274 206.287C423.353 205.168 426.126 203.678 428.191 202.532C434.849 203.343 447.243 204.85 462.576 204.606L464.227 204.558L463.919 205.006Z" fill="white"/>
<path d="M370.045 77.8121L375.411 79.1598L381.83 71.2321L381.874 71.2334L393.959 71.6439L408.003 64.561L408.04 64.5769L419.539 69.3696L437.448 67.0214C450.059 70.3662 461.434 76.4671 471.256 85.1524C479.713 92.6313 486.441 101.546 491.25 111.653C495.896 121.414 498.567 131.87 499.189 142.728C499.811 153.586 498.353 164.3 494.854 174.572C491.233 185.207 485.571 194.9 478.029 203.382C464.243 218.887 445.325 228.756 424.762 231.174C419.516 231.791 414.19 231.916 408.931 231.546L408.907 231.545L408.887 231.532L398.384 224.295L398.483 224.152L408.966 231.376C414.207 231.743 419.513 231.619 424.741 231.004C445.262 228.591 464.14 218.74 477.898 203.269C508.643 168.694 505.612 115.766 471.139 85.2844C461.343 76.6189 449.998 70.5325 437.419 67.1944L419.515 69.5478L419.494 69.5386L408.011 64.7524L393.998 71.8195L393.976 71.8182L381.912 71.4077L375.478 79.3538L370.003 77.9784L370.045 77.8121Z" fill="white"/>
<path d="M344.347 103.793L344.378 103.766L363.359 87.6272L369.953 77.8477L370.097 77.944L363.49 87.7434L363.481 87.7513L344.519 103.875L344.297 111.686L344.284 111.706L334.338 127.556L340.596 141.636L340.582 141.67L332.629 161.13L334.519 150.03L334.691 150.059L333.066 159.602L340.407 141.639L334.142 127.541L334.167 127.503L344.125 111.635L344.347 103.793Z" fill="white"/>
<path d="M332.309 135.988L340.672 141.648L340.542 141.716L333.919 145.116L334.743 150.353L331.419 146.205L333.728 145.019L332.309 135.988ZM340.331 141.628L332.542 136.358L333.889 144.936L340.331 141.628ZM333.755 145.2L331.686 146.263L334.467 149.736L333.755 145.2Z" fill="white"/>
<path d="M491.589 182.07L491.733 182.168L482.651 197.47L468.234 212.621L468.101 212.509L491.589 182.07ZM482.514 197.366L490.855 183.306L469.265 211.286L482.514 197.366Z" fill="white"/>
<path d="M398.458 224.138L423.917 231.151L438.833 223.434L445.812 225.5L461.851 207.279L461.859 207.275L461.904 207.225L461.927 207.244L472.078 202.37L472.621 201.801L476.671 192.211L476.692 192.196L486.971 185.24L488.535 181.004L495.226 172.774L478.494 157.026L498.942 152.283L498.982 152.452L478.85 157.121L495.466 172.76L495.416 172.822L488.683 181.103L487.221 185.074L491.773 181.993L486.208 187.822L482.647 197.489L482.616 197.505L472.594 202.316L468.206 212.704L465.004 210.035L453.058 222.55L461.405 208.058L445.87 225.701L445.818 225.685L438.851 223.623L423.937 231.339L423.904 231.33L398.411 224.308L398.458 224.138ZM464.869 209.923L461.939 207.48L453.929 221.384L464.869 209.923ZM471.74 202.725L462.075 207.366L464.991 209.796L471.74 202.725ZM486.87 185.52L476.814 192.325L472.962 201.446L486.057 187.728L486.87 185.52ZM472.184 202.513L465.125 209.909L468.137 212.421L472.357 202.43L472.184 202.513ZM490.527 183.045L487.116 185.353L486.358 187.413L490.527 183.045ZM485.905 188.139L472.77 201.898L472.696 202.073L482.508 197.364L485.905 188.139Z" fill="white"/>
<path d="M375.063 79.3182L393.971 71.6452L419.537 69.3696L419.556 69.3762L430.248 73.1368L455.875 74.3789L455.895 74.433C458.272 81.0671 462.808 93.6899 462.967 93.9816C463.278 94.3195 474.81 100.585 479.226 102.971L479.255 102.986L479.265 103.018L484.769 118.64L497.42 129.825L497.422 129.861L499.044 152.387L491.741 182.144L491.572 182.103L498.87 152.359L497.25 129.908L484.62 118.74L484.612 118.719L479.112 103.108C476.352 101.618 463.003 94.3947 462.815 94.0687C462.629 93.7479 456.232 75.8955 455.749 74.5478L430.201 73.3057L419.513 69.5478L394.014 71.8155C393.409 72.3329 384.794 79.6772 383.805 79.9055L383.78 79.9082L375.063 79.3182ZM393.514 72.0148L375.827 79.1967L383.777 79.7339C384.562 79.5188 390.259 74.7854 393.514 72.0148Z" fill="white"/>
<path d="M363.357 87.6313L363.493 87.7396L344.294 111.696L340.599 141.564L340.654 141.571L340.587 141.668L338.603 181.696L338.429 181.702L334.515 150.022L334.535 149.994L340.35 141.705L334.571 140.923L334.595 140.75L340.428 141.54L344.129 111.626L344.145 111.606L363.357 87.6313ZM338.48 180.682L340.4 141.934L334.696 150.067L338.48 180.682Z" fill="white"/>
<path d="M356.264 88.7347L368.099 82.8557L369.945 77.8662L370.107 77.9256L368.327 82.7421L375.721 79.0687L367.179 85.848L359.534 106.529L359.494 106.542L344.284 111.726L334.69 150.065L334.522 150.023L343.553 113.933L334.663 140.865L334.497 140.815L344.325 103.764L344.347 103.747L351.183 98.3216L356.264 88.7347ZM368.011 83.0932L356.391 88.8654L351.523 98.051L367.031 85.7437L368.011 83.0932ZM350.98 98.7044L344.478 103.864L335.415 138.034L344.073 111.798L344.031 111.813L350.98 98.7044ZM366.915 86.0566L351.319 98.4338L344.39 111.507L359.398 106.392L366.915 86.0566ZM374.319 79.9597L368.238 82.9811L367.295 85.5352L374.319 79.9597Z" fill="white"/>
<path d="M444.077 89.7817L453.03 85.1064L453.111 85.2596L444.575 89.7184L462.968 93.9554L465.441 109.176L465.269 109.204L462.815 94.098L444.077 89.7817Z" fill="white"/>
<path d="M407.668 64.3169L428.214 78.513L430.151 73.1936L430.315 73.253L428.362 78.6147L433.859 82.4135L446.669 73.8034L446.641 73.9961L444.392 89.9016L433.858 82.6234L424.403 88.979L424.479 88.7704L407.668 64.3169ZM428.152 78.682L408.347 64.9967L424.553 88.5685L428.152 78.682ZM433.705 82.5178L428.3 78.7836L424.75 88.5368L433.705 82.5178ZM446.442 74.1651L434.013 82.5191L444.26 89.5981L446.442 74.1651Z" fill="white"/>
<path d="M476.668 144.244L476.735 144.219L493.535 137.971L493.349 138.211L478.615 157.287L476.668 144.244ZM493.025 138.346L476.86 144.358L478.727 156.858L493.025 138.346Z" fill="white"/>
<path d="M465.15 109.186L479.149 102.969L479.22 103.128L465.56 109.194L484.801 118.645L476.922 144.085L497.286 129.796L497.386 129.939L476.606 144.519L476.681 144.276L484.592 118.736L465.15 109.186Z" fill="white"/>
<path d="M384.547 203.337L397.351 203.786L398.54 224.54L384.547 203.337ZM397.186 203.954L384.877 203.524L398.329 223.905L397.186 203.954Z" fill="white"/>
<path d="M338.294 181.601L362.008 182.06L362.032 182.106L371.418 200.435L371.263 200.514L361.901 182.232L338.739 181.783L385.694 226.301L385.574 226.428L338.294 181.601Z" fill="white"/>
<path d="M397.207 203.932L397.33 203.808L409.855 216.157L398.486 224.292L398.384 224.151L409.586 216.136L397.207 203.932Z" fill="white"/>
<path d="M409.452 215.99L438.825 223.433L461.831 207.298L463.289 191.594L476.68 192.179L493.197 138.133L493.363 138.185L476.806 192.358L463.446 191.775L461.998 207.394L461.965 207.417L438.859 223.622L438.821 223.611L409.987 216.304L423.99 231.184L423.864 231.303L409.452 215.99Z" fill="white"/>
<path d="M403.468 230.835L431.601 207.773L438.86 223.36L463.298 191.632L463.436 191.738L438.823 223.693L438.762 223.563L431.538 208.05L403.578 230.968L403.468 230.835Z" fill="white"/>
<path d="M340.551 141.567L351.248 149.12L351.256 149.153L361.977 195.819L371.459 200.438L371.418 200.517C369.623 203.939 365.218 212.377 364.34 214.203C366.778 212.415 383.904 203.744 384.673 203.355L384.881 203.249L379.479 216.499L398.467 224.143L398.41 224.306L364.175 214.589C364.146 214.618 364.107 214.64 364.058 214.61C363.955 214.548 363.923 214.529 367.606 207.443C369.256 204.264 370.939 201.055 371.222 200.514L361.827 195.938L361.817 195.897L351.093 149.223L340.451 141.709L340.551 141.567ZM384.543 203.612C377.84 207.006 365.563 213.344 364.303 214.442L396.885 223.691L379.251 216.592L379.284 216.512L384.543 203.612Z" fill="white"/>
<path d="M352.734 92.5919C371.692 71.2732 399.842 60.9947 428.039 65.0971L428.096 65.1051L430.293 73.1132L443.796 68.9224L443.831 68.9831L453.127 85.1037L474.91 88.6782L479.265 103.01L497.438 129.861L497.416 129.906L493.376 138.162L499.054 152.366L499.044 152.397L488.681 181.108L488.666 181.123L476.805 192.331L453.564 222.018L453.427 221.911L476.676 192.213L488.531 181.009L498.869 152.367L493.186 138.154L493.204 138.12L497.238 129.874L479.108 103.086L479.104 103.072L474.777 88.8313L453.018 85.2608L452.998 85.2252L443.713 69.1296L430.172 73.3324L430.148 73.2452L427.957 65.2595C399.838 61.1887 371.77 71.4461 352.865 92.7054C349.765 96.1914 346.943 99.944 344.476 103.859C338.249 113.739 334.225 124.606 332.515 136.158L334.679 140.84L334.658 140.879L331.64 146.256C331.324 158.412 333.641 170.283 338.282 181.148L332.62 159.852L340.269 171.776L351.093 149.134L351.25 149.209L340.379 171.952L349.537 188.276L361.985 195.826L361.991 195.868L364.224 214.411L379.419 216.465L379.441 216.499L385.678 226.269L398.474 224.127L403.721 231.016L403.513 230.988C387.128 228.761 371.912 221.789 359.51 210.822C341.037 194.49 330.817 170.947 331.465 146.231L331.476 146.191L334.483 140.834L332.335 136.185L332.339 136.16C334.051 124.574 338.084 113.676 344.328 103.767C346.8 99.845 349.629 96.0858 352.734 92.5919ZM340.188 171.973L333.074 160.881L338.499 181.292L340.188 171.973ZM349.234 188.091L340.323 172.208L338.612 181.648L349.234 188.091ZM363.725 214.094L338.657 182.012C343.429 192.844 350.522 202.643 359.623 210.691C360.958 211.873 362.327 213.008 363.725 214.094ZM349.406 188.4L338.877 182.012L363.508 213.534L349.406 188.4ZM361.821 195.93L349.71 188.583L364.005 214.062L361.821 195.93ZM379.313 216.626L364.394 214.609C370.849 219.522 377.938 223.437 385.466 226.263L379.313 216.626ZM398.397 224.316L385.868 226.413C391.474 228.486 397.322 229.956 403.326 230.788L398.397 224.316Z" fill="white"/>
<path d="M430.204 73.1391L399.959 84.2466L400.019 84.4101L430.264 73.3026L430.204 73.1391Z" fill="white"/>
<path d="M356.229 88.7414L356.3 88.7176L383.758 79.7393L383.813 79.9043L356.426 88.8589L359.559 106.496L359.521 106.528L334.295 127.615L334.184 127.482L359.371 106.427L356.229 88.7414Z" fill="white"/>
<path d="M359.394 106.412L359.4 106.404L383.757 79.7249L383.809 79.7381L399.936 84.2259L407.951 64.5625L408.017 64.5717L443.794 68.9434L443.813 68.9646L478.204 101.986L455.746 74.5189L455.88 74.4094L479.252 102.993L479.124 103.111L443.714 69.1084L408.062 64.7513L400.038 84.4345L383.813 79.9202L359.538 106.511L341.295 142.286L340.367 171.957L340.192 171.952L341.122 142.241L341.131 142.224L359.394 106.412Z" fill="white"/>
<path d="M339.803 171.635L361.992 182.068L361.918 182.225L340.758 172.275L371.399 200.411L371.281 200.538L339.803 171.635Z" fill="white"/>
<path d="M414.724 204.086L420.353 200.232L420.318 200.434L418.775 209.432L414.724 204.086ZM420.11 200.607L414.972 204.126L418.669 209.007L420.11 200.607Z" fill="white"/>
<path d="M428.763 201.986L434.823 197.158L439.273 201.093L428.763 201.986ZM434.818 197.385L429.321 201.764L438.854 200.954L434.818 197.385Z" fill="white"/>
<path d="M380.62 91.8816L380.662 91.875L391.838 90.0244L373.094 105.725L380.62 91.8816ZM391.239 90.299L380.733 92.0387L373.683 105.003L391.239 90.299Z" fill="white"/>
<path d="M380.605 92.0096L380.747 91.9106L387.148 100.984L373.415 105.447L373.361 105.282L386.87 100.892L380.605 92.0096Z" fill="white"/>
<path d="M455.634 98.834L456.296 101.755L456.263 101.789L451.849 106.232L455.634 98.834ZM456.105 101.701L455.57 99.3408L452.513 105.319L456.105 101.701Z" fill="white"/>
<path d="M354.068 133.755L358.577 138.187L358.574 138.227L357.863 150.492L354.068 133.755ZM358.398 138.255L354.369 134.293L357.76 149.251L358.398 138.255Z" fill="white"/>
<path d="M464.141 161.761L467.825 158.641L468.095 162.362L473.057 163.339L468.741 173.631L467.932 162.507L464.141 161.761ZM467.675 158.995L464.529 161.661L467.918 162.328L467.675 158.995ZM472.815 163.468L468.109 162.543L468.863 172.894L472.815 163.468Z" fill="white"/>
<path d="M359.141 172.719L364.498 171.677L366.529 178.363L359.141 172.719ZM364.377 171.878L359.554 172.815L366.205 177.897L364.377 171.878Z" fill="white"/>
<path d="M473.194 126.459L477.059 126.615L479.13 122.093L479.893 126.903L477.169 126.793L473.653 134.467L473.194 126.459ZM476.981 126.785L473.379 126.64L473.787 133.757L476.981 126.785ZM479.688 126.721L479.048 122.689L477.247 126.623L479.688 126.721Z" fill="white"/>
<path d="M397.637 203.456C397.865 203.658 397.885 204.007 397.682 204.235C397.478 204.464 397.13 204.486 396.901 204.284C396.673 204.082 396.654 203.734 396.856 203.505C397.059 203.277 397.408 203.254 397.637 203.456Z" fill="white"/>
<path d="M415.184 221.189C415.411 221.391 415.431 221.739 415.229 221.968C415.025 222.196 414.677 222.218 414.448 222.016C414.22 221.814 414.2 221.466 414.403 221.238C414.607 221.009 414.956 220.988 415.184 221.189Z" fill="white"/>
<path d="M385.212 202.869C385.504 203.128 385.531 203.577 385.269 203.87C385.008 204.164 384.558 204.192 384.265 203.933C383.973 203.674 383.946 203.225 384.208 202.932C384.469 202.638 384.918 202.61 385.212 202.869Z" fill="white"/>
<path d="M462.387 206.813C462.68 207.072 462.706 207.521 462.444 207.814C462.183 208.108 461.733 208.136 461.441 207.877C461.148 207.619 461.122 207.17 461.384 206.877C461.646 206.584 462.095 206.555 462.387 206.813Z" fill="white"/>
<path d="M492.131 181.591C492.424 181.85 492.45 182.299 492.188 182.592C491.928 182.886 491.478 182.914 491.185 182.655C490.892 182.396 490.866 181.948 491.128 181.655C491.389 181.362 491.839 181.333 492.131 181.591Z" fill="white"/>
<path d="M477.326 143.847C477.619 144.106 477.645 144.555 477.383 144.848C477.122 145.142 476.672 145.17 476.38 144.911C476.087 144.652 476.061 144.203 476.323 143.91C476.584 143.617 477.034 143.588 477.326 143.847Z" fill="white"/>
<path d="M465.827 108.659C466.12 108.917 466.146 109.366 465.884 109.659C465.624 109.953 465.173 109.981 464.881 109.722C464.588 109.464 464.562 109.015 464.824 108.722C465.086 108.428 465.535 108.4 465.827 108.659Z" fill="white"/>
<path d="M434.132 143.356C434.425 143.615 434.451 144.064 434.189 144.357C433.928 144.651 433.478 144.679 433.186 144.42C432.893 144.162 432.867 143.713 433.129 143.42C433.389 143.125 433.84 143.098 434.132 143.356Z" fill="white"/>
<path d="M404.06 153.705C404.352 153.963 404.379 154.412 404.116 154.705C403.856 154.999 403.406 155.027 403.113 154.768C402.821 154.51 402.794 154.061 403.056 153.768C403.317 153.474 403.767 153.444 404.06 153.705Z" fill="white"/>
<path d="M447.029 73.4525C447.321 73.7112 447.348 74.16 447.086 74.453C446.825 74.7474 446.375 74.7751 446.082 74.5164C445.79 74.2577 445.763 73.8089 446.025 73.5159C446.286 73.2215 446.735 73.1938 447.029 73.4525Z" fill="white"/>
<path d="M408.539 64.1771C408.831 64.4358 408.858 64.8846 408.596 65.1777C408.335 65.472 407.885 65.4997 407.592 65.241C407.3 64.9823 407.273 64.5335 407.536 64.2405C407.796 63.9461 408.246 63.9184 408.539 64.1771Z" fill="white"/>
<path d="M384.208 79.4057C384.501 79.6644 384.527 80.1132 384.265 80.4062C384.005 80.7006 383.555 80.7283 383.262 80.4696C382.969 80.2109 382.943 79.7621 383.205 79.469C383.467 79.1747 383.916 79.1457 384.208 79.4057Z" fill="white"/>
<path d="M381.238 91.5068C381.531 91.7655 381.557 92.2143 381.295 92.5073C381.034 92.8016 380.584 92.8294 380.292 92.5706C379.999 92.3119 379.973 91.8631 380.235 91.5701C380.496 91.2758 380.944 91.2467 381.238 91.5068Z" fill="white"/>
<path d="M373.835 104.862C374.127 105.121 374.154 105.57 373.892 105.863C373.631 106.157 373.181 106.185 372.888 105.926C372.596 105.667 372.569 105.219 372.831 104.926C373.092 104.631 373.542 104.603 373.835 104.862Z" fill="white"/>
<path d="M387.315 100.416C387.608 100.675 387.634 101.124 387.372 101.417C387.111 101.711 386.661 101.739 386.369 101.48C386.076 101.222 386.05 100.773 386.312 100.48C386.572 100.185 387.021 100.158 387.315 100.416Z" fill="white"/>
<path d="M392.094 89.597C392.386 89.8558 392.413 90.3045 392.151 90.5976C391.89 90.8919 391.44 90.9196 391.147 90.6609C390.855 90.4022 390.828 89.9534 391.09 89.6604C391.351 89.3661 391.801 89.3383 392.094 89.597Z" fill="white"/>
<path d="M360.01 106.204C360.303 106.463 360.329 106.912 360.067 107.205C359.807 107.499 359.357 107.527 359.064 107.268C358.771 107.01 358.745 106.561 359.007 106.268C359.268 105.973 359.717 105.946 360.01 106.204Z" fill="white"/>
<path d="M499.266 151.846C499.558 152.105 499.585 152.554 499.323 152.847C499.062 153.141 498.612 153.169 498.32 152.91C498.027 152.651 498.001 152.202 498.263 151.909C498.525 151.615 498.973 151.587 499.266 151.846Z" fill="white"/>
<path d="M364.612 213.872C364.904 214.131 364.931 214.58 364.668 214.873C364.408 215.167 363.958 215.195 363.665 214.936C363.373 214.678 363.346 214.229 363.608 213.936C363.869 213.641 364.318 213.614 364.612 213.872Z" fill="white"/>
<path d="M362.344 181.619C362.637 181.878 362.663 182.327 362.401 182.62C362.14 182.914 361.69 182.942 361.398 182.683C361.105 182.424 361.079 181.975 361.341 181.682C361.601 181.388 362.051 181.36 362.344 181.619Z" fill="white"/>
<path d="M381.502 174.027C381.794 174.285 381.821 174.734 381.558 175.027C381.298 175.322 380.848 175.349 380.555 175.091C380.263 174.832 380.236 174.383 380.498 174.09C380.759 173.797 381.208 173.768 381.502 174.027Z" fill="white"/>
<path d="M376.571 136.118C376.863 136.376 376.89 136.825 376.628 137.118C376.367 137.412 375.917 137.44 375.624 137.181C375.332 136.923 375.305 136.474 375.568 136.181C375.828 135.887 376.278 135.859 376.571 136.118Z" fill="white"/>
<path d="M354.612 196.083C354.905 196.342 354.931 196.79 354.669 197.083C354.409 197.378 353.958 197.406 353.666 197.147C353.373 196.888 353.347 196.439 353.609 196.146C353.871 195.853 354.32 195.824 354.612 196.083Z" fill="white"/>
<path d="M358.242 149.565C358.534 149.824 358.561 150.273 358.299 150.566C358.038 150.86 357.588 150.888 357.295 150.629C357.003 150.37 356.976 149.922 357.239 149.629C357.499 149.334 357.949 149.307 358.242 149.565Z" fill="white"/>
<path d="M415.793 105.137C416.085 105.395 416.112 105.844 415.849 106.137C415.589 106.432 415.139 106.459 414.846 106.201C414.554 105.942 414.527 105.493 414.789 105.2C415.05 104.907 415.499 104.878 415.793 105.137Z" fill="white"/>
<path d="M340.693 171.343C340.985 171.602 341.012 172.051 340.75 172.344C340.489 172.638 340.039 172.666 339.746 172.407C339.454 172.148 339.427 171.7 339.689 171.407C339.95 171.112 340.4 171.083 340.693 171.343Z" fill="white"/>
<path d="M340.64 141.127C340.932 141.386 340.959 141.834 340.697 142.127C340.436 142.422 339.986 142.449 339.693 142.191C339.401 141.932 339.374 141.483 339.636 141.19C339.897 140.896 340.347 140.868 340.64 141.127Z" fill="white"/>
<path d="M386.002 225.951C386.23 226.153 386.25 226.501 386.047 226.73C385.844 226.958 385.495 226.981 385.266 226.779C385.038 226.577 385.019 226.228 385.221 226C385.425 225.772 385.774 225.749 386.002 225.951Z" fill="white"/>
<path d="M379.733 216.132C379.961 216.334 379.981 216.683 379.778 216.911C379.576 217.139 379.226 217.162 378.997 216.96C378.769 216.758 378.75 216.409 378.952 216.181C379.156 215.953 379.505 215.93 379.733 216.132Z" fill="white"/>
<path d="M371.591 199.985C371.819 200.187 371.839 200.536 371.636 200.764C371.432 200.992 371.084 201.015 370.855 200.813C370.626 200.611 370.608 200.262 370.81 200.034C371.014 199.806 371.364 199.783 371.591 199.985Z" fill="white"/>
<path d="M366.883 177.847C367.111 178.049 367.13 178.397 366.928 178.625C366.724 178.854 366.376 178.876 366.147 178.674C365.919 178.472 365.899 178.124 366.102 177.895C366.306 177.667 366.655 177.645 366.883 177.847Z" fill="white"/>
<path d="M398.005 179.345C398.233 179.547 398.253 179.895 398.05 180.123C397.848 180.352 397.498 180.374 397.269 180.172C397.041 179.97 397.022 179.622 397.224 179.393C397.428 179.165 397.777 179.143 398.005 179.345Z" fill="white"/>
<path d="M420.623 152.212C420.85 152.414 420.87 152.762 420.668 152.991C420.464 153.219 420.116 153.241 419.887 153.039C419.659 152.837 419.639 152.489 419.842 152.261C420.045 152.032 420.395 152.01 420.623 152.212Z" fill="white"/>
<path d="M416.367 129.272C416.595 129.474 416.615 129.823 416.412 130.051C416.208 130.279 415.86 130.302 415.631 130.1C415.403 129.898 415.384 129.549 415.586 129.321C415.79 129.093 416.139 129.072 416.367 129.272Z" fill="white"/>
<path d="M393.216 137.767C393.444 137.969 393.464 138.318 393.261 138.546C393.057 138.775 392.709 138.797 392.48 138.595C392.252 138.393 392.233 138.045 392.435 137.816C392.639 137.588 392.988 137.565 393.216 137.767Z" fill="white"/>
<path d="M396.631 116.161C396.859 116.363 396.879 116.711 396.676 116.94C396.472 117.168 396.123 117.191 395.895 116.989C395.668 116.787 395.648 116.438 395.85 116.21C396.054 115.981 396.403 115.959 396.631 116.161Z" fill="white"/>
<path d="M420.756 173.222C420.984 173.423 421.004 173.772 420.801 174C420.599 174.229 420.249 174.251 420.02 174.049C419.793 173.847 419.773 173.499 419.975 173.27C420.179 173.042 420.529 173.02 420.756 173.222Z" fill="white"/>
<path d="M440.173 175.15C440.401 175.352 440.421 175.701 440.218 175.929C440.015 176.157 439.666 176.18 439.437 175.978C439.21 175.776 439.19 175.427 439.392 175.199C439.596 174.971 439.946 174.95 440.173 175.15Z" fill="white"/>
<path d="M361.226 190.423C361.453 190.625 361.473 190.974 361.271 191.202C361.068 191.43 360.717 191.453 360.49 191.251C360.262 191.049 360.242 190.7 360.445 190.472C360.648 190.244 360.998 190.221 361.226 190.423Z" fill="white"/>
<path d="M359.715 172.353C359.943 172.555 359.963 172.903 359.76 173.132C359.556 173.36 359.207 173.382 358.979 173.181C358.752 172.979 358.732 172.63 358.934 172.402C359.138 172.173 359.487 172.151 359.715 172.353Z" fill="white"/>
<path d="M364.781 171.421C365.009 171.623 365.028 171.972 364.826 172.2C364.622 172.428 364.273 172.451 364.045 172.249C363.817 172.047 363.797 171.698 364 171.47C364.202 171.242 364.553 171.219 364.781 171.421Z" fill="white"/>
<path d="M358.787 137.853C359.015 138.055 359.035 138.404 358.832 138.632C358.628 138.861 358.28 138.883 358.051 138.681C357.824 138.479 357.804 138.131 358.006 137.902C358.21 137.674 358.56 137.651 358.787 137.853Z" fill="white"/>
<path d="M382.113 153.988C382.341 154.19 382.361 154.539 382.158 154.767C381.954 154.995 381.606 155.018 381.377 154.816C381.149 154.614 381.13 154.265 381.332 154.037C381.536 153.809 381.885 153.786 382.113 153.988Z" fill="white"/>
<path d="M333.133 159.513C333.361 159.715 333.381 160.063 333.178 160.291C332.974 160.52 332.625 160.542 332.397 160.34C332.17 160.138 332.15 159.79 332.352 159.561C332.556 159.333 332.906 159.311 333.133 159.513Z" fill="white"/>
<path d="M335.043 149.64C335.271 149.842 335.291 150.191 335.088 150.419C334.886 150.648 334.536 150.67 334.307 150.468C334.08 150.266 334.06 149.918 334.262 149.689C334.466 149.46 334.816 149.439 335.043 149.64Z" fill="white"/>
<path d="M331.921 145.819C332.148 146.021 332.168 146.37 331.966 146.598C331.763 146.826 331.414 146.849 331.185 146.647C330.957 146.445 330.937 146.096 331.14 145.868C331.344 145.64 331.693 145.619 331.921 145.819Z" fill="white"/>
<path d="M354.379 133.401C354.607 133.603 354.627 133.952 354.424 134.18C354.222 134.408 353.872 134.431 353.643 134.229C353.416 134.027 353.396 133.678 353.598 133.45C353.802 133.222 354.152 133.199 354.379 133.401Z" fill="white"/>
<path d="M351.539 148.757C351.767 148.959 351.786 149.308 351.584 149.536C351.38 149.764 351.032 149.787 350.803 149.585C350.575 149.383 350.555 149.034 350.758 148.806C350.962 148.578 351.311 148.557 351.539 148.757Z" fill="white"/>
<path d="M338.934 181.4C339.161 181.602 339.181 181.951 338.979 182.179C338.776 182.407 338.427 182.43 338.198 182.228C337.97 182.026 337.95 181.677 338.153 181.449C338.356 181.221 338.706 181.2 338.934 181.4Z" fill="white"/>
<path d="M398.737 223.645C398.965 223.847 398.985 224.196 398.782 224.424C398.578 224.652 398.23 224.675 398.001 224.473C397.773 224.271 397.754 223.923 397.956 223.694C398.16 223.466 398.509 223.443 398.737 223.645Z" fill="white"/>
<path d="M403.944 230.573C404.172 230.775 404.192 231.123 403.989 231.351C403.786 231.58 403.437 231.602 403.208 231.4C402.981 231.198 402.961 230.85 403.163 230.621C403.367 230.393 403.717 230.371 403.944 230.573Z" fill="white"/>
<path d="M410.094 215.844C410.322 216.046 410.342 216.395 410.139 216.623C409.935 216.851 409.587 216.874 409.358 216.672C409.131 216.47 409.111 216.121 409.313 215.893C409.517 215.665 409.867 215.642 410.094 215.844Z" fill="white"/>
<path d="M415.217 203.691C415.445 203.893 415.464 204.242 415.262 204.47C415.059 204.698 414.71 204.721 414.481 204.519C414.253 204.317 414.233 203.968 414.436 203.74C414.638 203.512 414.989 203.491 415.217 203.691Z" fill="white"/>
<path d="M419.09 208.807C419.318 209.008 419.337 209.357 419.135 209.585C418.931 209.814 418.583 209.836 418.354 209.634C418.126 209.432 418.106 209.084 418.309 208.855C418.513 208.627 418.862 208.605 419.09 208.807Z" fill="white"/>
<path d="M420.606 200.117C420.833 200.319 420.853 200.667 420.651 200.896C420.447 201.124 420.099 201.147 419.87 200.945C419.642 200.743 419.622 200.394 419.825 200.166C420.028 199.938 420.378 199.915 420.606 200.117Z" fill="white"/>
<path d="M431.879 207.445C432.107 207.647 432.127 207.996 431.924 208.224C431.72 208.452 431.372 208.475 431.143 208.273C430.916 208.071 430.896 207.722 431.098 207.494C431.302 207.266 431.652 207.243 431.879 207.445Z" fill="white"/>
<path d="M429.41 201.462C429.638 201.664 429.658 202.013 429.455 202.241C429.253 202.469 428.903 202.492 428.674 202.29C428.447 202.088 428.427 201.739 428.629 201.511C428.833 201.283 429.183 201.26 429.41 201.462Z" fill="white"/>
<path d="M439.431 200.609C439.658 200.811 439.678 201.16 439.476 201.388C439.272 201.616 438.924 201.639 438.695 201.437C438.467 201.235 438.447 200.886 438.65 200.658C438.854 200.43 439.203 200.407 439.431 200.609Z" fill="white"/>
<path d="M463.597 191.307C463.825 191.509 463.844 191.858 463.642 192.086C463.438 192.315 463.089 192.337 462.861 192.135C462.633 191.933 462.613 191.585 462.816 191.356C463.02 191.128 463.369 191.106 463.597 191.307Z" fill="white"/>
<path d="M477.163 191.795C477.391 191.997 477.411 192.345 477.208 192.574C477.006 192.802 476.656 192.824 476.427 192.622C476.2 192.42 476.18 192.072 476.382 191.844C476.586 191.615 476.936 191.594 477.163 191.795Z" fill="white"/>
<path d="M483.03 197.035C483.258 197.237 483.277 197.585 483.075 197.814C482.871 198.042 482.523 198.065 482.295 197.863C482.068 197.661 482.048 197.312 482.25 197.084C482.453 196.857 482.802 196.834 483.03 197.035Z" fill="white"/>
<path d="M472.957 201.853C473.184 202.055 473.204 202.403 473.002 202.632C472.799 202.86 472.45 202.882 472.221 202.68C471.993 202.479 471.973 202.13 472.176 201.902C472.378 201.673 472.729 201.652 472.957 201.853Z" fill="white"/>
<path d="M468.571 212.229C468.799 212.431 468.819 212.779 468.616 213.008C468.414 213.236 468.063 213.258 467.835 213.056C467.608 212.854 467.588 212.506 467.79 212.278C467.994 212.049 468.344 212.028 468.571 212.229Z" fill="white"/>
<path d="M453.52 221.936C453.748 222.138 453.767 222.486 453.565 222.715C453.361 222.943 453.013 222.965 452.785 222.764C452.558 222.562 452.538 222.213 452.74 221.985C452.943 221.756 453.292 221.734 453.52 221.936Z" fill="white"/>
<path d="M446.327 225.288C446.555 225.49 446.575 225.839 446.372 226.067C446.168 226.296 445.819 226.318 445.591 226.116C445.363 225.914 445.344 225.566 445.546 225.337C445.75 225.109 446.099 225.088 446.327 225.288Z" fill="white"/>
<path d="M469.17 172.849C469.397 173.051 469.417 173.399 469.215 173.628C469.012 173.856 468.661 173.879 468.434 173.677C468.206 173.475 468.186 173.126 468.389 172.898C468.593 172.669 468.942 172.647 469.17 172.849Z" fill="white"/>
<path d="M473.389 163.013C473.617 163.215 473.637 163.563 473.434 163.792C473.231 164.02 472.883 164.043 472.654 163.841C472.426 163.639 472.406 163.29 472.608 163.062C472.812 162.834 473.16 162.811 473.389 163.013Z" fill="white"/>
<path d="M464.704 161.299C464.931 161.501 464.951 161.849 464.749 162.077C464.546 162.306 464.197 162.328 463.968 162.126C463.74 161.924 463.72 161.576 463.923 161.348C464.127 161.119 464.476 161.097 464.704 161.299Z" fill="white"/>
<path d="M468.119 158.405C468.346 158.607 468.366 158.956 468.164 159.184C467.96 159.412 467.612 159.435 467.383 159.233C467.155 159.031 467.135 158.682 467.338 158.454C467.54 158.226 467.89 158.203 468.119 158.405Z" fill="white"/>
<path d="M474.047 133.98C474.275 134.182 474.295 134.531 474.092 134.759C473.89 134.987 473.539 135.01 473.311 134.808C473.084 134.606 473.064 134.258 473.266 134.029C473.47 133.801 473.82 133.778 474.047 133.98Z" fill="white"/>
<path d="M473.654 126.136C473.882 126.338 473.902 126.686 473.699 126.915C473.496 127.143 473.147 127.166 472.918 126.964C472.691 126.762 472.671 126.413 472.873 126.185C473.077 125.957 473.427 125.935 473.654 126.136Z" fill="white"/>
<path d="M480.041 126.293C480.269 126.495 480.289 126.843 480.086 127.072C479.882 127.3 479.534 127.322 479.305 127.12C479.077 126.918 479.057 126.57 479.26 126.342C479.464 126.113 479.813 126.092 480.041 126.293Z" fill="white"/>
<path d="M479.457 121.977C479.685 122.179 479.705 122.527 479.502 122.756C479.3 122.984 478.95 123.006 478.721 122.804C478.494 122.603 478.474 122.254 478.676 122.026C478.88 121.797 479.23 121.776 479.457 121.977Z" fill="white"/>
<path d="M485.011 118.336C485.239 118.538 485.259 118.887 485.056 119.115C484.854 119.343 484.504 119.366 484.275 119.164C484.048 118.962 484.028 118.613 484.23 118.385C484.434 118.157 484.784 118.134 485.011 118.336Z" fill="white"/>
<path d="M479.553 102.634C479.78 102.836 479.8 103.185 479.598 103.413C479.394 103.641 479.046 103.664 478.817 103.462C478.589 103.26 478.569 102.911 478.772 102.683C478.975 102.455 479.325 102.433 479.553 102.634Z" fill="white"/>
<path d="M475.21 88.3416C475.437 88.5436 475.457 88.892 475.255 89.1204C475.051 89.3488 474.701 89.3712 474.474 89.1692C474.246 88.9673 474.226 88.6188 474.429 88.3905C474.633 88.1621 474.982 88.141 475.21 88.3416Z" fill="white"/>
<path d="M456.351 74.0951C456.579 74.297 456.599 74.6455 456.396 74.8739C456.194 75.1022 455.844 75.1246 455.615 74.9227C455.388 74.7207 455.368 74.3723 455.57 74.1439C455.774 73.9156 456.124 73.8931 456.351 74.0951Z" fill="white"/>
<path d="M453.439 84.7699C453.667 84.9718 453.687 85.3203 453.484 85.5487C453.28 85.777 452.932 85.7995 452.703 85.5975C452.476 85.3955 452.456 85.0471 452.658 84.8187C452.861 84.5904 453.21 84.5679 453.439 84.7699Z" fill="white"/>
<path d="M444.749 89.3328C444.977 89.5348 444.997 89.8833 444.794 90.1116C444.592 90.34 444.242 90.3624 444.013 90.1604C443.786 89.9585 443.766 89.61 443.968 89.3817C444.172 89.1533 444.522 89.1322 444.749 89.3328Z" fill="white"/>
<path d="M424.885 88.2913C425.112 88.4933 425.132 88.8417 424.93 89.0701C424.727 89.2985 424.378 89.3209 424.149 89.1189C423.921 88.917 423.901 88.5685 424.104 88.3402C424.308 88.1118 424.657 88.0907 424.885 88.2913Z" fill="white"/>
<path d="M430.55 72.9247C430.778 73.1266 430.798 73.4751 430.595 73.7034C430.393 73.9318 430.043 73.9542 429.814 73.7523C429.587 73.5503 429.567 73.2019 429.769 72.9735C429.973 72.7452 430.323 72.7227 430.55 72.9247Z" fill="white"/>
<path d="M428.459 64.7406C428.686 64.9425 428.706 65.291 428.504 65.5194C428.3 65.7477 427.952 65.7702 427.723 65.5682C427.495 65.3663 427.475 65.0178 427.678 64.7894C427.882 64.5611 428.231 64.5386 428.459 64.7406Z" fill="white"/>
<path d="M428.582 78.2308C428.81 78.4327 428.829 78.7812 428.627 79.0096C428.423 79.2379 428.075 79.2603 427.846 79.0584C427.618 78.8564 427.598 78.508 427.801 78.2796C428.005 78.0513 428.354 78.0301 428.582 78.2308Z" fill="white"/>
<path d="M417.552 77.5838C417.78 77.7858 417.799 78.1342 417.597 78.3626C417.393 78.5909 417.044 78.6134 416.816 78.4114C416.588 78.2095 416.568 77.861 416.771 77.6326C416.975 77.4043 417.324 77.3832 417.552 77.5838Z" fill="white"/>
<path d="M405.889 70.2806C406.117 70.4826 406.136 70.8311 405.934 71.0594C405.73 71.2878 405.382 71.3102 405.153 71.1082C404.925 70.9063 404.905 70.5578 405.108 70.3295C405.312 70.1011 405.661 70.0787 405.889 70.2806Z" fill="white"/>
<path d="M424.17 75.2015C424.398 75.4035 424.418 75.7519 424.215 75.9803C424.011 76.2087 423.663 76.2311 423.434 76.0291C423.206 75.8272 423.187 75.4787 423.389 75.2504C423.593 75.022 423.942 74.9996 424.17 75.2015Z" fill="white"/>
<path d="M400.355 83.9159C400.582 84.1178 400.602 84.4663 400.4 84.6947C400.196 84.923 399.846 84.9454 399.619 84.7435C399.391 84.5415 399.371 84.1931 399.574 83.9647C399.777 83.7377 400.127 83.7152 400.355 83.9159Z" fill="white"/>
<path d="M394.346 71.3182C394.574 71.5201 394.594 71.8686 394.391 72.097C394.188 72.3253 393.84 72.3478 393.611 72.1458C393.383 71.9438 393.363 71.5954 393.566 71.367C393.769 71.1387 394.119 71.1175 394.346 71.3182Z" fill="white"/>
<path d="M370.392 77.4823C370.62 77.6842 370.64 78.0327 370.437 78.2611C370.235 78.4894 369.885 78.5119 369.656 78.3099C369.428 78.1079 369.409 77.7595 369.611 77.5311C369.815 77.3028 370.164 77.2803 370.392 77.4823Z" fill="white"/>
<path d="M375.814 78.8446C376.041 79.0465 376.061 79.395 375.859 79.6234C375.655 79.8517 375.307 79.8742 375.078 79.6722C374.85 79.4703 374.83 79.1218 375.033 78.8934C375.235 78.6651 375.585 78.6426 375.814 78.8446Z" fill="white"/>
<path d="M356.732 88.5237C356.959 88.7257 356.979 89.0742 356.777 89.3025C356.574 89.5309 356.225 89.5533 355.996 89.3514C355.768 89.1494 355.748 88.8009 355.951 88.5726C356.154 88.3442 356.504 88.3231 356.732 88.5237Z" fill="white"/>
<path d="M344.779 103.505C345.007 103.707 345.026 104.056 344.824 104.284C344.62 104.512 344.272 104.535 344.043 104.333C343.815 104.131 343.795 103.782 343.998 103.554C344.202 103.326 344.551 103.303 344.779 103.505Z" fill="white"/>
<path d="M344.635 111.243C344.862 111.445 344.882 111.793 344.68 112.022C344.477 112.25 344.128 112.273 343.899 112.071C343.671 111.869 343.651 111.52 343.854 111.292C344.057 111.063 344.407 111.042 344.635 111.243Z" fill="white"/>
<path d="M334.608 127.135C334.835 127.337 334.855 127.686 334.653 127.914C334.45 128.142 334.101 128.165 333.872 127.963C333.644 127.761 333.624 127.412 333.827 127.184C334.031 126.956 334.38 126.934 334.608 127.135Z" fill="white"/>
<path d="M332.793 135.759C333.021 135.961 333.041 136.309 332.838 136.537C332.635 136.766 332.286 136.788 332.057 136.586C331.829 136.384 331.81 136.036 332.012 135.807C332.216 135.579 332.565 135.558 332.793 135.759Z" fill="white"/>
<path d="M335.064 140.472C335.292 140.674 335.312 141.022 335.109 141.251C334.906 141.479 334.556 141.502 334.328 141.3C334.101 141.098 334.081 140.749 334.283 140.521C334.486 140.292 334.837 140.271 335.064 140.472Z" fill="white"/>
<path d="M382.239 70.9061C382.466 71.108 382.486 71.4565 382.284 71.6848C382.08 71.9132 381.731 71.9356 381.503 71.7337C381.275 71.5317 381.255 71.1833 381.458 70.9549C381.662 70.7266 382.011 70.7054 382.239 70.9061Z" fill="white"/>
<path d="M437.793 66.6917C438.021 66.8937 438.041 67.2421 437.838 67.4705C437.635 67.6988 437.286 67.7213 437.057 67.5193C436.83 67.3174 436.81 66.9689 437.012 66.7406C437.216 66.5122 437.566 66.4911 437.793 66.6917Z" fill="white"/>
<path d="M444.013 68.6756C444.241 68.8776 444.261 69.2261 444.058 69.4544C443.854 69.6828 443.506 69.7052 443.277 69.5033C443.05 69.3013 443.03 68.9528 443.232 68.7245C443.436 68.4961 443.786 68.4737 444.013 68.6756Z" fill="white"/>
<path d="M463.237 93.6981C463.465 93.9001 463.485 94.2485 463.282 94.4769C463.078 94.7052 462.73 94.7277 462.501 94.5257C462.273 94.3238 462.253 93.9753 462.456 93.7469C462.66 93.5186 463.009 93.4962 463.237 93.6981Z" fill="white"/>
<path d="M452.233 105.716C452.461 105.918 452.481 106.267 452.278 106.495C452.074 106.723 451.726 106.746 451.497 106.544C451.27 106.342 451.25 105.993 451.452 105.765C451.656 105.537 452.006 105.515 452.233 105.716Z" fill="white"/>
<path d="M456.739 101.36C456.967 101.562 456.987 101.911 456.784 102.139C456.58 102.367 456.232 102.39 456.003 102.188C455.775 101.986 455.756 101.637 455.958 101.409C456.162 101.181 456.511 101.158 456.739 101.36Z" fill="white"/>
<path d="M452.805 122.13C453.033 122.332 453.053 122.68 452.85 122.908C452.646 123.137 452.298 123.159 452.069 122.957C451.841 122.755 451.822 122.407 452.024 122.179C452.228 121.95 452.577 121.929 452.805 122.13Z" fill="white"/>
<path d="M437.762 110.645C437.989 110.847 438.009 111.195 437.807 111.424C437.603 111.652 437.255 111.674 437.026 111.473C436.798 111.271 436.778 110.922 436.981 110.694C437.184 110.465 437.534 110.443 437.762 110.645Z" fill="white"/>
<path d="M449.326 141.057C449.554 141.259 449.574 141.607 449.371 141.836C449.168 142.064 448.819 142.087 448.59 141.885C448.363 141.683 448.343 141.334 448.545 141.106C448.749 140.877 449.099 140.855 449.326 141.057Z" fill="white"/>
<path d="M456.075 98.5555C456.302 98.7574 456.322 99.1059 456.12 99.3343C455.917 99.5626 455.568 99.585 455.339 99.3831C455.111 99.1811 455.091 98.8327 455.294 98.6043C455.498 98.376 455.847 98.3549 456.075 98.5555Z" fill="white"/>
<path d="M479.148 156.597C479.375 156.799 479.395 157.147 479.193 157.375C478.989 157.604 478.641 157.626 478.412 157.424C478.184 157.222 478.164 156.874 478.367 156.645C478.57 156.417 478.92 156.395 479.148 156.597Z" fill="white"/>
<path d="M493.647 137.745C493.875 137.947 493.895 138.295 493.692 138.524C493.49 138.752 493.14 138.775 492.911 138.573C492.683 138.371 492.664 138.022 492.866 137.794C493.07 137.565 493.419 137.543 493.647 137.745Z" fill="white"/>
<path d="M495.852 172.317C496.08 172.519 496.1 172.868 495.897 173.096C495.693 173.324 495.345 173.347 495.116 173.145C494.889 172.943 494.869 172.594 495.071 172.366C495.275 172.138 495.625 172.117 495.852 172.317Z" fill="white"/>
<path d="M497.704 129.454C497.932 129.656 497.952 130.005 497.749 130.233C497.545 130.462 497.197 130.484 496.968 130.282C496.74 130.08 496.721 129.732 496.923 129.503C497.127 129.275 497.476 129.253 497.704 129.454Z" fill="white"/>
<path d="M435.188 196.858C435.416 197.06 435.436 197.408 435.233 197.637C435.03 197.865 434.681 197.887 434.452 197.685C434.225 197.483 434.205 197.135 434.407 196.907C434.611 196.678 434.961 196.656 435.188 196.858Z" fill="white"/>
<path d="M424.296 230.83C424.523 231.032 424.543 231.38 424.341 231.609C424.138 231.837 423.789 231.86 423.56 231.658C423.332 231.456 423.312 231.107 423.515 230.879C423.717 230.65 424.067 230.628 424.296 230.83Z" fill="white"/>
<path d="M409.481 231.035C409.709 231.236 409.729 231.585 409.526 231.813C409.324 232.042 408.974 232.064 408.745 231.862C408.518 231.66 408.498 231.312 408.7 231.083C408.904 230.855 409.254 230.833 409.481 231.035Z" fill="white"/>
<path d="M439.21 223.113C439.437 223.315 439.457 223.664 439.255 223.892C439.051 224.12 438.703 224.143 438.474 223.941C438.246 223.739 438.226 223.39 438.429 223.162C438.633 222.934 438.982 222.911 439.21 223.113Z" fill="white"/>
<path d="M444.298 89.7197L444.465 89.7738L437.585 110.974L451.578 106.426L452.461 122.686L449.119 141.552L439.699 175.939L433.698 143.919L420.294 152.655L416.018 130.002L403.631 154.246L403.476 154.167L416.094 129.47L420.417 152.369L433.821 143.631L433.845 143.759L439.731 175.165L448.949 141.514L452.289 122.675L451.416 106.661L437.314 111.244L437.367 111.082L444.298 89.7197Z" fill="white"/>
<path d="M386.78 100.85L386.856 100.863L415.411 105.737V105.741L437.633 111.062L415.974 129.922L415.969 129.738L415.245 105.958L396.313 116.756L396.227 116.606L415.074 105.856L386.903 101.048L376.276 136.503L393.097 138.157L381.834 154.466L381.136 174.427L381.187 174.413L381.134 174.552L384.841 203.512L371.108 200.462L380.905 174.666L366.556 178.339L361.823 182.306L361.787 182.174L359.263 172.789L357.678 150.055L357.716 150.027L376.085 136.527L386.78 100.85ZM376.114 136.721L357.859 150.138L359.435 172.761L361.92 181.998L366.495 178.177L380.963 174.473L381.662 154.45L376.114 136.721ZM392.786 138.301L376.284 136.679L381.778 154.242L392.786 138.301ZM437.265 111.153L415.418 105.922L416.138 129.551L437.265 111.153ZM384.636 203.289L381.003 174.895L371.341 200.335L384.636 203.289Z" fill="white"/>
<path d="M380.874 174.577L380.987 174.475L403.699 153.958L403.639 154.226L397.808 179.862L397.718 179.834L380.874 174.577ZM403.407 154.456L381.216 174.502L397.679 179.639L403.407 154.456Z" fill="white"/>
<path d="M392.807 138.185L416.072 129.637L416.11 129.667L433.784 143.682L449.071 141.441L449.101 141.482L464.403 161.658L464.264 161.762L448.994 141.63L433.735 143.867L433.706 143.843L416.04 129.835L393.074 138.273L403.598 154.117L420.443 152.418L420.584 173.697L420.549 173.706L397.178 204.134L397.66 179.686L397.723 179.668L420.411 173.564L420.272 152.609L403.513 154.299L403.484 154.255L392.807 138.185ZM420.271 173.78L397.829 179.818L397.36 203.607L420.271 173.78Z" fill="white"/>
<path d="M437.38 110.944L452.501 122.677L433.642 144.04L433.674 143.765L437.38 110.944ZM452.248 122.703L437.519 111.272L433.878 143.51L452.248 122.703Z" fill="white"/>
<path d="M473.662 134.305L449.015 141.449L449.064 141.616L473.711 134.473L473.662 134.305Z" fill="white"/>
<path d="M396.205 116.533L416.104 129.664L416.008 129.808L396.335 116.828L393.027 138.241L392.855 138.215L396.205 116.533Z" fill="white"/>
<path d="M391.551 90.0719L400.009 84.21L415.316 105.646L424.467 88.616L424.522 88.6186L444.441 89.6627L444.461 89.7129L451.56 106.467L465.528 109.135L465.417 109.25L452.515 122.668L473.785 134.353L464.407 161.771L464.378 161.787L439.734 175.641L439.707 175.638L420.582 173.724L420.325 200.484L431.763 207.919L431.52 207.946L418.731 209.306L418.713 209.133L431.258 207.799L420.15 200.577L420.151 200.53L420.41 173.533L420.505 173.542L439.697 175.463L464.264 161.652L473.574 134.434L452.233 122.712L465.181 109.246L451.435 106.62L451.417 106.578L444.322 89.8303L424.569 88.7955L415.337 105.975L415.256 105.861L399.967 84.4502L391.69 90.1867L386.939 100.942L396.38 116.694L396.331 116.742L376.221 136.64L376.1 136.517L396.16 116.666L386.743 100.955L386.762 100.913L391.551 90.0719Z" fill="white"/>
<path d="M417.518 78.3554L415.237 105.803L415.411 105.817L417.692 78.3698L417.518 78.3554Z" fill="white"/>
<path d="M424.442 88.7497L424.592 88.6626L437.525 111.065L437.375 111.152L424.442 88.7497Z" fill="white"/>
<path d="M357.523 149.964L357.785 150.011L381.762 154.353L381.732 154.523L358.016 150.229L381.286 174.667L364.398 171.92L364.426 171.75L380.804 174.413L357.523 149.964Z" fill="white"/>
<path d="M373.267 105.356L358.352 138.239L358.511 138.311L373.426 105.428L373.267 105.356Z" fill="white"/>
<path d="M359.212 106.855L380.687 91.9857L383.651 79.916L383.819 79.9569L380.841 92.09L380.814 92.1085L359.861 106.616L373.44 105.297L373.448 105.385L376.254 136.656L376.168 136.664L358.329 138.361L358.333 138.262L359.413 107.778L354.09 133.867L354.058 133.886L340.744 142.2L340.652 142.053L353.933 133.758L359.428 106.833L359.212 106.855ZM373.283 105.489L359.621 106.815L358.511 138.171L376.066 136.501L373.283 105.489Z" fill="white"/>
<path d="M353.925 133.798L354.096 133.83L351.273 149.098L357.781 150.011L357.757 150.183L351.069 149.244L351.085 149.156L353.925 133.798Z" fill="white"/>
<path d="M397.27 203.783L414.979 204.02L409.807 216.292L409.647 216.225L414.718 204.191L397.268 203.957L397.27 203.783Z" fill="white"/>
<path d="M428.962 201.908L429.123 201.842L431.592 207.827L431.43 207.892L428.962 201.908Z" fill="white"/>
<path d="M397.664 179.703L384.668 203.358L384.821 203.442L397.817 179.787L397.664 179.703Z" fill="white"/>
<path d="M439.658 175.407L463.414 191.743L463.261 191.802L439.15 201.083L438.929 223.528L438.754 223.526L438.977 200.963L439.032 200.942L463.045 191.699L439.772 175.696L434.905 197.291L434.736 197.253L439.658 175.407Z" fill="white"/>
<path d="M476.548 144.477L473.162 163.14L478.88 156.768L478.867 157.015L476.861 192.59L468.815 173.519L463.118 192.393L464.248 161.709L464.423 161.716L463.342 191.049L468.788 173.007L476.73 191.829L478.679 157.253L472.88 163.714L476.213 145.347L467.825 158.865L467.677 158.774L476.548 144.477Z" fill="white"/>
<path d="M473.597 134.42L473.763 134.367L476.936 144.353L476.77 144.405L473.597 134.42Z" fill="white"/>
<path d="M465.432 109.153L465.273 109.226L473.199 126.588L473.358 126.516L465.432 109.153Z" fill="white"/>
<path d="M479.042 122.319L484.927 118.46L479.746 126.754L479.599 126.661L484.36 119.04L479.138 122.464L479.042 122.319Z" fill="white"/>
<path d="M439.635 175.548L438.979 201.02L439.153 201.024L439.81 175.552L439.635 175.548Z" fill="white"/>
</svg>
