<?xml version="1.0" encoding="utf-8"?>
<!-- Generator: Adobe Illustrator 23.0.0, SVG Export Plug-In . SVG Version: 6.00 Build 0)  -->
<svg version="1.1" id="Layer_1" xmlns="http://www.w3.org/2000/svg" xmlns:xlink="http://www.w3.org/1999/xlink" x="0px" y="0px"
	 viewBox="0 0 18 19.2" style="enable-background:new 0 0 18 19.2;" xml:space="preserve">
<style type="text/css">
	.st0{fill:none;}
</style>
<g>
	<polygon class="st0" points="16.1,5.4 16.1,7.6 17.2,6.5 	"/>
	<path class="st0" d="M0.7,7.5v9.9c0,0.2,0,0.3,0.1,0.5l4.8-5.1L0.7,7.5z"/>
	<polygon class="st0" points="1.9,5.4 0.8,6.5 1.9,7.7 	"/>
	<path class="st0" d="M8.9,5C8.3,5,7.7,5.6,7.7,6.5C7.7,7.3,8.2,8,8.8,8c0.6,0,1-0.7,1-1.5C9.8,5.6,9.4,5,8.9,5z"/>
	<path class="st0" d="M17.2,17.8c0.1-0.1,0.1-0.3,0.1-0.5V7.4l-4.9,5.2L17.2,17.8z"/>
	<path class="st0" d="M9.2,16c-0.1,0.1-0.2,0.1-0.2,0.1c-0.1,0-0.2,0-0.2-0.1l-2.6-2.8l-4.8,5.1c0.1,0.1,0.3,0.1,0.5,0.1v0h14.5
		c0.2,0,0.3,0,0.5-0.1l-4.8-5.1L9.2,16z"/>
	<path d="M17.9,6.3l-1.8-1.9v-4c0-0.2-0.2-0.4-0.4-0.4h-5.2c-0.2,0-0.4,0.2-0.4,0.4s0.2,0.4,0.4,0.4h4.8v7.6L9,15.2L2.6,8.4V0.7h4.8
		c0.2,0,0.4-0.2,0.4-0.4S7.6,0,7.4,0H2.3C2.1,0,1.9,0.2,1.9,0.4v4L0.1,6.3C0,6.3,0,6.4,0,6.5v10.8c0,1,0.8,1.9,1.8,1.9h14.5
		c1,0,1.8-0.8,1.8-1.9V6.5C18,6.4,18,6.3,17.9,6.3z M16.1,5.4l1,1.1l-1,1.1V5.4z M1.9,5.4v2.3L0.8,6.5L1.9,5.4z M0.7,17.3V7.5
		l4.9,5.2l-4.8,5.1C0.7,17.7,0.7,17.5,0.7,17.3z M16.2,18.4H1.8v0c-0.2,0-0.3,0-0.5-0.1l4.8-5.1L8.7,16c0.1,0.1,0.2,0.1,0.2,0.1
		c0.1,0,0.2,0,0.2-0.1l2.7-2.8l4.8,5.1C16.6,18.4,16.4,18.4,16.2,18.4z M17.3,17.3c0,0.2,0,0.3-0.1,0.5l-4.8-5.1l4.9-5.2V17.3z"/>
	<path d="M9,0.8c0.1,0,0.2,0,0.2-0.1s0.1-0.2,0.1-0.3s0-0.2-0.1-0.3C9.2,0,9.1,0,9,0C8.9,0,8.8,0,8.7,0.1S8.6,0.3,8.6,0.4
		s0,0.2,0.1,0.3C8.8,0.7,8.9,0.8,9,0.8z"/>
	<path d="M5.7,4.5c-0.5,0.9-0.6,2-0.4,3C5.5,8.4,6,9.2,6.7,9.7c0.6,0.5,1.4,0.8,2.2,0.9c0,0,0,0,0,0c0.2,0,0.3-0.2,0.4-0.4
		c0-0.2-0.1-0.4-0.3-0.4C7.6,9.8,6.4,8.8,6,7.4c-0.4-1.7,0.5-3.5,2.1-4c0.8-0.3,1.7-0.2,2.4,0.2c0.7,0.4,1.3,1.1,1.5,2
		c0.2,0.6,0.1,1.2-0.2,1.9c-0.1,0.2-0.3,0.7-0.9,0.7c-0.1,0-0.2,0-0.3-0.1c-0.1-0.1-0.2-0.3-0.2-0.4V4.5c0-0.2-0.2-0.4-0.4-0.4
		c-0.2,0-0.4,0.2-0.4,0.4v0.1c-0.3-0.2-0.6-0.4-1-0.4C8,4.3,7,5.1,7,6.5c0,0.6,0.2,1.2,0.5,1.6c0.3,0.4,0.8,0.7,1.3,0.7
		c0.4,0,0.8-0.2,1.1-0.6c0.1,0.1,0.1,0.3,0.3,0.4c0.2,0.2,0.5,0.3,0.8,0.3c0.8,0,1.3-0.6,1.5-1.2c0.3-0.9,0.4-1.6,0.2-2.4
		c0,0,0,0,0,0c-0.3-1.1-1-1.9-1.9-2.4c-0.9-0.5-2-0.6-2.9-0.3C6.9,2.9,6.2,3.6,5.7,4.5z M8.8,8C8.2,8,7.7,7.3,7.7,6.5
		C7.7,5.6,8.3,5,8.9,5c0.6,0,1,0.6,1,1.4C9.8,7.3,9.4,8,8.8,8z"/>
</g>
</svg>
