<?xml version="1.0" encoding="utf-8"?>
<!-- Generator: Adobe Illustrator 24.1.1, SVG Export Plug-In . SVG Version: 6.00 Build 0)  -->
<svg version="1.1" id="Layer_1" xmlns="http://www.w3.org/2000/svg" xmlns:xlink="http://www.w3.org/1999/xlink" x="0px" y="0px"
	 viewBox="0 0 54.8 76" style="enable-background:new 0 0 54.8 76;" xml:space="preserve">
<style type="text/css">
	.st0{fill:none;}
	.st1{fill:#5FB989;}
</style>
<g>
	<path class="st0" d="M12.7,26.7v-4.6C10,22.9,10,25.9,12.7,26.7z"/>
	<path class="st0" d="M29,51.8c0.5,0.2,3.7,1.3,4,1.4c0.2,0.1,0.3,0.2,0.3,0.2l2.1-5.9l-2-1.3L29,51.8z"/>
	<path class="st0" d="M32,43.2c-1.4,0.5-2.6,0.7-4.7,0.7l0,0c0,0,0,0,0,0v0c-0.1,0-2.1,0.1-4.6-0.8v1.1l4.5,6.2l4.8-6.2V43.2z"/>
	<path class="st0" d="M42.2,22.1v4.6C44.9,25.9,44.9,22.9,42.2,22.1z"/>
	<path class="st0" d="M21.6,53.4c0.2-0.2,0.1,0,3.9-1.6l-4.1-5.6l-1.9,1.3C21.6,53.6,21.5,53.4,21.6,53.4z"/>
	<path class="st0" d="M21.6,40.3C21.7,40.3,21.7,40.3,21.6,40.3c8.9,4.4,18.3-2.1,18.3-11.1c0-0.1,0-7.5,0-7.6
		c-0.3-0.2-0.7-0.5-0.9-0.6c0,0,0,0,0,0l0,0c0,0,0,0,0,0c-1.5-1.3-2.2-3-2.3-5c0-0.2,0-0.5-0.3-0.7c-0.2-0.2-0.4-0.2-0.7-0.2
		c-10,1.4-15.4,0.1-16.5,0.1L19,15c-0.5-0.1-1,0.3-1,0.8c-0.1,2.7-1.4,4.7-3.1,5.7c0,7.8-0.3,9.3,0.9,12.2
		C16.9,36.6,19.1,38.9,21.6,40.3C21.6,40.3,21.6,40.3,21.6,40.3z"/>
	<path class="st1" d="M54.7,70.7l-1.6-8.2c-0.1-0.6-0.7-1-1.3-0.9c-0.6,0.1-1,0.7-0.9,1.3l1.6,8.2c0.1,0.4,0.1,1.4-0.4,2
		c-0.9,1-2.7,0.5-7.5,0.6V63.3c0-0.6-0.5-1.1-1.1-1.1c-0.6,0-1.1,0.5-1.1,1.1v10.5H21.6c-0.6,0-1.1,0.5-1.1,1.1
		c0,0.6,0.5,1.1,1.1,1.1h28.6c1.6,0,2.8-0.5,3.6-1.4C54.7,73.6,55,71.9,54.7,70.7z"/>
	<path class="st1" d="M22.8,55.3c0.3-0.1,2.9-1.2,3.3-1.3v9.3c0,0.6,0.5,1.1,1.1,1.1c0.6,0,1.1-0.5,1.1-1.1v-9.4
		c4.8,1.8,3.5,1.2,4,1.5c1.2,0.5,2.6,0,3.1-1.3l2-5.7c9.8,2.9,7.3,2.2,7.7,2.3c0.1,0.1,3.4,0.6,4.2,4.2l0.6,3c0.1,0.6,0.7,1,1.3,0.9
		c0.6-0.1,1-0.7,0.9-1.3c-0.6-2.2-0.4-5.1-3.3-7.4c-1.6-1.3-2.2-1.2-11.6-4l-2.9-2v-1.8c5.3-2.9,7.9-8,7.9-13.1v-0.2
		c3.6-0.7,5.4-4.3,3.4-7.1c0,0,0.1-4.1-0.1-5.9C43.6,0.3,23.8-5.5,13.8,6.2c-0.4,0.5-0.4,1.2,0.1,1.6c0.5,0.4,1.2,0.4,1.6-0.1
		c8.3-9.6,24-5.8,27.3,6.3l0,0.1c0.8,2.8,0.5,4.7,0.6,6.2c-0.7-0.3-1.4-0.4-2.2-0.4c-0.8-0.4-1.5-1.2-1.8-2.2
		c-0.2-0.5-0.3-0.8-0.3-1.8c0-0.9-0.4-1.7-1.1-2.3c-2.3-1.9-4.3,1-16.9-0.4l-1.7-0.2c-1.8-0.3-3.5,1.1-3.5,2.9
		c0,0.5-0.1,0.9-0.2,1.5c-0.4,1.2-1.1,1.8-1,1.8c-0.3,0.3-0.6,0.5-0.9,0.7c-0.8,0-1.5,0.2-2.2,0.4c0-3.3,0-5.4,1.3-8.4
		c0.2-0.6,0-1.2-0.6-1.5c-0.6-0.2-1.2,0-1.5,0.6c-0.9,2-1.4,4.2-1.5,6.5c0,0,0,4.2,0,4.5c-2,2.8-0.2,6.4,3.4,7.1
		c0.1,9.7,7.7,13.1,7.8,13.2c0,0,0,0,0,0v1.9L17.6,46c-8.7,2.6-9.4,2.8-9.5,2.8c-2.4,0.9-4.3,2.8-4.8,5.6c-3.4,17-3.2,16.3-3.3,16.4
		c-0.4,3,1.2,5.2,4.5,5.2h11.9c0.6,0,1.1-0.5,1.1-1.1c0-0.6-0.5-1.1-1.1-1.1h-4V63.3c0-0.6-0.5-1.1-1.1-1.1c-0.6,0-1.1,0.5-1.1,1.1
		v10.5H4.6c-1.8,0-2.6-0.8-2.3-2.6c3.5-17.1,3-17.2,4.5-18.8c0.6-0.6,1.3-1.1,2.1-1.4c8.2-2.4,8.5-2.5,8.5-2.5c0,0,0,0,0,0
		c2.1,6,2,5.7,2.2,6.1C20.2,55.5,21.5,56,22.8,55.3z M42.2,22.1c2.7,0.8,2.7,3.8,0,4.6V22.1z M12.7,26.7c-2.7-0.8-2.7-3.8,0-4.6
		V26.7z M27.2,50.5l-4.5-6.2v-1.1c2.4,0.8,4.4,0.7,4.6,0.8v0c0,0,0,0,0,0l0,0c2.1,0,3.3-0.3,4.7-0.7v1.1L27.2,50.5z M35.4,47.5
		l-2.1,5.9c0,0-0.1-0.1-0.3-0.2c-0.3-0.1-3.5-1.3-4-1.4l4.4-5.6L35.4,47.5z M15.8,33.8c-1.1-2.9-0.9-4.4-0.9-12.2
		c1.8-1,3.1-3,3.1-5.7c0-0.5,0.5-0.9,1-0.8l0.3,0.1c1.1,0.1,6.5,1.3,16.5-0.1c0.2,0,0.5,0,0.7,0.2c0.3,0.2,0.3,0.5,0.3,0.7
		c0.1,2,0.8,3.7,2.3,5c0.2,0.2,0.6,0.5,0.9,0.6c0,0,0,7.4,0,7.6c0,9-9.4,15.5-18.3,11.1c0,0,0,0,0,0c0,0,0,0,0,0
		C19.1,38.9,16.9,36.6,15.8,33.8z M19.4,47.5l1.9-1.3l4.1,5.6c-3.8,1.5-3.7,1.4-3.9,1.6C21.5,53.4,21.6,53.6,19.4,47.5z"/>
	<polygon class="st1" points="39.1,20.9 39.1,20.9 39.1,20.9 	"/>
</g>
</svg>
