<?xml version="1.0" encoding="utf-8"?>
<!-- Generator: Adobe Illustrator 24.1.1, SVG Export Plug-In . SVG Version: 6.00 Build 0)  -->
<svg version="1.1" id="Layer_1" xmlns="http://www.w3.org/2000/svg" xmlns:xlink="http://www.w3.org/1999/xlink" x="0px" y="0px"
	 viewBox="0 0 75.1 76" style="enable-background:new 0 0 75.1 76;" xml:space="preserve">
<style type="text/css">
	.st0{fill:none;}
	.st1{fill:#5FB989;}
</style>
<g>
	<path class="st0" d="M40.3,22.5c0.5,0.4,1,0.5,1.7,0.5c0.5,0,1,0.4,1.1,0.9c0.7,4.5,4.5,7.9,9,8.3c1-0.7,2.2-1.2,3.5-1.4
		c0,0,0,0,0,0c0,0,0,0,0,0c0.6-0.1,1-0.1,2.6-0.1c0.5-0.3,0.9-0.6,1.3-0.9c0,0,0,0,0,0c1.8-1.5,2.9-3.7,3.3-5.9
		c0.1-0.4,0.3-0.7,0.7-0.9c0.1-0.1,0.3-0.1,0.4-0.1c1.5,0.1,2.8-1.2,2.8-2.7c0-1.5-1.3-2.7-2.8-2.7c-0.5,0-0.9-0.3-1.1-0.7
		c0,0,0,0,0,0c0-0.1,0-0.1-0.1-0.2c-0.1-0.6-0.3-1.3-0.5-1.9c-0.2-0.5-0.4-1-0.7-1.4c-1.4,2.6-4.2,4.2-7.2,4.2H41.7
		c-1.4,0.1-2.6,1.2-2.6,2.7C39.2,21.2,39.6,22,40.3,22.5z M57.4,20.1c0-0.6,0.5-1.1,1.1-1.1h0.9c0.6,0,1.1,0.5,1.1,1.1
		c0,0.5-0.4,1-0.9,1.1v1c0,0.6-0.5,1.1-1.1,1.1c-0.6,0-1.1-0.5-1.1-1.1V20.1z M57,24.8c0.5-0.4,1.2-0.3,1.6,0.2
		c0.1,0.2,1.2,1.6,0.6,3.2c-0.2,0.4-0.6,0.7-1,0.7c-0.8,0-1.3-0.8-1-1.5c0.1-0.3-0.1-0.8-0.3-1C56.4,25.9,56.5,25.2,57,24.8z
		 M51.1,25c0.6,0,1.1,0.5,1.1,1.1c0,0.4,0.3,0.8,0.8,0.8s0.8-0.3,0.8-0.8c0-0.6,0.5-1.1,1.1-1.1c0.6,0,1.1,0.5,1.1,1.1
		c0,1.6-1.3,3-3,3s-3-1.3-3-3C50,25.5,50.5,25,51.1,25z M49.2,26.4c-0.1,0.2-0.4,0.7-0.3,1c0.3,0.7-0.3,1.5-1,1.5
		c-0.4,0-0.9-0.3-1-0.7c-0.6-1.6,0.5-3,0.6-3.2c0.4-0.5,1.1-0.6,1.6-0.2C49.5,25.2,49.6,25.9,49.2,26.4z M46.7,19h0.9
		c0.6,0,1.1,0.5,1.1,1.1v2.1c0,0.6-0.5,1.1-1.1,1.1c-0.6,0-1.1-0.5-1.1-1.1v-1c-0.5-0.1-0.9-0.6-0.9-1.1C45.6,19.5,46.1,19,46.7,19z
		"/>
	<path class="st0" d="M19.7,15.3C19.7,15.3,19.8,15.3,19.7,15.3c0.6,0.1-0.1,0.1,15.6,0.1V8.1c0-3.2-2.6-5.9-5.9-5.9h-8.9
		C17,2.2,14.1,5,14,8.6c0,0,0,0,0,0l0,0C13.8,12,16.4,14.9,19.7,15.3z"/>
	<path class="st0" d="M65.7,25c-0.2,0.1-0.5,0.1-0.7,0.2c0,0,0,0.1,0,0.1c-0.6,2.2-1.7,4.1-3.1,5.5c0.4,0,1.1,0,1.9,0.1
		C65.2,29.6,66.1,27.5,65.7,25z"/>
	<path class="st0" d="M30,32.6c2.9,0.9,5.2,3.4,5.6,6.5c0.8-0.2,1.6-0.3,2.4-0.3h1c0.3-1.6,1.1-3.2,2.3-4.3c0.3-0.3,0.7-0.6,1.1-0.9
		c-1.5-0.8-2.8-2.2-3.6-3.9c-0.5-1.1-0.8-2.4-0.8-3.6c0-0.8,0.1-1.3,0.3-2.4c-0.1-0.1-0.1-0.1-0.2-0.2c-0.8,1-1.9,1.7-3.2,1.9
		C34.2,28.3,32.4,30.9,30,32.6z"/>
	<path class="st0" d="M12.1,11.4c-0.2-0.6-0.3-1.2-0.3-1.7c-1.1,0-1.9,0.9-1.9,2v3.9c0.1,0,0.3-0.1,0.5-0.1
		C10.7,14,11.3,12.5,12.1,11.4z"/>
	<path class="st0" d="M6.2,40.8c0.5-0.7,1.6-0.5,1.9,0.3c0.9,2.5,3.3,4.1,5.9,4.1h11.8c0.5-0.9,1.2-1.7,2-2.4v-4.1c0,0,0-0.1,0-0.1
		c0-3.4-2.8-6.1-6.2-6.1h-6.2h-3.4c-1.8,0-3.4,1.1-4,2.8C7.9,35.7,7.6,36,7.3,36c-1.6,0.4-2.7,1.9-2.6,3.6L5,42.8
		C5.3,42.1,5.7,41.4,6.2,40.8z"/>
	<path class="st0" d="M15.8,30.4h5.8c1.9,0,3.6,0.6,5,1.7c3.3-1.4,5.6-4.3,6.2-7.9c0.1-0.6,0.6-1,1.1-0.9c0,0,0.1,0,0.1,0
		c1.5,0,2.8-1.3,2.8-2.8c0-1.5-1.2-2.8-2.7-2.8H34c-14.6,0-13.7,0-14.5-0.1c0,0-0.1,0-0.1,0c-2.6-0.3-4.7-1.8-6.1-3.8
		c-0.5,1-0.8,2-0.9,2.9c-0.1,0.6-0.6,1-1.1,0.9c-0.6,0-1.2,0.1-1.7,0.5c-0.7,0.5-1.2,1.4-1.2,2.3c0,1.5,1.3,2.8,2.8,2.8
		c0,0,0.1,0,0.1,0c0.6,0,1,0.4,1.1,0.9C12.7,26.6,14,28.8,15.8,30.4z M27.1,20.2c0-0.6,0.5-1.1,1.1-1.1c0.6,0,1.1,0.5,1.1,1.1v2.1
		c0,0.6-0.5,1.1-1.1,1.1c-0.6,0-1.1-0.5-1.1-1.1V20.2z M26.6,24.8c0.5-0.4,1.2-0.3,1.6,0.2c0.1,0.2,1.2,1.6,0.6,3.2
		c-0.2,0.4-0.6,0.7-1,0.7c-0.8,0-1.3-0.8-1-1.5c0.1-0.3-0.1-0.8-0.3-1C26,25.8,26.1,25.1,26.6,24.8z M20.7,24.9
		c0.6,0,1.1,0.5,1.1,1.1c0,0.4,0.3,0.8,0.8,0.8c0.4,0,0.8-0.3,0.8-0.8c0-0.6,0.5-1.1,1.1-1.1c0.6,0,1.1,0.5,1.1,1.1c0,1.6-1.3,3-3,3
		s-3-1.3-3-3C19.6,25.4,20.1,24.9,20.7,24.9z M18.8,26.3c-0.1,0.2-0.4,0.7-0.3,1c0.3,0.7-0.3,1.5-1,1.5c-0.4,0-0.9-0.3-1-0.7
		c-0.6-1.6,0.5-3,0.6-3.2c0.4-0.5,1.1-0.6,1.6-0.2C19.1,25.1,19.2,25.8,18.8,26.3z M15.8,20.2c0-0.6,0.5-1.1,1.1-1.1
		c0.6,0,1.1,0.5,1.1,1.1v2.1c0,0.6-0.5,1.1-1.1,1.1c-0.6,0-1.1-0.5-1.1-1.1V20.2z"/>
	<path class="st0" d="M47.1,45.2c-1.5-2.4-4.1-4-7-4.1c0,0,0,0,0,0c-0.1,0-0.2,0-0.2,0H38c-1.1,0-2.1,0.2-3,0.6c0,0,0,0,0,0
		c-0.7,0.3-1.3,0.6-1.8,1c-0.7,0.6-0.5,0.3-1.3,0.5c0,0,0,0,0,0c-2,0.5-3.5,1.9-4.3,3.6c0,0,0,0,0,0c-0.8,1.7-0.7,2.9-0.7,5.8
		c0.1-0.2,0.1-0.3,0.2-0.5c0.7-1.8,1.1-2.2,1.7-2.2c0.4,0,0.8,0.2,1,0.5c0.7,1,2.1,2.7,3.5,3.4c-0.1-0.2-0.1-0.4-0.1-0.7
		c-0.1-0.5,0.2-0.9,0.6-1.1c0.4-0.2,1-0.1,1.3,0.2c0.6,0.7,1.5,1.4,2.3,1.7c0-0.2-0.1-0.3-0.1-0.5c0-0.1,0-0.2-0.1-0.3
		c-0.1-1.1,1.2-1.7,1.9-0.9c0.6,0.6,1.4,1.3,2.1,1.7c-0.1-0.7,0.1-1.5,0.5-2.2c0.6-1.1,1.8-1.8,3.1-1.8c0.1,0,0.2,0,0.3,0
		c1.5,0.1,2.8,1.1,3.3,2.6c0,0.1,0,0.1,0.1,0.2C48.3,49.6,48.5,47.7,47.1,45.2C47.1,45.2,47.1,45.2,47.1,45.2z"/>
	<path class="st0" d="M47.6,55.5c0.2,0-0.9,0.1-1.1-0.8c0-0.2-0.1-0.5-0.4-1.4c-0.4-1.1-2-1.4-2.6-0.4c-0.4,0.8,0,1.3,0.3,1.8
		c0.4,0.6,0,1.4-0.6,1.6c-1,0.3-2.1,0.1-3.2-0.4c-0.1,0.2-0.4,0.4-0.6,0.4c-1.2,0.4-2.4,0.1-3.5-0.4c-0.1,0.2-0.4,0.4-0.6,0.4
		c-2.5,0.7-4.9-1.4-6.3-3c-0.1,0.4-0.3,0.9-0.3,1.3c-0.1,0.6-0.6,1-1.1,0.9c0,0-0.1,0-0.1,0c-1.5,0-2.5,1.4-2.2,2.8
		c0.2,1.1,1.2,1.8,2.3,1.8c0,0,0.1,0,0.1,0c0,0,0,0,0,0c0.5,0,1,0.4,1.1,0.9c0.5,3,2.5,5.5,5.1,6.7c0,0,0,0,0.1,0
		c1.2,0.5,2.5,0.8,3.7,0.8c0,0,0,0,0,0c1.3,0,2.6-0.3,3.8-0.8c0,0,0,0,0.1,0c1.6-0.8,3-2,3.9-3.5c0,0,0-0.1,0-0.1
		c0.6-1,0.9-2,1.1-3.1c0.1-0.4,0.4-0.7,0.7-0.9c0.3-0.1,0.4,0,0.7-0.1C49.1,60,50,59,50,57.8C50,56.5,49.1,55.5,47.6,55.5z
		 M33.7,59.5c0,0.6-0.5,1.1-1.1,1.1c-0.6,0-1.1-0.5-1.1-1.1v-1.9c0-0.6,0.5-1.1,1.1-1.1c0.6,0,1.1,0.5,1.1,1.1V59.5z M37.5,65.9
		c-1.8,0-3.3-1.5-3.3-3.3c0-0.6,0.5-1.1,1.1-1.1c0.6,0,1.1,0.5,1.1,1.1c0,0.6,0.5,1,1,1c0.6,0,1-0.5,1-1c0-0.6,0.5-1.1,1.1-1.1
		c0.6,0,1.1,0.5,1.1,1.1C40.8,64.5,39.3,65.9,37.5,65.9z M43.6,59.5c0,0.6-0.5,1.1-1.1,1.1c-0.6,0-1.1-0.5-1.1-1.1v-1.9
		c0-0.6,0.5-1.1,1.1-1.1c0.6,0,1.1,0.5,1.1,1.1V59.5z"/>
	<path class="st0" d="M45.7,69.4v-0.3c0-0.9,0.2-1.7,0.6-2.4c-0.9,1.1-2.1,2.1-3.3,2.8H45.7z"/>
	<path class="st0" d="M47.7,64.4c0.1,0.1,0.2,0.2,0.4,0.2c0.9-0.6,1.9-0.9,3.1-0.9H53c0-0.4,0-0.6,0-0.9c-0.8-0.4-1.6-0.9-2.3-1.6
		c-0.7,0.6-1.5,0.9-2.2,1.1C48.3,63,48,63.7,47.7,64.4z"/>
	<path class="st0" d="M41.1,25.2c-0.2,0-0.5-0.1-0.7-0.2c-0.6,4.3,2.4,7.3,5.6,7.3C43.5,30.6,41.8,28,41.1,25.2z"/>
	<path class="st0" d="M45.2,40.4c0.8-2.1,2.3-4,4.3-5c0.1-0.3,0.3-0.5,0.4-0.8h-3.2c-2.7,0-5,1.9-5.5,4.5
		C42.7,39.2,44.1,39.7,45.2,40.4z"/>
	<path class="st0" d="M12.4,63.4c0.1,0.5,0.3,0.9,0.6,1.3c0,0,0,0,0,0c0.6,0.9,1.7,1.4,2.7,1.4c1.1,0,2.1-0.5,2.8-1.4c0,0,0,0,0,0
		c0.3-0.4,0.5-0.8,0.6-1.3c-0.9,0.3-2,0.5-3.4,0.5C14.5,63.9,13.4,63.7,12.4,63.4z"/>
	<path class="st0" d="M31.7,41c0.5-0.4,1.1-0.8,1.7-1c-0.1-2.6-2-4.8-4.5-5.3c0.4,0.7,0.7,1.5,0.9,2.3c0,0,0,0,0,0
		c0.3,1.2,0.2,1.8,0.2,4.6C30.6,41.3,31.2,41.1,31.7,41z"/>
	<path class="st0" d="M72.1,54.3c-0.4,0.2-0.8,0.3-1.2,0.3c0,0.2-0.1,0.3-0.1,0.5c0,0,0,0,0,0c-0.9,3.3-3.2,6-6.1,7.6
		c0,0.3,0,0.5,0,0.9c0,0,0,0,0,0c2,0,3.3-0.2,5,1c0.5-0.3,1-0.7,1.5-1.2c1.1-1.4,1.7-3.3,1.5-5.2L72.1,54.3z"/>
	<path class="st0" d="M24.6,54.2c0-4.6-0.1-5.3,0.3-6.8H14.1c-2.9,0-5.5-1.4-7.1-3.7c-0.5,0.9-0.8,1.8-0.9,2.8
		c0,0.3-0.2,0.5-0.4,0.7c-0.4,0.4-0.7,0.2-1.3,0.3c-1.2,0.2-2.2,1.3-2.2,2.5c0,1.4,1.2,2.6,2.6,2.6c0,0,0.1,0,0.1,0c0,0,0,0,0,0
		c0.5,0,1,0.4,1.1,0.9c0.8,4.8,4.9,8.1,9.6,8.1c2.8,0,5.4-1.2,7.2-3.2C22.6,56.9,23.3,55.2,24.6,54.2z M11.5,51.8
		c0,0.6-0.5,1.1-1.1,1.1s-1.1-0.5-1.1-1.1v-2c0-0.6,0.5-1.1,1.1-1.1s1.1,0.5,1.1,1.1V51.8z M15.7,58.6c-1.9,0-3.4-1.5-3.4-3.4
		c0-0.6,0.5-1.1,1.1-1.1c0.6,0,1.1,0.5,1.1,1.1c0,0.7,0.5,1.2,1.2,1.2c0.7,0,1.2-0.5,1.2-1.2c0-0.6,0.5-1.1,1.1-1.1
		c0.6,0,1.1,0.5,1.1,1.1C19.1,57.1,17.6,58.6,15.7,58.6z M22.1,51.8c0,0.6-0.5,1.1-1.1,1.1c-0.6,0-1.1-0.5-1.1-1.1v-2
		c0-0.6,0.5-1.1,1.1-1.1c0.6,0,1.1,0.5,1.1,1.1V51.8z"/>
	<path class="st0" d="M28.8,69.1v0.3h3.3c-2.7-1.5-4.7-4-5.5-7.1c-1.1-0.2-2.1-0.8-2.7-1.6c-0.8,0.7-1.6,1.3-2.5,1.8v0.3
		c0,0.3,0,0.6-0.1,0.9h2.1C26.3,63.7,28.8,66.1,28.8,69.1z"/>
	<path class="st0" d="M70.3,47h-13c-2.7,0-5.1-1.2-6.6-3.2h-1.3c-0.1,0.1-0.1,0.4-0.2,0.6c1.7,3,1.4,5.2,1.4,9.8
		c1.5,1.2,2.1,3.3,1.4,5.1c1.7,1.5,3.8,2.4,6.1,2.6c0,0,0.1,0,0.1,0c1.6,0.1,3.2-0.2,4.8-0.9c0,0,0,0,0,0c3.1-1.4,5.3-4.3,5.8-7.6
		c0,0,0-0.1,0-0.1c0.1-0.5,0.6-0.8,1.1-0.8c1.6,0,2.9-1.2,2.9-2.7C72.9,48.3,71.7,47.1,70.3,47z M54.4,51.6c0,0.6-0.5,1.1-1.1,1.1
		c-0.6,0-1.1-0.5-1.1-1.1v-1c-0.5-0.1-0.9-0.6-0.9-1.1c0-0.6,0.5-1.1,1.1-1.1h0.9c0.6,0,1.1,0.5,1.1,1.1V51.6z M58.8,58.7
		c-1.9,0-3.5-1.6-3.5-3.5c0-0.6,0.5-1.1,1.1-1.1c0.6,0,1.1,0.5,1.1,1.1c0,0.7,0.6,1.3,1.3,1.3c0.7,0,1.3-0.6,1.3-1.3
		c0-0.6,0.5-1.1,1.1-1.1c0.6,0,1.1,0.5,1.1,1.1C62.3,57.1,60.7,58.7,58.8,58.7z M65.4,50.6v1c0,0.6-0.5,1.1-1.1,1.1
		c-0.6,0-1.1-0.5-1.1-1.1v-2.1c0-0.6,0.5-1.1,1.1-1.1h0.9c0.6,0,1.1,0.5,1.1,1.1C66.3,50.1,65.9,50.5,65.4,50.6z"/>
	<path class="st0" d="M34.5,70.4c0.3,1.4,1.5,2.5,3,2.5c1.5,0,2.8-1.1,3-2.5c-1,0.3-2,0.4-3.1,0.4C36.5,70.8,35.5,70.7,34.5,70.4z"
		/>
	<path class="st0" d="M28.4,71.7c-0.2,0-0.3,0-0.4,0.1c0,0,0,0,0,0c-0.7,0.2-1.3,0.9-1.3,1.6v0.4H34c-0.6-0.6-1.1-1.3-1.4-2.1H28.4z
		"/>
	<path class="st0" d="M66.5,65.9h-2.6c-0.9,1.6-2.6,2.7-4.6,2.9c0,0,0,0,0,0c0,0-0.1,0-0.1,0c-2.1,0.1-4.2-1-5.3-2.9h-2.7
		c-1.7,0-3.2,1.4-3.2,3.2v0.6c1.6,0.5,2.7,2,2.7,3.7v0.4h19h0v-4.7C69.6,67.3,68.2,65.9,66.5,65.9z"/>
	<path class="st0" d="M58.8,66.6c1.7,0,3.2-1.3,3.5-2.9c-1.2,0.3-2.4,0.5-3.5,0.5c-1.2,0-2.4-0.2-3.5-0.5c0,0,0,0,0,0
		C55.6,65.3,57.1,66.6,58.8,66.6z"/>
	<path class="st0" d="M62.3,33h-5.1h0c-1,0-1.8,0-3.2,0.7h0c-0.1,0-0.1,0.1-0.1,0.1c0,0,0,0,0,0c0,0,0,0,0,0c-1.2,0.7-2,1.7-2.5,2.8
		c-0.1,0.3-0.3,0.5-0.6,0.6c-1.8,0.8-3.2,2.5-3.8,4.6c0.1,0.1,0.4,0.3,0.5,0.5c0.4-0.9,1-1.8,1.7-2.6c0.6-0.7,1.7-0.4,1.9,0.5
		c0.2,0.7,0.5,1.3,0.9,1.9c0,0,0,0,0,0c1.1,1.6,3,2.7,5.1,2.7h13h0.3v-3.5C70.6,36.7,66.9,33,62.3,33C62.3,33,62.3,33,62.3,33z"/>
	<path class="st0" d="M46.8,71.7C46.8,71.7,46.8,71.7,46.8,71.7C46.7,71.7,46.7,71.7,46.8,71.7l-4.2,0c-0.3,0.8-0.8,1.5-1.4,2.1h7.3
		v-0.4C48.4,72.5,47.7,71.7,46.8,71.7z"/>
	<path class="st1" d="M17,23.4c0.6,0,1.1-0.5,1.1-1.1v-2.1c0-0.6-0.5-1.1-1.1-1.1c-0.6,0-1.1,0.5-1.1,1.1v2.1
		C15.8,22.9,16.3,23.4,17,23.4z"/>
	<path class="st1" d="M28.2,23.4c0.6,0,1.1-0.5,1.1-1.1v-2.1c0-0.6-0.5-1.1-1.1-1.1c-0.6,0-1.1,0.5-1.1,1.1v2.1
		C27.1,22.9,27.6,23.4,28.2,23.4z"/>
	<path class="st1" d="M58.5,23.3c0.6,0,1.1-0.5,1.1-1.1v-1c0.5-0.1,0.9-0.6,0.9-1.1c0-0.6-0.5-1.1-1.1-1.1h-0.9
		c-0.6,0-1.1,0.5-1.1,1.1v2.1C57.4,22.8,57.9,23.3,58.5,23.3z"/>
	<path class="st1" d="M46.4,21.2v1c0,0.6,0.5,1.1,1.1,1.1c0.6,0,1.1-0.5,1.1-1.1v-2.1c0-0.6-0.5-1.1-1.1-1.1h-0.9
		c-0.6,0-1.1,0.5-1.1,1.1C45.6,20.6,45.9,21.1,46.4,21.2z"/>
	<path class="st1" d="M18,54.1c-0.6,0-1.1,0.5-1.1,1.1c0,0.7-0.5,1.2-1.2,1.2c-0.7,0-1.2-0.5-1.2-1.2c0-0.6-0.5-1.1-1.1-1.1
		c-0.6,0-1.1,0.5-1.1,1.1c0,1.9,1.5,3.4,3.4,3.4c1.9,0,3.4-1.5,3.4-3.4C19.1,54.6,18.6,54.1,18,54.1z"/>
	<path class="st1" d="M10.4,48.7c-0.6,0-1.1,0.5-1.1,1.1v2c0,0.6,0.5,1.1,1.1,1.1s1.1-0.5,1.1-1.1v-2C11.5,49.2,11,48.7,10.4,48.7z"
		/>
	<path class="st1" d="M21,48.7c-0.6,0-1.1,0.5-1.1,1.1v2c0,0.6,0.5,1.1,1.1,1.1c0.6,0,1.1-0.5,1.1-1.1v-2
		C22.1,49.2,21.6,48.7,21,48.7z"/>
	<path class="st1" d="M61.2,54.1c-0.6,0-1.1,0.5-1.1,1.1c0,0.7-0.6,1.3-1.3,1.3c-0.7,0-1.3-0.6-1.3-1.3c0-0.6-0.5-1.1-1.1-1.1
		c-0.6,0-1.1,0.5-1.1,1.1c0,1.9,1.6,3.5,3.5,3.5c1.9,0,3.5-1.6,3.5-3.5C62.3,54.6,61.8,54.1,61.2,54.1z"/>
	<path class="st1" d="M65.2,48.4h-0.9c-0.6,0-1.1,0.5-1.1,1.1v2.1c0,0.6,0.5,1.1,1.1,1.1c0.6,0,1.1-0.5,1.1-1.1v-1
		c0.5-0.1,0.9-0.6,0.9-1.1C66.3,48.9,65.8,48.4,65.2,48.4z"/>
	<path class="st1" d="M53.2,48.4h-0.9c-0.6,0-1.1,0.5-1.1,1.1c0,0.5,0.4,1,0.9,1.1v1c0,0.6,0.5,1.1,1.1,1.1c0.6,0,1.1-0.5,1.1-1.1
		v-2.1C54.4,48.9,53.9,48.4,53.2,48.4z"/>
	<path class="st1" d="M39.7,61.5c-0.6,0-1.1,0.5-1.1,1.1c0,0.6-0.5,1-1,1c-0.6,0-1-0.5-1-1c0-0.6-0.5-1.1-1.1-1.1
		c-0.6,0-1.1,0.5-1.1,1.1c0,1.8,1.5,3.3,3.3,3.3c1.8,0,3.3-1.5,3.3-3.3C40.8,62,40.3,61.5,39.7,61.5z"/>
	<path class="st1" d="M32.6,56.5c-0.6,0-1.1,0.5-1.1,1.1v1.9c0,0.6,0.5,1.1,1.1,1.1c0.6,0,1.1-0.5,1.1-1.1v-1.9
		C33.7,57,33.2,56.5,32.6,56.5z"/>
	<path class="st1" d="M42.5,56.5c-0.6,0-1.1,0.5-1.1,1.1v1.9c0,0.6,0.5,1.1,1.1,1.1c0.6,0,1.1-0.5,1.1-1.1v-1.9
		C43.6,57,43.1,56.5,42.5,56.5z"/>
	<path class="st1" d="M74.1,52.7c0.6-0.8,1-1.8,1-2.9c0-1.8-0.9-3.3-2.3-4.2v-4.3c0-4.4-2.7-8.2-6.6-9.8c0.4-0.5,0.8-1.1,1.1-1.8
		c0.5-1.1,0.8-2.4,0.8-3.6c0-0.4,0-0.9-0.1-1.3l-0.2-1.2c0.8-0.9,1.3-2.1,1.3-3.4c0-1.8-1-3.4-2.5-4.3l-0.5-3.5c0,0,0,0,0,0
		l-0.2-1.3c-0.4-2.5-1.9-4.6-4-5.7c-0.7-1.2-1.6-2.2-2.8-2.9c-0.5-0.3-1.2-0.1-1.5,0.4c-0.3,0.5-0.1,1.2,0.4,1.5
		c0.9,0.6,1.7,1.4,2.2,2.4c0.1,0.2,0.3,0.4,0.6,0.5c1.6,0.7,2.8,2.3,3.1,4.1l0.1,0.9c-0.7-1.2-1.3-1.9-1.4-2.1c0,0,0,0,0,0
		c-0.6-0.7-1.7-0.4-1.9,0.5c-0.2,0.8-0.5,1.5-1,2.1c0,0,0,0,0,0c-1.1,1.5-2.9,2.5-4.9,2.5c-2.5,0-12.2,0-13.6,0v-3.5
		c0-4.5,3.7-8.1,8.1-8.1h4.3c0.6,0,1.1-0.5,1.1-1.1S54,1.6,53.4,1.6h-4.3c-5.7,0-10.4,4.7-10.4,10.4v4.6c-0.3,0.2-0.5,0.5-0.7,0.7
		c-0.1-0.2-0.3-0.3-0.5-0.5c0-0.1,0-0.1,0-0.2V8.1c0-4.5-3.6-8.1-8.1-8.1h-8.9c-4.4,0-8,3.2-8.7,7.4c-2.3,0-4.2,1.9-4.2,4.2v5.1
		C6.6,17.7,6,19,6,20.4c0,2.5,1.9,4.6,4.3,5c0.4,1.8,1.3,3.5,2.5,5h-0.7c-2.5,0-4.8,1.5-5.9,3.7c-2.4,0.8-3.9,3.2-3.7,5.8L3,45.6
		C1.2,46.3,0,48,0,50c0,2.4,1.8,4.4,4,4.7c0.8,3.4,3.1,6.2,6,7.8v0.3c0,0.3,0,0.6,0.1,0.9H8c-3,0-5.4,2.4-5.4,5.4v5.8
		c0,0.6,0.5,1.1,1.1,1.1h2.8c0.6,0,1.1-0.5,1.1-1.1c0-0.6-0.5-1.1-1.1-1.1H4.8v-4.7c0-1.7,1.4-3.2,3.2-3.2h3
		c0.8,1.2,2.1,2.1,3.5,2.4c2.2,0.5,4.6-0.4,5.9-2.4h3c1.7,0,3.2,1.4,3.2,3.2v0.8c-0.9,0.5-1.6,1.4-1.9,2.4c0,0,0,0,0,0
		c-0.2,0.6-0.1,1-0.1,1.5H11.7c-0.6,0-1.1,0.5-1.1,1.1c0,0.6,0.5,1.1,1.1,1.1h13.7c0,0,0.1,0,0.1,0h23.9c0,0,0.1,0,0.1,0h21.1
		c0.6,0,1.1-0.5,1.1-1.1v-5.8c0-1-0.3-2-0.8-2.8c0.6-0.4,1.1-0.9,1.6-1.4c1.6-1.8,2.3-4.4,2-6.9L74.1,52.7z M70.6,41.3v3.5h-0.3h-13
		c-2.1,0-4-1-5.1-2.7c0,0,0,0,0,0c-0.4-0.6-0.7-1.2-0.9-1.9c-0.2-0.9-1.3-1.1-1.9-0.5c-0.7,0.8-1.3,1.7-1.7,2.6
		c-0.2-0.2-0.4-0.4-0.5-0.5c0.6-2.1,2-3.8,3.8-4.6c0.3-0.1,0.5-0.3,0.6-0.6c0.5-1.2,1.3-2.1,2.5-2.8c0,0,0,0,0,0c0,0,0,0,0,0
		c0,0,0.1,0,0.1-0.1h0c1.4-0.7,2.2-0.7,3.2-0.7h0h5.1c0,0,0,0,0.1,0C66.9,33,70.6,36.7,70.6,41.3z M47.9,60.1c-0.3,0-0.4,0-0.7,0.1
		c-0.4,0.1-0.7,0.5-0.7,0.9c-0.2,1.1-0.6,2.1-1.1,3.1c0,0,0,0.1,0,0.1c-0.9,1.5-2.3,2.8-3.9,3.5c0,0,0,0-0.1,0
		c-1.2,0.5-2.5,0.8-3.8,0.8c0,0,0,0,0,0c-1.3,0-2.5-0.3-3.7-0.8c0,0,0,0-0.1,0c-2.6-1.2-4.6-3.7-5.1-6.7c-0.1-0.5-0.6-0.9-1.1-0.9
		c0,0,0,0,0,0c0,0-0.1,0-0.1,0c-1.1,0-2.1-0.8-2.3-1.8c-0.3-1.4,0.8-2.8,2.2-2.8c0,0,0.1,0,0.1,0c0.6,0,1.1-0.4,1.1-0.9
		c0.1-0.5,0.2-0.9,0.3-1.3c1.4,1.6,3.8,3.8,6.3,3c0.2-0.1,0.5-0.2,0.6-0.4c1.1,0.6,2.3,0.8,3.5,0.4c0.2-0.1,0.5-0.2,0.6-0.4
		c1.1,0.6,2.2,0.7,3.2,0.4c0.7-0.2,1-1,0.6-1.6c-0.3-0.5-0.7-1-0.3-1.8c0.6-1.1,2.2-0.8,2.6,0.4c0.3,0.9,0.3,1.3,0.4,1.4
		c0.3,1,1.3,0.8,1.1,0.8c1.5,0,2.4,1.1,2.4,2.3C50,59,49.1,60,47.9,60.1z M50.7,61.2c0.7,0.6,1.5,1.1,2.3,1.6c0,0.3,0,0.6,0,0.9
		h-1.9c-1.1,0-2.2,0.3-3.1,0.9c-0.1-0.1-0.2-0.1-0.4-0.2c0.3-0.7,0.6-1.4,0.8-2.1C49.2,62.2,50,61.8,50.7,61.2z M46.3,66.6
		c-0.4,0.7-0.6,1.6-0.6,2.4v0.3H43C44.2,68.7,45.4,67.8,46.3,66.6z M48.3,52.7c0-0.1,0-0.1-0.1-0.2c-0.5-1.4-1.8-2.4-3.3-2.6
		c-0.1,0-0.2,0-0.3,0c-1.3,0-2.4,0.7-3.1,1.8c-0.4,0.7-0.5,1.5-0.5,2.2c-0.8-0.4-1.5-1-2.1-1.7c-0.7-0.8-2-0.2-1.9,0.9
		c0,0.1,0,0.2,0.1,0.3c0,0.2,0.1,0.3,0.1,0.5c-0.9-0.3-1.7-1.1-2.3-1.7c-0.3-0.3-0.8-0.4-1.3-0.2c-0.4,0.2-0.7,0.7-0.6,1.1
		c0,0.2,0.1,0.5,0.1,0.7c-1.4-0.7-2.8-2.4-3.5-3.4c-0.2-0.3-0.6-0.5-1-0.5c-0.6,0-1,0.4-1.7,2.2c-0.1,0.2-0.1,0.3-0.2,0.5
		c0-2.9-0.2-4.1,0.7-5.8c0,0,0,0,0,0c0.8-1.6,2.3-3,4.3-3.6c0,0,0,0,0,0c0.9-0.2,0.6,0,1.3-0.5c0.5-0.4,1.1-0.7,1.8-1c0,0,0,0,0,0
		c0.9-0.4,2-0.6,3-0.6h1.8c0.1,0,0.2,0,0.2,0c0,0,0,0,0,0c3,0.1,5.6,1.7,7,4.1c0,0,0,0,0,0C48.5,47.7,48.3,49.6,48.3,52.7z
		 M29.8,36.9C29.8,36.9,29.8,36.9,29.8,36.9c-0.2-0.8-0.5-1.6-0.9-2.3c2.5,0.5,4.4,2.7,4.5,5.3c-0.6,0.3-1.2,0.7-1.7,1
		c-0.6,0.1-1.2,0.3-1.7,0.5C30.1,38.7,30.1,38.1,29.8,36.9z M46.8,34.5H50c-0.2,0.3-0.3,0.5-0.4,0.8c-2,1-3.5,2.9-4.3,5
		c-1.2-0.7-2.5-1.2-4-1.4C41.8,36.4,44.1,34.5,46.8,34.5z M40.4,25c0.2,0.1,0.5,0.1,0.7,0.2c0.7,2.8,2.4,5.4,4.9,7.2
		C42.8,32.3,39.7,29.3,40.4,25z M61.8,30.8c1.4-1.5,2.5-3.4,3.1-5.5c0,0,0-0.1,0-0.1c0.3,0,0.5-0.1,0.7-0.2c0.4,2.6-0.5,4.6-2,5.9
		C62.9,30.8,62.3,30.8,61.8,30.8z M41.7,17.6h12.8c3.1,0,5.8-1.7,7.2-4.2c0.3,0.5,0.5,0.9,0.7,1.4c0.2,0.6,0.4,1.2,0.5,1.9
		c0,0.1,0,0.1,0.1,0.2c0,0,0,0,0,0c0.2,0.4,0.6,0.7,1.1,0.7c1.5-0.1,2.8,1.1,2.8,2.7c0,1.5-1.3,2.7-2.8,2.7c-0.2,0-0.3,0-0.4,0.1
		c-0.4,0.1-0.6,0.5-0.7,0.9c-0.4,2.2-1.5,4.4-3.3,5.9c0,0,0,0,0,0c-0.4,0.3-0.8,0.7-1.3,0.9c-1.7,0-2,0-2.6,0.1c0,0,0,0,0,0
		c0,0,0,0,0,0c-1.3,0.2-2.5,0.7-3.5,1.4c-4.6-0.4-8.3-3.9-9-8.3C43,23.4,42.5,23,42,23c-0.6,0-1.1-0.1-1.7-0.5
		c-0.7-0.5-1.2-1.3-1.2-2.2C39.2,18.9,40.3,17.7,41.7,17.6z M38.1,23.5c0.1,0.1,0.1,0.2,0.2,0.2c-0.2,1.2-0.3,1.6-0.3,2.4
		c0,1.2,0.3,2.5,0.8,3.6c0.8,1.7,2.1,3,3.6,3.9c-0.4,0.3-0.8,0.6-1.1,0.9c-1.2,1.2-2,2.7-2.3,4.3h-1c-0.8,0-1.6,0.1-2.4,0.3
		c-0.4-3.1-2.6-5.7-5.6-6.5c2.4-1.7,4.1-4.3,4.9-7.2C36.2,25.2,37.3,24.5,38.1,23.5z M14,8.6c0.1-3.5,3-6.3,6.6-6.3h8.9
		c3.2,0,5.9,2.6,5.9,5.9v7.3c-15.7,0-15,0-15.5,0c0,0-0.1,0-0.1,0C16.4,14.9,13.8,12,14,8.6L14,8.6C14,8.6,14,8.6,14,8.6z M9.8,11.6
		c0-1.1,0.9-2,1.9-2c0,0.5,0.2,1.2,0.3,1.7c-0.8,1.2-1.4,2.6-1.8,4.1c-0.2,0-0.3,0.1-0.5,0.1V11.6z M12.3,24.1
		c-0.1-0.6-0.6-1-1.1-0.9c0,0-0.1,0-0.1,0c-1.5,0-2.8-1.3-2.8-2.8c0-1,0.5-1.8,1.2-2.3c0.5-0.4,1.1-0.5,1.7-0.5
		c0.6,0,1.1-0.4,1.1-0.9c0.2-1,0.5-2,0.9-2.9c1.4,2,3.6,3.4,6.1,3.8c0,0,0.1,0,0.1,0c0.8,0.1-0.1,0.1,14.5,0.1h0.2
		c1.5,0,2.7,1.3,2.7,2.8c0,1.5-1.3,2.8-2.8,2.8c0,0-0.1,0-0.1,0c-0.6,0-1,0.4-1.1,0.9c-0.6,3.5-3,6.5-6.2,7.9c-1.4-1-3.2-1.7-5-1.7
		h-5.8C14,28.8,12.7,26.6,12.3,24.1z M7.3,36C7.6,36,7.9,35.7,8,35.4c0.6-1.7,2.3-2.8,4-2.8h3.4h6.2c3.4,0,6.2,2.7,6.2,6.1
		c0,0,0,0.1,0,0.1v4.1c-0.8,0.7-1.5,1.5-2,2.4H14.1c-2.6,0-5-1.7-5.9-4.1c-0.3-0.8-1.4-1-1.9-0.3c-0.5,0.6-0.9,1.3-1.2,2l-0.3-3.2
		C4.5,38,5.6,36.4,7.3,36z M18.5,64.8C18.5,64.8,18.5,64.8,18.5,64.8c-0.7,0.9-1.7,1.4-2.8,1.4c-1.1,0-2.1-0.5-2.7-1.4c0,0,0,0,0,0
		c-0.3-0.4-0.5-0.8-0.6-1.3c1,0.3,2.2,0.5,3.3,0.5c1.4,0,2.4-0.2,3.4-0.5C18.9,63.9,18.7,64.4,18.5,64.8z M15.7,61.7
		c-4.7,0-8.8-3.3-9.6-8.1C6,53,5.5,52.6,5,52.6c0,0,0,0,0,0c0,0-0.1,0-0.1,0c-1.4,0-2.6-1.2-2.6-2.6c0-1.3,0.9-2.4,2.2-2.5
		c0.6-0.1,0.8,0.1,1.3-0.3C5.9,47,6,46.8,6.1,46.5c0.2-1,0.5-1.9,0.9-2.8c1.6,2.3,4.2,3.7,7.1,3.7h10.8c-0.4,1.5-0.3,2.2-0.3,6.8
		c-1.3,1-2,2.6-1.7,4.3C21.1,60.5,18.5,61.7,15.7,61.7z M23.4,63.7h-2.1c0-0.3,0.1-0.6,0.1-0.9v-0.3c0.9-0.5,1.8-1.1,2.5-1.8
		c0.7,0.8,1.6,1.4,2.7,1.6c0.8,3.1,2.8,5.7,5.5,7.1h-3.3v-0.3C28.8,66.1,26.3,63.7,23.4,63.7z M26.7,73.8v-0.4
		c0-0.8,0.5-1.4,1.3-1.6c0,0,0,0,0,0c0.1,0,0.3-0.1,0.4-0.1h4.2c0.3,0.8,0.8,1.5,1.4,2.1H26.7z M37.6,72.9c-1.5,0-2.8-1.1-3-2.5
		c1,0.3,2,0.4,3,0.4c1,0,2.1-0.1,3.1-0.4C40.3,71.8,39.1,72.9,37.6,72.9z M48.4,73.8h-7.3c0.6-0.6,1.1-1.3,1.4-2.1h4.1
		c0,0,0,0,0.1,0c0,0,0,0,0,0c0.9,0,1.6,0.8,1.6,1.7V73.8z M69.6,73.8L69.6,73.8h-19v-0.4c0-1.7-1.1-3.2-2.7-3.7v-0.6
		c0-1.8,1.4-3.2,3.2-3.2h2.7c1.1,1.9,3.2,3,5.3,2.9c0,0,0.1,0,0.1,0c0,0,0,0,0,0c2-0.2,3.7-1.3,4.6-2.9h2.6c1.7,0,3.2,1.4,3.2,3.2
		V73.8z M55.3,63.7c1.1,0.3,2.3,0.5,3.5,0.5c1.1,0,2.4-0.2,3.5-0.5c-0.3,1.7-1.8,2.9-3.5,2.9C57.1,66.6,55.6,65.3,55.3,63.7
		C55.3,63.7,55.3,63.7,55.3,63.7z M71,63.4c-0.4,0.5-0.9,0.9-1.5,1.2c-1.6-1.1-3-1-5-1c0,0,0,0,0,0c0-0.4,0-0.6,0-0.9
		c3-1.6,5.2-4.3,6.1-7.6c0,0,0,0,0,0c0-0.2,0.1-0.3,0.1-0.5c0.4-0.1,0.8-0.2,1.2-0.3l0.4,3.9C72.7,60.1,72.2,62.1,71,63.4z M70,52.5
		c-0.5,0-1,0.3-1.1,0.8c0,0,0,0.1,0,0.1c-0.6,3.3-2.7,6.2-5.8,7.6c0,0,0,0,0,0c-1.6,0.7-3.2,1-4.8,0.9c-0.1,0-0.1,0-0.1,0
		c-2.3-0.1-4.5-1.1-6.1-2.6c0.7-1.8,0.1-3.9-1.4-5.1c0-4.6,0.3-6.9-1.4-9.8c0.1-0.2,0.2-0.4,0.2-0.6h1.3c1.6,2,4,3.2,6.6,3.2h13
		c1.5,0.1,2.6,1.3,2.6,2.7C72.9,51.3,71.6,52.5,70,52.5z"/>
	<path class="st1" d="M57.1,27.4c-0.3,0.7,0.3,1.5,1,1.5c0.4,0,0.9-0.3,1-0.7c0.6-1.6-0.5-3-0.6-3.2c-0.4-0.5-1.1-0.6-1.6-0.2
		c-0.5,0.4-0.6,1.1-0.2,1.6C56.9,26.6,57.2,27.1,57.1,27.4z"/>
	<path class="st1" d="M47.4,25c-0.1,0.2-1.2,1.6-0.6,3.2c0.2,0.4,0.6,0.7,1,0.7c0.8,0,1.3-0.8,1-1.5c-0.1-0.3,0.1-0.8,0.3-1
		c0.4-0.5,0.3-1.2-0.2-1.6C48.5,24.4,47.8,24.5,47.4,25z"/>
	<path class="st1" d="M52.9,29.1c1.6,0,3-1.3,3-3c0-0.6-0.5-1.1-1.1-1.1c-0.6,0-1.1,0.5-1.1,1.1c0,0.4-0.3,0.8-0.8,0.8
		s-0.8-0.3-0.8-0.8c0-0.6-0.5-1.1-1.1-1.1c-0.6,0-1.1,0.5-1.1,1.1C50,27.7,51.3,29.1,52.9,29.1z"/>
	<path class="st1" d="M26.7,27.3c-0.3,0.7,0.3,1.5,1,1.5c0.4,0,0.9-0.3,1-0.7c0.6-1.6-0.5-3-0.6-3.2c-0.4-0.5-1.1-0.6-1.6-0.2
		c-0.5,0.4-0.6,1.1-0.2,1.6C26.5,26.5,26.8,27,26.7,27.3z"/>
	<path class="st1" d="M17,25c-0.1,0.2-1.2,1.6-0.6,3.2c0.2,0.4,0.6,0.7,1,0.7c0.8,0,1.3-0.8,1-1.5c-0.1-0.3,0.1-0.8,0.3-1
		c0.4-0.5,0.3-1.2-0.2-1.6C18.1,24.4,17.4,24.5,17,25z"/>
	<path class="st1" d="M22.5,29c1.6,0,3-1.3,3-3c0-0.6-0.5-1.1-1.1-1.1c-0.6,0-1.1,0.5-1.1,1.1c0,0.4-0.3,0.8-0.8,0.8
		c-0.4,0-0.8-0.3-0.8-0.8c0-0.6-0.5-1.1-1.1-1.1c-0.6,0-1.1,0.5-1.1,1.1C19.6,27.7,20.9,29,22.5,29z"/>
</g>
</svg>
