<?xml version="1.0" encoding="utf-8"?>
<!-- Generator: Adobe Illustrator 23.0.0, SVG Export Plug-In . SVG Version: 6.00 Build 0)  -->
<svg version="1.1" id="Layer_1" xmlns="http://www.w3.org/2000/svg" xmlns:xlink="http://www.w3.org/1999/xlink" x="0px" y="0px"
	 viewBox="0 0 20 20" style="enable-background:new 0 0 20 20;" xml:space="preserve">
<g>
	<path d="M15,6.3c-2,0-3.4,1.1-3.9,2.2h-0.1V6.6h-4V20h4.1v-6.6c0-1.7,0.3-3.4,2.5-3.4c2.1,0,2.2,2,2.2,3.5V20H20v0h0v-7.3
		C20,9.1,19.2,6.3,15,6.3z"/>
	<rect x="0.3" y="6.6" width="4.1" height="13.4"/>
	<path d="M2.4,0C1.1,0,0,1.1,0,2.4c0,1.3,1.1,2.4,2.4,2.4c1.3,0,2.4-1.1,2.4-2.4C4.8,1.1,3.7,0,2.4,0z"/>
</g>
</svg>
