<svg viewBox="0 0 85 85" fill="none" xmlns="http://www.w3.org/2000/svg">
<g clip-path="url(#clip0)">
<path d="M1.24609 9.48409H11.9757C14.5904 9.48409 16.7176 7.35693 16.7176 4.74219C16.7176 2.12745 14.5904 0.000300126 11.9757 0.000300126H9.64182C8.95418 0.000300126 8.3967 0.557779 8.3967 1.24541C8.3967 1.93305 8.95418 2.49053 9.64182 2.49053H11.9757C13.2173 2.49053 14.2273 3.50057 14.2273 4.74219C14.2273 5.98382 13.2173 6.99386 11.9757 6.99386H1.24609C0.558456 6.99386 0.000976562 7.55134 0.000976562 8.23897C0.000976562 8.92661 0.558456 9.48409 1.24609 9.48409ZM68.0706 9.48409H80.2589C82.8736 9.48409 85.0008 7.35693 85.0008 4.74219C85.0008 2.12745 82.8736 0.000300126 80.2589 0.000300126H77.9251C77.2374 0.000300126 76.6799 0.557779 76.6799 1.24541C76.6799 1.93305 77.2374 2.49053 77.9251 2.49053H80.2589C81.5005 2.49053 82.5106 3.50057 82.5106 4.74219C82.5106 5.98382 81.5005 6.99386 80.2589 6.99386H68.0706C67.3829 6.99386 66.8254 7.55134 66.8254 8.23897C66.8254 8.92661 67.3829 9.48409 68.0706 9.48409ZM64.5489 17.4317H75.2784C76.5201 17.4317 77.5301 18.4418 77.5301 19.6834C77.5301 20.925 76.5201 21.9351 75.2784 21.9351H72.9446C72.257 21.9351 71.6995 22.4925 71.6995 23.1802C71.6995 23.8678 72.257 24.4253 72.9446 24.4253H75.2784C77.8932 24.4253 80.0203 22.2981 80.0203 19.6834C80.0203 17.0687 77.8932 14.9415 75.2784 14.9415H64.5489C63.8612 14.9415 63.3038 15.499 63.3038 16.1866C63.3038 16.8743 63.8612 17.4317 64.5489 17.4317ZM1.24609 14.9415H11.9757C13.2173 14.9415 14.2273 15.9515 14.2273 17.1932C14.2273 18.4348 13.2173 19.4448 11.9757 19.4448H9.64182C8.95418 19.4448 8.3967 20.0023 8.3967 20.69C8.3967 21.3776 8.95418 21.9351 9.64182 21.9351H11.9757C14.5904 21.9351 16.7176 19.8079 16.7176 17.1932C16.7176 14.5784 14.5904 12.4513 11.9757 12.4513H1.24609C0.558456 12.4513 0.000976562 13.0088 0.000976562 13.6964C0.000976562 14.384 0.558456 14.9415 1.24609 14.9415ZM80.2735 38.262C79.2049 36.7498 77.6425 35.6082 75.8738 35.0476L62.7458 30.8937C62.4626 28.8375 61.1648 27.1015 59.3747 26.2081V7.81447C59.3747 6.7958 59.1697 5.80735 58.7656 4.87733L57.161 1.17536C56.8567 0.469957 56.1638 0.0087669 55.3958 0.000300126C54.6338 -0.0133131 53.9254 0.437252 53.6068 1.13335L50.4477 8.00107C49.6736 9.68231 49.4666 11.6054 49.8648 13.417L52.8315 26.8669C51.3804 27.9989 50.4446 29.762 50.4446 31.7408C50.4446 31.8702 50.4499 31.9986 50.4578 32.1261L36.2242 40.3437C35.6287 40.6875 35.4247 41.449 35.7685 42.0445C35.9991 42.4439 36.4176 42.6672 36.8479 42.6672C37.0591 42.6672 37.2732 42.6134 37.4693 42.5002L51.1496 34.6022C51.3661 35.0147 51.6292 35.3984 51.9296 35.7497L51.9032 36.2809L42.4551 44.9192C42.0546 45.2861 41.6097 45.5937 41.1293 45.8389L33.2475 43.3447C32.9643 41.289 31.6669 39.5533 29.8773 38.6598V20.2656C29.8773 19.2516 29.6726 18.2636 29.2683 17.3285L27.6624 13.6235C27.3566 12.9199 26.6637 12.4599 25.8974 12.4514C25.1299 12.4426 24.429 12.8876 24.1077 13.5845L20.9486 20.4522C20.1738 22.1348 19.9675 24.0582 20.3674 25.8681L23.3341 39.3175C21.8826 40.4494 20.9465 42.213 20.9465 44.1921C20.9465 44.3214 20.9518 44.4496 20.9596 44.5769L5.03107 53.7736C4.15152 54.2818 3.39831 54.9525 2.7912 55.7686L0.386796 59.0109C-0.071074 59.6263 -0.123867 60.4561 0.252158 61.1248C0.628846 61.7947 1.3716 62.18 2.12979 62.1096L9.65775 61.4123C11.5022 61.2403 13.2711 60.4574 14.6389 59.2071L22.0978 52.3864L21.3095 68.1984C21.2753 68.8852 21.8043 69.4697 22.4911 69.5039C23.1716 69.5378 23.7631 69.0113 23.7966 68.3224L24.7102 49.9975L24.7993 49.9159C25.5182 50.2093 26.3034 50.3723 27.1265 50.3723C27.8964 50.3723 28.6328 50.229 29.313 49.9706L30.9343 82.5099H23.0894L23.5521 73.2305C23.5863 72.5437 23.0573 71.9591 22.3705 71.9249C21.6829 71.8924 21.0992 72.4196 21.065 73.1064L20.5962 82.5099H10.602C9.91441 82.5099 9.35693 83.0674 9.35693 83.755C9.35693 84.4426 9.91441 85.0001 10.602 85.0001H74.3997C75.0874 85.0001 75.6448 84.4426 75.6448 83.755C75.6448 83.0674 75.0874 82.5099 74.3997 82.5099H63.4231L61.1823 37.5468L75.9696 46.0853C76.8508 46.5941 77.8093 46.9112 78.8191 47.0276L82.8292 47.4891C83.5815 47.5765 84.3351 47.2089 84.7267 46.5482C85.118 45.8879 85.0843 45.0567 84.6409 44.4305L80.2735 38.262ZM22.2739 48.8508L12.9583 57.369C11.9884 58.2554 10.7342 58.8107 9.42699 58.9326L3.11094 59.5176L4.79019 57.2532C5.19244 56.7124 5.69264 56.2672 6.27635 55.9298L21.6509 47.0528C21.8385 47.4103 22.0622 47.7451 22.3134 48.0572L22.2739 48.8508ZM22.7987 25.3312C22.5153 24.0484 22.6616 22.6856 23.2104 21.4933L25.8613 15.7306L26.9826 18.3176C27.2507 18.938 27.3867 19.5934 27.3867 20.2656V38.0181C27.3002 38.0145 27.2137 38.0115 27.1264 38.0115C26.6126 38.0115 26.1137 38.0756 25.6361 38.1943L22.7987 25.3312ZM27.1264 47.8819C25.0917 47.8819 23.4362 46.2266 23.4362 44.1917C23.4362 42.1571 25.0915 40.5015 27.1264 40.5015C29.1612 40.5015 30.8166 42.1569 30.8166 44.1917C30.8166 46.2266 29.1612 47.8819 27.1264 47.8819ZM60.315 31.7408C60.315 31.7585 60.3138 31.776 60.3137 31.7937C60.3133 31.8052 60.3128 31.8168 60.3128 31.8282C60.266 33.8228 58.6304 35.4309 56.625 35.4309C54.5903 35.4309 52.9348 33.7756 52.9348 31.7408C52.9348 29.7059 54.5901 28.0506 56.625 28.0506C58.6598 28.0506 60.315 29.7059 60.315 31.7408ZM52.2966 12.8813C52.0142 11.5973 52.161 10.234 52.7097 9.04216L55.3596 3.28126L56.481 5.86861C56.7486 6.48452 56.8843 7.13929 56.8843 7.81464V25.5671C56.7981 25.5637 56.7118 25.5605 56.6248 25.5605C56.1107 25.5605 55.6114 25.6246 55.1337 25.7435L52.2966 12.8813ZM44.1363 46.756L51.7267 39.8162L51.1568 51.251L50.7753 50.7123C49.7048 49.2002 48.1421 48.0591 46.3744 47.4988L44.1074 46.7814C44.1169 46.7728 44.1268 46.7646 44.1363 46.756ZM33.0651 45.8987L45.6225 49.8726C46.8757 50.2699 47.9839 51.079 48.7427 52.1512L51.2183 55.6476C51.22 55.6499 51.2215 55.6523 51.2233 55.6546L52.4077 57.3272L49.6045 57.0046C48.937 56.9278 48.302 56.7176 47.7171 56.3796L32.3408 47.5032C32.6544 47.0112 32.9001 46.4721 33.0651 45.8987ZM49.5987 82.5097H33.4273L31.8112 50.0732L46.4716 58.5363C47.353 59.0453 48.3111 59.3624 49.3195 59.4786L50.7384 59.6418L49.5987 82.5097ZM52.0921 82.5097L53.2175 59.9272C53.9968 60.0462 54.8134 59.6989 55.2286 58.998C55.6197 58.3377 55.586 57.507 55.143 56.8813L53.486 54.541L54.3363 37.4794C55.0447 37.763 55.8163 37.921 56.6248 37.921C57.3493 37.921 58.0431 37.7918 58.6895 37.5616L60.9297 82.5097H52.0921ZM79.1036 44.5535C78.4346 44.4765 77.7992 44.2663 77.2147 43.9286L61.84 35.0508C62.1533 34.559 62.3986 34.0203 62.5635 33.4477L75.1217 37.4215C76.3753 37.8189 77.4826 38.6277 78.2403 39.7L81.9049 44.8759L79.1036 44.5535Z" fill="url(#paint0_linear)"/>
</g>
<defs>
<linearGradient id="paint0_linear" x1="42.5009" y1="0" x2="42.5009" y2="85.0001" gradientUnits="userSpaceOnUse">
<stop stop-color="#87B646"/>
<stop offset="1" stop-color="#48BAB0"/>
</linearGradient>
<clipPath id="clip0">
<rect width="85" height="85" fill="white"/>
</clipPath>
</defs>
</svg>
