<svg width="13" height="13" viewBox="0 0 13 13" fill="none" xmlns="http://www.w3.org/2000/svg">
<path d="M11.6736 5.80409H6.97804V1.10841C6.97804 0.784476 6.71505 0.521484 6.39101 0.521484C6.06708 0.521484 5.80409 0.784476 5.80409 1.10841V5.80409H1.10841C0.784476 5.80409 0.521484 6.06708 0.521484 6.39101C0.521484 6.71505 0.784476 6.97804 1.10841 6.97804H5.80409V11.6736C5.80409 11.9977 6.06708 12.2607 6.39101 12.2607C6.71505 12.2607 6.97804 11.9977 6.97804 11.6736V6.97804H11.6736C11.9977 6.97804 12.2607 6.71505 12.2607 6.39101C12.2607 6.06708 11.9977 5.80409 11.6736 5.80409Z" fill="white"/>
</svg>
