<svg width="45" height="41" viewBox="0 0 45 41" fill="none" xmlns="http://www.w3.org/2000/svg">
<path d="M18.0783 8.53902C19.2036 8.0671 19.6755 6.72393 19.1673 5.63488L17.3885 1.8958C16.8803 0.843415 15.646 0.371129 14.557 0.843415C11.4713 2.15028 8.82132 3.85646 6.71582 5.92566C4.1384 8.35751 2.39591 11.1527 1.45207 14.2384C0.508224 17.3607 0 21.6076 0 27.0166V38.1612C0 39.3592 0.980147 40.3393 2.1781 40.3393H16.4447C17.6426 40.3393 18.6228 39.3592 18.6228 38.1612V23.8947C18.6228 22.6963 17.6426 21.7166 16.4447 21.7166H9.61996C9.69256 18.0497 10.5638 15.1096 12.1611 12.8949C13.4679 11.1168 15.4282 9.66474 18.0783 8.53902Z" fill="#83B74D"/>
<path d="M43.7073 8.53869C44.8327 8.06677 45.3042 6.7236 44.7964 5.63455L43.0176 1.93214C42.5093 0.879386 41.2751 0.407463 40.186 0.879386C37.1367 2.18625 34.5226 3.89243 32.3812 5.92533C29.8034 8.39385 28.025 11.1891 27.0807 14.2747C26.1369 17.3237 25.6653 21.5714 25.6653 27.0166V38.1613C25.6653 39.3592 26.6455 40.3394 27.8434 40.3394H42.11C43.308 40.3394 44.2881 39.3592 44.2881 38.1613V23.8947C44.2881 22.6964 43.308 21.7166 42.11 21.7166H35.249C35.3216 18.0497 36.1932 15.1097 37.7901 12.8949C39.097 11.1165 41.0573 9.66441 43.7073 8.53869Z" fill="#83B74D"/>
</svg>
