<svg viewBox="0 0 85 85" fill="none" xmlns="http://www.w3.org/2000/svg">
<path d="M42.5647 18.3208C30.5342 18.3208 20.7053 28.1497 20.7053 40.1802C20.7053 46.4707 23.4574 52.5252 28.0966 56.614C31.5564 60.0738 31.2419 67.4651 31.1632 67.5437C31.1632 67.9369 31.2419 68.2514 31.5564 68.5659C31.7923 68.8018 32.1854 68.9591 32.5 68.9591H52.5508C52.944 68.9591 53.2585 68.8018 53.4944 68.5659C53.7303 68.33 53.8876 67.9369 53.8876 67.5437C53.8876 67.4651 53.4944 60.0738 56.9542 56.614C57.0328 56.5354 57.1114 56.4568 57.1901 56.3782C61.7506 52.2107 64.4241 46.3134 64.4241 40.1802C64.4241 28.1497 54.5952 18.3208 42.5647 18.3208ZM55.1457 54.5696C55.067 54.6483 54.9098 54.8055 54.9098 54.8842C51.8432 58.1867 51.2927 63.6122 51.2141 66.207H33.8367C33.7581 63.6122 33.2076 57.9508 29.9051 54.5696C25.7377 50.9526 23.3001 45.6844 23.3001 40.1016C23.3001 29.4864 31.8709 20.9156 42.4861 20.9156C53.1013 20.9156 61.672 29.4864 61.672 40.1016C61.672 45.6844 59.3131 50.9526 55.1457 54.5696Z" fill="url(#paint0_linear)"/>
<path d="M42.4861 23.9038C41.7785 23.9038 41.1494 24.5329 41.1494 25.2405C41.1494 25.9482 41.7785 26.5773 42.4861 26.5773C50.4279 26.5773 56.797 33.025 56.797 40.8881C56.797 41.5958 57.426 42.2248 58.1337 42.2248C58.8414 42.2248 59.4704 41.5958 59.4704 40.8881C59.549 31.531 51.9218 23.9038 42.4861 23.9038Z" fill="url(#paint1_linear)"/>
<path d="M51.2141 70.4531H33.7581C31.9496 70.4531 30.4556 71.9471 30.4556 73.7556C30.4556 75.5641 31.9496 77.0581 33.7581 77.0581H51.1355C53.0226 76.9795 54.5166 75.5641 54.5166 73.7556C54.5166 71.9471 53.0226 70.4531 51.2141 70.4531ZM51.2141 74.306H33.7581C33.4435 74.306 33.129 74.0701 33.129 73.677C33.129 73.2838 33.3649 73.0479 33.7581 73.0479H51.1355C51.45 73.0479 51.7645 73.2838 51.7645 73.677C51.7645 74.0701 51.5286 74.306 51.2141 74.306Z" fill="url(#paint2_linear)"/>
<path d="M48.6192 78.395H36.3528C34.5443 78.395 33.0503 79.889 33.0503 81.6975C33.0503 83.506 34.5443 85 36.3528 85H48.6192C50.4277 85 51.9217 83.506 51.9217 81.6975C51.9217 79.8104 50.4277 78.395 48.6192 78.395ZM48.6192 82.2479H36.3528C36.0383 82.2479 35.7237 82.012 35.7237 81.6189C35.7237 81.2257 35.9596 80.9898 36.3528 80.9898H48.6192C48.9337 80.9898 49.2483 81.2257 49.2483 81.6189C49.2483 82.012 48.9337 82.2479 48.6192 82.2479Z" fill="url(#paint3_linear)"/>
<path d="M42.4861 11.7946C43.2724 11.7946 43.8229 11.1656 43.8229 10.4579V1.33673C43.8229 0.629047 43.1938 0 42.4861 0C41.7785 0 41.1494 0.629047 41.1494 1.33673V10.4579C41.1494 11.1656 41.7785 11.7946 42.4861 11.7946Z" fill="url(#paint4_linear)"/>
<path d="M64.7388 6.76224C64.1097 6.29045 63.3234 6.52634 62.9302 7.07676L57.8979 14.6253C57.4261 15.2544 57.5833 16.1193 58.2124 16.5125C58.4483 16.6697 58.6842 16.7484 58.9201 16.7484C59.3918 16.7484 59.785 16.5125 60.0209 16.1193L65.0533 8.57075C65.5251 8.02033 65.3678 7.15539 64.7388 6.76224Z" fill="url(#paint5_linear)"/>
<path d="M26.5241 16.4339C26.7599 16.4339 26.9958 16.3553 27.2317 16.198C27.8608 15.8049 28.018 14.9399 27.6249 14.3109L22.7498 6.68367C22.3566 6.05462 21.4917 5.89736 20.8626 6.29052C20.2336 6.68367 20.0763 7.54861 20.4695 8.17766L25.3446 15.8049C25.6591 16.2766 26.0523 16.4339 26.5241 16.4339Z" fill="url(#paint6_linear)"/>
<path d="M17.0097 24.7686L9.06797 20.4439C8.43893 20.1294 7.57399 20.3653 7.25946 20.9943C6.86631 21.6233 7.1022 22.4883 7.80988 22.8028L15.7516 27.1275C15.9875 27.2061 16.1448 27.2848 16.3806 27.2848C16.8524 27.2848 17.3242 27.0489 17.5601 26.5771C17.8746 25.9481 17.6387 25.0831 17.0097 24.7686Z" fill="url(#paint7_linear)"/>
<path d="M77.7914 20.9943C77.4769 20.3653 76.612 20.1294 75.9829 20.4439L67.9626 24.7686C67.3335 25.0831 67.0976 25.9481 67.4121 26.5771C67.648 27.0489 68.1198 27.2848 68.5916 27.2848C68.8275 27.2848 69.0634 27.2061 69.2207 27.1275L77.241 22.8028C77.8701 22.4883 78.106 21.6233 77.7914 20.9943Z" fill="url(#paint8_linear)"/>
<defs>
<linearGradient id="paint0_linear" x1="42.5647" y1="18.3208" x2="42.5647" y2="68.9591" gradientUnits="userSpaceOnUse">
<stop stop-color="#84B64C"/>
<stop offset="1" stop-color="#4ABAAE"/>
</linearGradient>
<linearGradient id="paint1_linear" x1="50.3102" y1="23.9038" x2="50.3102" y2="42.2248" gradientUnits="userSpaceOnUse">
<stop stop-color="#84B64C"/>
<stop offset="1" stop-color="#4ABAAE"/>
</linearGradient>
<linearGradient id="paint2_linear" x1="42.4861" y1="70.4531" x2="42.4861" y2="77.0581" gradientUnits="userSpaceOnUse">
<stop stop-color="#84B64C"/>
<stop offset="1" stop-color="#4ABAAE"/>
</linearGradient>
<linearGradient id="paint3_linear" x1="42.486" y1="78.395" x2="42.486" y2="85" gradientUnits="userSpaceOnUse">
<stop stop-color="#84B64C"/>
<stop offset="1" stop-color="#4ABAAE"/>
</linearGradient>
<linearGradient id="paint4_linear" x1="42.4861" y1="0" x2="42.4861" y2="11.7946" gradientUnits="userSpaceOnUse">
<stop stop-color="#84B64C"/>
<stop offset="1" stop-color="#4ABAAE"/>
</linearGradient>
<linearGradient id="paint5_linear" x1="61.4756" y1="6.50928" x2="61.4756" y2="16.7484" gradientUnits="userSpaceOnUse">
<stop stop-color="#84B64C"/>
<stop offset="1" stop-color="#4ABAAE"/>
</linearGradient>
<linearGradient id="paint6_linear" x1="24.0472" y1="6.07617" x2="24.0472" y2="16.4339" gradientUnits="userSpaceOnUse">
<stop stop-color="#84B64C"/>
<stop offset="1" stop-color="#4ABAAE"/>
</linearGradient>
<linearGradient id="paint7_linear" x1="12.3844" y1="20.3052" x2="12.3844" y2="27.2848" gradientUnits="userSpaceOnUse">
<stop stop-color="#84B64C"/>
<stop offset="1" stop-color="#4ABAAE"/>
</linearGradient>
<linearGradient id="paint8_linear" x1="72.6018" y1="20.3052" x2="72.6018" y2="27.2848" gradientUnits="userSpaceOnUse">
<stop stop-color="#84B64C"/>
<stop offset="1" stop-color="#4ABAAE"/>
</linearGradient>
</defs>
</svg>
