<svg width="9" height="9" viewBox="0 0 9 9" fill="none" xmlns="http://www.w3.org/2000/svg">
<g clip-path="url(#clip0)">
<path d="M8.68008 1.24153C8.4867 1.22389 8.31568 1.36637 8.29805 1.55972L8.25147 2.0707C7.46117 0.829582 6.08931 0 4.49973 0C2.78972 0 1.28273 0.975973 0.534637 2.44079C0.446325 2.61371 0.514915 2.82547 0.687831 2.91378C0.860782 3.0021 1.07251 2.93353 1.16082 2.76059C1.79393 1.52091 3.06531 0.703125 4.49973 0.703125C5.80714 0.703125 6.98702 1.38394 7.66297 2.45053L7.1617 2.09252C7.00369 1.97968 6.78412 2.01628 6.67128 2.17427C6.55845 2.33228 6.59505 2.55183 6.75304 2.66469L8.27311 3.75033C8.49589 3.90915 8.80318 3.76376 8.82754 3.49617L8.99824 1.62357C9.01589 1.43019 8.87344 1.25916 8.68008 1.24153Z" fill="#666666"/>
<path d="M8.31188 6.08629C8.13895 5.99799 7.92721 6.06656 7.83889 6.23948C7.20578 7.47917 5.93441 8.29696 4.49998 8.29696C3.19257 8.29696 2.01269 7.61614 1.33674 6.54954L1.83802 6.90756C1.99603 7.02039 2.21558 6.9838 2.32843 6.8258C2.44127 6.66779 2.40467 6.44824 2.24668 6.33539L0.726608 5.24974C0.506547 5.09252 0.196785 5.23355 0.172176 5.5039L0.00147494 7.37651C-0.0161559 7.56987 0.126315 7.74091 0.319657 7.75854C0.513262 7.77613 0.684069 7.63352 0.701682 7.44034L0.748264 6.92936C1.53854 8.1705 2.91041 9.00008 4.49998 9.00008C6.21 9.00008 7.71699 8.02411 8.46508 6.55928C8.55339 6.38636 8.4848 6.1746 8.31188 6.08629Z" fill="#666666"/>
</g>
<defs>
<clipPath id="clip0">
<rect width="9" height="9" fill="white"/>
</clipPath>
</defs>
</svg>
