<?xml version="1.0" encoding="utf-8"?>
<!-- Generator: Adobe Illustrator 24.1.1, SVG Export Plug-In . SVG Version: 6.00 Build 0)  -->
<svg version="1.1" id="Layer_1" xmlns="http://www.w3.org/2000/svg" xmlns:xlink="http://www.w3.org/1999/xlink" x="0px" y="0px"
	 viewBox="0 0 76.1 54.7" style="enable-background:new 0 0 76.1 54.7;" xml:space="preserve">
<style type="text/css">
	.st0{fill:none;}
	.st1{fill:#5FB989;}
</style>
<g>
	<path class="st0" d="M32.8,32.5h-0.1h-5.2C27,35.1,24.7,37,22,37c0,0,0,0-0.1,0c-2.7,0-5-2-5.5-4.5h-0.1h-5.2
		c-4.4,0-8.1,3.7-8.1,8.1v11.1h6.5h0.1V43c0-0.8,0.6-1.4,1.4-1.5c0,0,0,0,0.1,0c0.8,0,1.5,0.6,1.5,1.5v8.8h19.5h0.1v-6.1
		c0-3.8,1.7-7.2,4.5-9.5c0.2-0.2,0.4-0.3,0.6-0.5c0,0,0.1-0.1,0.1-0.1c-0.3-0.6-0.5-1.4-0.6-2C35.6,32.8,34.2,32.5,32.8,32.5z"/>
	<path class="st0" d="M30.3,7.7V5.6V5.5H20.1c-2.8,0-5.2,2.3-5.2,5.2c0,0,0,0.1,0,0.1v2.1h10.2C28,12.9,30.3,10.6,30.3,7.7z"/>
	<path class="st0" d="M21.8,26.1C21.9,26.1,21.9,26.1,21.8,26.1c4,0,7-3.3,7-7.8v-3.3v0c-1.1,0.6-2.3,1-3.7,1H15h-0.1v3.3
		C14.9,23,18,26.1,21.8,26.1z"/>
	<path class="st0" d="M19.2,31.3c0,1.5,1.3,2.7,2.7,2.7s2.7-1.3,2.7-2.7v-2.6c-0.8,0.2-1.8,0.4-2.7,0.4s-1.9-0.2-2.7-0.4V31.3z"/>
	<path class="st0" d="M54.1,29.9c3.7,0,6.6-3,6.5-6.6v-3.1c-1.9-0.1-3.6-1-4.8-2.4c0,0,0,0-0.1-0.1c-1.7,2.3-4.4,3.8-7.5,3.8h-0.7
		h-0.1v1.7C47.4,26.9,50.3,29.9,54.1,29.9C54.1,29.9,54.1,29.9,54.1,29.9z"/>
	<path class="st0" d="M54.2,32.8C54.1,32.8,54.1,32.8,54.2,32.8c-0.9,0-1.7-0.1-2.5-0.3v0v2.4c0,1.4,1.1,2.5,2.5,2.5c0,0,0,0,0.1,0
		c1.4,0,2.5-1.2,2.5-2.5v-2.4c0,0-0.1,0-0.1,0C55.9,32.7,55,32.8,54.2,32.8z"/>
	<path class="st0" d="M66.3,26.9c0-1.5,0.6-3,1.7-4c1.1-1.1,1.1-2.7,0-3.8c-1.1-1.1-1.7-2.5-1.7-4c0-6.7-5.4-12-12-12
		c0,0-0.1,0-0.1,0c-6.6,0.1-11.9,5.4-11.9,12c0,1.5-0.6,3-1.7,4s-1.1,2.7,0,3.8c2.2,2.2,2.2,5.8,0,8c-0.5,0.5-0.8,1.2-0.8,1.9
		c0,0.4,0.1,0.7,0.3,1.1c0,0.1,0,0.1,0.1,0.2c1.4-0.6,3-1,4.6-1h4V31c0,0-0.1-0.1-0.1-0.1C48,30.5,47.4,30,47,29.5
		c-1.4-1.7-2.3-3.9-2.3-6.3v-3.2c0-0.8,0.6-1.5,1.5-1.5h2.3c3.5,0,6.3-2.8,6.3-6.3c0-0.8,0.6-1.5,1.5-1.5c0.4,0,0.7,0.1,1,0.4
		c0.3,0.3,0.5,0.7,0.5,1.1c0,0.8-0.1,1.7-0.3,2.4c0.1,0.4,0.3,0.7,0.5,1c0.7,0.9,1.9,1.6,3.2,1.6h1.1c0.4,0,0.7,0.1,1,0.4
		c0.3,0.3,0.5,0.7,0.5,1.1v4.5c0,3.2-1.6,6.1-4,7.8v2.1h3.9h0.1c1.6,0,3.1,0.3,4.6,0.9c0,0,0.1,0,0.1,0c0.2-0.4,0.3-0.8,0.5-1.3
		c0-0.7-0.3-1.4-0.8-1.9C66.9,29.9,66.3,28.4,66.3,26.9z"/>
	<path class="st1" d="M70.8,35.6c1.2-2.1,0.8-5-1-6.8c-0.5-0.5-0.8-1.2-0.8-1.9s0.3-1.4,0.8-1.9c1.1-1.1,1.7-2.5,1.7-4s-0.6-3-1.7-4
		c-0.5-0.5-0.8-1.2-0.8-1.9C69,6.8,62.4,0,54,0c-8.2,0-15,6.8-15,15c0,0.7-0.3,1.4-0.8,1.9c-1.1,1.1-1.7,2.5-1.7,4s0.6,3,1.7,4
		s1.1,2.7,0,3.8c-0.5,0.5-0.8,1.1-1.2,1.7c-1.3-0.5-2.7-0.8-4.3-0.8h-5.1v-2.3c2.6-1.9,4.2-5.2,4.2-9v-6c0.8-1.3,1.4-2.9,1.4-4.5
		V4.1c0-0.8-0.6-1.5-1.5-1.5H20.1c-4.4,0-8.1,3.6-8.1,8.1v8.4c0,3.4,1.7,6.3,4.2,8.1v2.2h-5.1C5,29.6,0,34.5,0,40.6v12.5
		c0,0.8,0.6,1.5,1.5,1.5h45.9c0.8,0,1.5-0.6,1.5-1.5s-0.6-1.5-1.5-1.5h-3.7v-4.9c0-0.8-0.6-1.5-1.5-1.5s-1.5,0.6-1.5,1.5v5h-5.6
		v-6.1c0-5.2,4.2-9.5,9.5-9.5h4.1c0.5,2.4,2.7,4.3,5.4,4.3c2.6,0,4.9-1.8,5.4-4.3h4.1c5.2,0,9.5,4.2,9.5,9.5v6.1h-5.6v-4.9
		c0-0.8-0.6-1.5-1.5-1.5c-0.8,0-1.5,0.6-1.5,1.5v4.9h-3.7c-0.8,0-1.5,0.6-1.5,1.5c0,0.8,0.6,1.5,1.5,1.5h13.7c0.8,0,1.5-0.6,1.5-1.5
		v-7.6C76,41.5,74,37.8,70.8,35.6z M24.7,28.7v2.6c0,1.5-1.3,2.7-2.7,2.7s-2.7-1.3-2.7-2.7v-2.6c0.8,0.2,1.8,0.4,2.7,0.4
		S23.9,28.9,24.7,28.7z M14.9,10.8c0,0,0-0.1,0-0.1c0-2.8,2.3-5.2,5.2-5.2h10.2v0.1v2.1c0,2.9-2.3,5.2-5.2,5.2H14.9V10.8z
		 M14.9,19.1v-3.3H15h10.1c1.4,0,2.6-0.3,3.7-1v0v3.3c0,4.5-2.9,7.8-6.9,7.8c0,0,0,0-0.1,0C18,26.1,14.9,23,14.9,19.1z M37.3,35.6
		c-0.2,0.2-0.4,0.3-0.6,0.5c-2.7,2.3-4.5,5.8-4.5,9.5v6.1h-0.1H12.6V43c0-0.8-0.6-1.5-1.5-1.5c0,0,0,0-0.1,0c-0.8,0-1.4,0.6-1.4,1.5
		v8.8H9.5H3V40.6c0-4.4,3.7-8.1,8.1-8.1h5.2h0.1c0.5,2.5,2.8,4.5,5.5,4.5c0,0,0,0,0.1,0c2.7,0,5.1-1.9,5.6-4.5h5.2h0.1
		c1.4,0,2.7,0.3,3.9,0.9c0.1,0.6,0.3,1.4,0.6,2C37.3,35.5,37.3,35.5,37.3,35.6z M47.4,23.2v-1.7h0.1h0.7c3.1,0,5.8-1.5,7.5-3.8
		c0,0,0,0,0.1,0.1c1.2,1.3,2.9,2.3,4.8,2.4v3.1c0.1,3.7-2.8,6.6-6.5,6.6c0,0,0,0-0.1,0C50.3,29.9,47.4,26.9,47.4,23.2z M56.7,34.9
		c0,1.4-1.2,2.5-2.5,2.5c0,0,0,0-0.1,0c-1.3,0-2.5-1.2-2.5-2.5v-2.4v0c0.8,0.2,1.7,0.3,2.5,0.3c0,0,0,0,0.1,0c0.8,0,1.7-0.1,2.4-0.3
		c0,0,0.1,0,0.1,0V34.9z M68.3,34.1C68.3,34.1,68.2,34.1,68.3,34.1c-1.5-0.6-3.1-1-4.6-1h-0.1h-3.9V31c2.4-1.7,4-4.6,4-7.8v-4.5
		c0-0.5-0.2-0.8-0.5-1.1c-0.3-0.2-0.6-0.4-1-0.4h-1.1c-1.3,0-2.4-0.6-3.2-1.6c-0.2-0.3-0.4-0.6-0.5-1c0.2-0.7,0.3-1.6,0.3-2.4
		c0-0.5-0.2-0.8-0.5-1.1c-0.3-0.2-0.6-0.4-1-0.4c-0.8,0-1.5,0.6-1.5,1.5c0,3.5-2.8,6.3-6.3,6.3h-2.3c-0.8,0-1.5,0.6-1.5,1.5v3.2
		c0,2.4,0.9,4.6,2.3,6.3c0.5,0.5,1,1,1.6,1.5c0,0,0.1,0.1,0.1,0.1v2.1h-4c-1.7,0-3.3,0.3-4.6,1c0-0.1,0-0.1-0.1-0.2
		c-0.2-0.4-0.3-0.7-0.3-1.1c0-0.7,0.3-1.4,0.8-1.9c2.2-2.2,2.2-5.8,0-8c-1.1-1.1-1.1-2.7,0-3.8s1.7-2.5,1.7-4c0-6.6,5.3-12,11.9-12
		c0,0,0.1,0,0.1,0c6.6,0,12,5.4,12,12c0,1.5,0.6,3,1.7,4c1.1,1.1,1.1,2.7,0,3.8c-1.1,1.1-1.7,2.5-1.7,4s0.6,3,1.7,4
		c0.5,0.5,0.8,1.2,0.8,1.9C68.6,33.3,68.5,33.7,68.3,34.1z"/>
	<path class="st1" d="M54,51.7c-0.4,0-0.7,0.2-1.1,0.4c-0.3,0.3-0.4,0.6-0.4,1.1c0,0.4,0.1,0.7,0.4,1.1c0.3,0.3,0.6,0.4,1.1,0.4
		s0.7-0.2,1.1-0.4c0.3-0.3,0.4-0.6,0.4-1.1c0-0.4-0.2-0.7-0.4-1.1C54.9,51.8,54.5,51.7,54,51.7z"/>
</g>
</svg>
