<?xml version="1.0" encoding="utf-8"?>
<!-- Generator: Adobe Illustrator 24.1.1, SVG Export Plug-In . SVG Version: 6.00 Build 0)  -->
<svg version="1.1" id="Layer_1" xmlns="http://www.w3.org/2000/svg" xmlns:xlink="http://www.w3.org/1999/xlink" x="0px" y="0px"
	 viewBox="0 0 76 68.1" style="enable-background:new 0 0 76 68.1;" xml:space="preserve">
<style type="text/css">
	.st0{fill:none;}
	.st1{fill:#87CBA7;}
</style>
<g>
	<polygon class="st0" points="52.4,16.7 50.7,8.9 43.7,8.9 44.3,16.7 	"/>
	<polygon class="st0" points="32.3,8.9 25.3,8.9 23.6,16.7 31.7,16.7 	"/>
	<path class="st0" d="M27.5,26.2c2.3,0,4.1-1.9,4.1-4.1v-3.2h-8.3v3.2C23.3,24.4,25.2,26.2,27.5,26.2z"/>
	<path class="st0" d="M38,26.2c2.3,0,4.1-1.9,4.1-4.1v-3.2h-8.3v3.2C33.9,24.4,35.7,26.2,38,26.2z"/>
	<polygon class="st0" points="41.5,8.9 34.5,8.9 33.9,16.7 42.1,16.7 	"/>
	<path class="st0" d="M44.4,22.1c0,2.3,1.9,4.1,4.1,4.1c2.3,0,4.1-1.9,4.1-4.1v-3.2h-8.3V22.1z"/>
	<path class="st0" d="M54.9,22.1c0,2.3,1.9,4.1,4.1,4.1c2.3,0,4.1-1.9,4.1-4.1v-3.2h-8.3V22.1z"/>
	<path class="st0" d="M65.4,22.1c0,2.3,1.9,4.1,4.1,4.1c2.3,0,4.1-1.9,4.1-4.1v-3.2h-8.3V22.1z"/>
	<polygon class="st0" points="73,16.7 69.1,8.9 62.3,8.9 65.1,16.7 	"/>
	<polygon class="st0" points="62.7,16.7 59.9,8.9 53,8.9 54.7,16.7 	"/>
	<polygon class="st0" points="13.7,8.9 6.9,8.9 3,16.7 10.9,16.7 	"/>
	<path class="st0" d="M21.1,22.1v-3.2h-8.3v3.2c0,2.3,1.9,4.1,4.1,4.1C19.2,26.2,21.1,24.4,21.1,22.1z"/>
	<path class="st0" d="M10.6,22.1v-3.2H2.3v3.2c0,2.3,1.9,4.1,4.1,4.1C8.7,26.2,10.6,24.4,10.6,22.1z"/>
	<path class="st0" d="M72.5,61.5h-69c-0.7,0-1.3,0.6-1.3,1.3v3.1h71.5v-3.1C73.8,62.1,73.2,61.5,72.5,61.5z"/>
	<polygon class="st0" points="21.3,16.7 23,8.9 16.1,8.9 13.3,16.7 	"/>
	<path class="st0" d="M17,28.5c-2.2,0-4.1-1.1-5.3-2.8c-0.9,1.4-2.4,2.4-4.1,2.7v30.9h2V34.5c0-1.1,0.9-2.1,2.1-2.1h12.9
		c1.1,0,2.1,0.9,2.1,2.1v24.7h41.9V28.4c-1.7-0.3-3.2-1.3-4.1-2.7c-1.1,1.7-3.1,2.8-5.3,2.8s-4.1-1.1-5.3-2.8
		c-1.1,1.7-3.1,2.8-5.3,2.8s-4.1-1.1-5.3-2.8c-1.1,1.7-3.1,2.8-5.3,2.8s-4.1-1.1-5.3-2.8c-1.1,1.7-3.1,2.8-5.3,2.8
		c-2.2,0-4.1-1.1-5.3-2.8C21.1,27.4,19.1,28.5,17,28.5z M28.9,34.5c0-1.1,0.9-2.1,2.1-2.1h13.6c0.6,0,1.1,0.5,1.1,1.1
		s-0.5,1.1-1.1,1.1H31.1v17.5h32.1V34.7H49.7c-0.6,0-1.1-0.5-1.1-1.1s0.5-1.1,1.1-1.1h13.6c1.1,0,2.1,0.9,2.1,2.1v17.8
		c0,1.1-0.9,2.1-2.1,2.1H30.9c-1.1,0-2.1-0.9-2.1-2.1V34.5z"/>
	<path class="st0" d="M24.3,59.3V34.7H11.8v24.6H24.3z M20.2,45.6c0-0.6,0.5-1.1,1.1-1.1c0.6,0,1.1,0.5,1.1,1.1v2
		c0,0.6-0.5,1.1-1.1,1.1c-0.6,0-1.1-0.5-1.1-1.1V45.6z"/>
	<path class="st1" d="M21.3,48.7c0.6,0,1.1-0.5,1.1-1.1v-2c0-0.6-0.5-1.1-1.1-1.1c-0.6,0-1.1,0.5-1.1,1.1v2
		C20.2,48.2,20.7,48.7,21.3,48.7z"/>
	<path class="st1" d="M72.5,59.3h-1.8V28.4c3-0.5,5.3-3.1,5.3-6.3v-4.3c0,0,0,0,0-0.1c0,0,0,0,0,0c0,0,0-0.1,0-0.1c0,0,0,0,0,0
		c0,0,0-0.1,0-0.1c0,0,0,0,0,0c0,0,0-0.1,0-0.1c0,0,0,0,0,0l-4.9-9.8V2.4c0-1.3-1.1-2.4-2.4-2.4H17.9c-0.6,0-1.1,0.5-1.1,1.1
		s0.5,1.1,1.1,1.1h50.6c0.1,0,0.2,0.1,0.2,0.2v4.3H7.3V2.4c0-0.1,0.1-0.2,0.2-0.2h5.2c0.6,0,1.1-0.5,1.1-1.1S13.3,0,12.7,0H7.5
		C6.2,0,5.1,1.1,5.1,2.4v5.1l-4.9,9.8c0,0,0,0,0,0c0,0,0,0.1,0,0.1c0,0,0,0,0,0c0,0,0,0.1,0,0.1c0,0,0,0,0,0c0,0,0,0.1,0,0.1
		c0,0,0,0,0,0c0,0,0,0,0,0.1v4.3c0,3.1,2.3,5.7,5.3,6.3v30.9H3.5c-1.9,0-3.5,1.6-3.5,3.5v3.5c0,1,0.8,1.8,1.8,1.8h72.4
		c1,0,1.8-0.8,1.8-1.8v-3.5C76,60.8,74.4,59.3,72.5,59.3z M73.7,22.1c0,2.3-1.9,4.1-4.1,4.1c-2.3,0-4.1-1.9-4.1-4.1v-3.2h8.3V22.1z
		 M69.1,8.9l3.9,7.8h-7.9l-2.8-7.8H69.1z M59.9,8.9l2.8,7.8h-8L53,8.9H59.9z M63.2,18.9v3.2c0,2.3-1.9,4.1-4.1,4.1
		c-2.3,0-4.1-1.9-4.1-4.1v-3.2H63.2z M50.7,8.9l1.7,7.8h-8.1l-0.6-7.8H50.7z M52.7,18.9v3.2c0,2.3-1.9,4.1-4.1,4.1
		c-2.3,0-4.1-1.9-4.1-4.1v-3.2H52.7z M34.5,8.9h7l0.6,7.8h-8.1L34.5,8.9z M33.9,18.9h8.3v3.2c0,2.3-1.9,4.1-4.1,4.1
		s-4.1-1.9-4.1-4.1V18.9z M25.3,8.9h7l-0.6,7.8h-8.1L25.3,8.9z M23.3,18.9h8.3v3.2c0,2.3-1.9,4.1-4.1,4.1c-2.3,0-4.1-1.9-4.1-4.1
		V18.9z M27.5,28.5c2.2,0,4.1-1.1,5.3-2.8c1.1,1.7,3.1,2.8,5.3,2.8s4.1-1.1,5.3-2.8c1.1,1.7,3.1,2.8,5.3,2.8s4.1-1.1,5.3-2.8
		c1.1,1.7,3.1,2.8,5.3,2.8s4.1-1.1,5.3-2.8c0.9,1.4,2.4,2.4,4.1,2.7v30.9H26.5V34.5c0-1.1-0.9-2.1-2.1-2.1H11.6
		c-1.1,0-2.1,0.9-2.1,2.1v24.7h-2V28.4c1.7-0.3,3.2-1.3,4.1-2.7c1.1,1.7,3.1,2.8,5.3,2.8s4.1-1.1,5.3-2.8
		C23.4,27.4,25.3,28.5,27.5,28.5z M24.3,34.7v24.6H11.8V34.7H24.3z M12.8,22.1v-3.2h8.3v3.2c0,2.3-1.9,4.1-4.1,4.1
		C14.7,26.2,12.8,24.4,12.8,22.1z M23,8.9l-1.7,7.8h-8l2.8-7.8H23z M6.9,8.9h6.8l-2.8,7.8H3L6.9,8.9z M2.3,22.1v-3.2h8.3v3.2
		c0,2.3-1.9,4.1-4.1,4.1C4.1,26.2,2.3,24.4,2.3,22.1z M73.8,65.9H2.2v-3.1c0-0.7,0.6-1.3,1.3-1.3h69c0.7,0,1.3,0.6,1.3,1.3V65.9z"/>
	<path class="st1" d="M30.9,54.4h32.4c1.1,0,2.1-0.9,2.1-2.1V34.5c0-1.1-0.9-2.1-2.1-2.1H49.7c-0.6,0-1.1,0.5-1.1,1.1
		s0.5,1.1,1.1,1.1h13.5v17.5H31.1V34.7h13.4c0.6,0,1.1-0.5,1.1-1.1s-0.5-1.1-1.1-1.1H30.9c-1.1,0-2.1,0.9-2.1,2.1v17.8
		C28.9,53.5,29.8,54.4,30.9,54.4z"/>
</g>
</svg>
