<svg viewBox="0 0 77 93" fill="none" xmlns="http://www.w3.org/2000/svg">
<path d="M75.5622 36.1552C75.2476 35.8179 74.8302 35.6287 74.3906 35.6386C65.6228 35.7182 56.8614 39.8766 50.3522 47.0472C43.913 54.1408 40.2327 63.5405 40.1808 72.955L38.2945 75.0052V57.686C44.3034 51.1141 47.9697 42.1479 48.6238 32.3986C48.6738 31.6532 48.1583 31.0049 47.4724 30.9505C46.7894 30.8962 46.1901 31.4565 46.1401 32.202C45.5967 40.3037 42.835 47.8157 38.2945 53.6799V20.0391C38.2945 19.2917 37.737 18.6857 37.0494 18.6857C36.3618 18.6857 35.8043 19.2917 35.8043 20.0391V53.3015C30.778 46.7726 27.9149 38.1517 27.8591 29.1176C27.7983 19.2936 31.0805 9.86182 36.8892 3.08908C42.219 9.13101 45.4906 17.262 46.1263 26.0902C46.1799 26.8353 46.7821 27.3923 47.4649 27.3338C48.1505 27.2756 48.6629 26.6241 48.6092 25.8789C47.904 16.0892 44.1592 7.08618 38.0641 0.52799C37.7445 0.184237 37.315 0.000902238 36.8699 0C36.4195 0.0034285 35.9979 0.197049 35.6826 0.545493C29.0612 7.86391 25.3021 18.2846 25.369 29.1356C25.4354 39.8854 29.2299 50.1052 35.8044 57.3201V64.9366L28.142 56.608C28.0734 49.5628 25.2576 42.5528 20.3773 37.3189C15.5243 32.1144 9.04887 29.1365 2.59418 29.1365C2.55583 29.1365 2.51731 29.1365 2.4788 29.1367C2.06675 29.139 1.6801 29.3161 1.3904 29.6353C1.10054 29.9547 0.942821 30.3771 0.946473 30.8248C1.00076 37.8819 3.83166 44.9322 8.71368 50.1677C13.508 55.3093 19.852 58.2627 26.2195 58.3461L35.5905 68.5316C35.6565 68.6035 35.7287 68.6648 35.8044 68.7171V87.7683L33.5513 85.3192C33.4998 79.4067 31.5983 73.4382 28.1744 68.4707C27.7621 67.8727 26.9817 67.7508 26.4312 68.1991C25.8809 68.6473 25.769 69.4956 26.1813 70.0938C28.7182 73.7744 30.3342 78.0512 30.8678 82.4028L15.9727 66.2129C15.4865 65.6844 14.698 65.6844 14.212 66.2129C13.7257 66.7414 13.7257 67.5984 14.212 68.1267L28.9329 84.1274C23.8004 83.3782 18.8288 80.7057 14.9202 76.5139C10.4896 71.7626 7.8245 65.4698 7.51687 59.1058C12.8631 59.3276 18.1143 61.6402 22.3979 65.6813C22.9171 66.1712 23.7037 66.1108 24.1543 65.5463C24.605 64.9819 24.5494 64.1271 24.0301 63.6372C19.0671 58.9549 12.9076 56.3816 6.67152 56.3816C6.63018 56.3816 6.58802 56.3817 6.54651 56.3819C6.13015 56.3841 5.73968 56.5627 5.44666 56.8854C5.15364 57.2078 4.9941 57.6348 4.99742 58.0879C5.05453 65.5131 8.03368 72.9315 13.171 78.4409C18.2232 83.859 24.91 86.968 31.619 87.0474L36.1687 91.9927C36.394 92.2378 36.7054 92.3893 37.0494 92.3893C37.737 92.3893 38.2945 91.7834 38.2945 91.036V78.833L41.7207 75.109C49.3927 75.0727 57.0207 71.9694 63.2316 66.3479C63.76 65.8697 63.8315 65.0163 63.3916 64.4418C62.9515 63.8673 62.1664 63.7897 61.638 64.2678C56.5853 68.8411 50.5353 71.6187 44.3426 72.2593L64.425 50.4309C64.9113 49.9024 64.9113 49.0455 64.425 48.5171C63.9386 47.9886 63.1504 47.9886 62.6641 48.5171L42.8081 70.099C43.5023 62.3663 46.7975 54.8169 52.1249 48.9482C57.9616 42.5183 65.7288 38.6945 73.5549 38.3669C73.3809 46.13 70.5885 53.7773 65.6385 59.9963C65.1886 60.5616 65.2455 61.4162 65.7655 61.9053C66.2859 62.3943 67.0717 62.3325 67.5217 61.7672C73.0642 54.8039 76.0941 46.1579 76.0534 37.4218C76.0511 36.9423 75.8768 36.4925 75.5622 36.1552ZM10.4625 48.2412C6.29251 43.7692 3.77671 37.8523 3.46792 31.8636C8.98113 32.1189 14.4582 34.7737 18.6281 39.2459C22.354 43.2416 24.7493 48.3657 25.4439 53.6758L11.4606 38.4768C10.9743 37.9483 10.1859 37.9483 9.69981 38.4768C9.21355 39.0054 9.21355 39.8623 9.69981 40.3907L23.5183 55.4104C18.7344 54.6646 14.1094 52.1522 10.4625 48.2412Z" fill="url(#paint0_linear)"/>
<defs>
<linearGradient id="paint0_linear" x1="38.5001" y1="0" x2="38.5001" y2="92.3893" gradientUnits="userSpaceOnUse">
<stop stop-color="#86B648"/>
<stop offset="1" stop-color="#49BAAE"/>
</linearGradient>
</defs>
</svg>
