<?xml version="1.0" encoding="utf-8"?>
<!-- Generator: Adobe Illustrator 23.0.0, SVG Export Plug-In . SVG Version: 6.00 Build 0)  -->
<svg version="1.1" id="Layer_1" xmlns="http://www.w3.org/2000/svg" xmlns:xlink="http://www.w3.org/1999/xlink" x="0px" y="0px"
	 viewBox="0 0 21 17.1" style="enable-background:new 0 0 21 17.1;" xml:space="preserve">
<path d="M21,2c-0.8,0.3-1.6,0.6-2.5,0.7c0.9-0.5,1.6-1.4,1.9-2.4c-0.8,0.5-1.8,0.8-2.7,1C16.9,0.5,15.8,0,14.5,0
	c-2.4,0-4.3,1.9-4.3,4.3c0,0.3,0,0.7,0.1,1C6.8,5.1,3.6,3.4,1.5,0.8C1.1,1.4,0.9,2.2,0.9,3c0,1.5,0.8,2.8,1.9,3.6
	C2.1,6.5,1.4,6.3,0.8,6c0,0,0,0,0,0c0,2.1,1.5,3.8,3.4,4.2c-0.4,0.1-0.7,0.1-1.1,0.1c-0.3,0-0.6,0-0.8-0.1c0.6,1.7,2.1,3,4,3
	C4.9,14.5,3,15.2,1,15.2c-0.4,0-0.7,0-1-0.1c1.9,1.2,4.2,1.9,6.6,1.9c7.9,0,12.3-6.6,12.3-12.3c0-0.2,0-0.4,0-0.6
	C19.7,3.6,20.4,2.9,21,2z"/>
</svg>
