<?xml version="1.0" encoding="utf-8"?>
<!-- Generator: Adobe Illustrator 24.1.1, SVG Export Plug-In . SVG Version: 6.00 Build 0)  -->
<svg version="1.1" id="Layer_1" xmlns="http://www.w3.org/2000/svg" xmlns:xlink="http://www.w3.org/1999/xlink" x="0px" y="0px"
	 viewBox="0 0 18.6 22" style="enable-background:new 0 0 18.6 22;" xml:space="preserve">
<path d="M12.6,10.2c1.4-1,2.3-2.7,2.3-4.6c0-3.1-2.5-5.6-5.6-5.6C6.2,0,3.7,2.5,3.7,5.6c0,1.9,0.9,3.5,2.3,4.6c-3.5,1.3-6,4.7-6,8.7
	C0,20.6,1.4,22,3.1,22h12.4c1.7,0,3.1-1.4,3.1-3.1C18.6,14.9,16.1,11.5,12.6,10.2z M5.4,5.6c0-2.2,1.8-3.9,3.9-3.9
	c2.2,0,3.9,1.8,3.9,3.9c0,2.2-1.8,3.9-3.9,3.9C7.1,9.6,5.4,7.8,5.4,5.6z M15.5,20.3H3.1c-0.8,0-1.4-0.6-1.4-1.4
	c0-4.2,3.4-7.6,7.6-7.6c4.2,0,7.6,3.4,7.6,7.6C16.9,19.7,16.3,20.3,15.5,20.3z"/>
</svg>
