<?xml version="1.0" encoding="utf-8"?>
<!-- Generator: Adobe Illustrator 23.0.0, SVG Export Plug-In . SVG Version: 6.00 Build 0)  -->
<svg version="1.1" id="Layer_1" xmlns="http://www.w3.org/2000/svg" xmlns:xlink="http://www.w3.org/1999/xlink" x="0px" y="0px"
	 viewBox="0 0 18.7 13.1" style="enable-background:new 0 0 18.7 13.1;" xml:space="preserve">
<style type="text/css">
	.st0{fill:none;}
</style>
<g>
	<polygon class="st0" points="7.5,9.4 12.4,6.6 7.5,3.8 	"/>
	<path d="M18.4,2.1c-0.2-0.8-0.8-1.4-1.7-1.7C15.2,0,9.4,0,9.4,0S3.5,0,2,0.4C1.3,0.6,0.6,1.3,0.4,2.1C0,3.5,0,6.6,0,6.6
		s0,3.1,0.4,4.5c0.2,0.8,0.8,1.4,1.7,1.7c1.5,0.4,7.3,0.4,7.3,0.4s5.9,0,7.3-0.4c0.8-0.2,1.4-0.8,1.7-1.7c0.4-1.5,0.4-4.5,0.4-4.5
		S18.8,3.5,18.4,2.1z M7.5,9.4V3.8l4.9,2.8L7.5,9.4z"/>
</g>
</svg>
