<svg width="201" height="79" viewBox="0 0 201 79" fill="none" xmlns="http://www.w3.org/2000/svg">
<path d="M12.051 76.5004C5.69807 76.5004 1.37549 72.0932 1.37549 65.7127C1.37549 58.8718 6.22202 54.925 12.051 54.925C14.8017 54.925 17.5524 55.8459 19.5172 57.7535C19.6482 57.8851 19.6482 58.0166 19.5172 58.1482L18.9278 58.6744C18.8623 58.7402 18.7968 58.7402 18.7313 58.7402C18.6658 58.7402 18.6003 58.6744 18.5348 58.6744C17.3559 57.622 15.2601 56.3064 11.9855 56.3064C6.4185 56.3064 2.68536 60.0558 2.68536 65.7785C2.68536 71.4354 6.353 75.1848 11.9855 75.1848C15.0637 75.119 17.094 74.0666 18.5348 72.8168C18.6003 72.751 18.6658 72.751 18.7313 72.751C18.7968 72.751 18.8623 72.8168 18.9278 72.8168L19.5827 73.343C19.7137 73.4746 19.6482 73.6061 19.5827 73.7377C17.5524 75.6453 14.8672 76.5004 12.051 76.5004Z" fill="white"/>
<path d="M24.5603 75.9084C24.5603 76.0399 24.4948 76.1715 24.2983 76.1715H23.5779C23.4469 76.1715 23.3159 76.1057 23.3159 75.9084V54.5961C23.3159 54.4646 23.3814 54.333 23.5779 54.333H24.3638C24.5603 54.333 24.6258 54.3988 24.6258 54.5961V75.9084H24.5603Z" fill="white"/>
<path d="M30.1926 56.438C30.9785 56.438 31.437 56.8984 31.437 57.6878C31.437 58.4771 30.9785 58.9376 30.1926 58.9376C29.4067 58.9376 28.9482 58.4113 28.9482 57.6878C28.9482 56.9642 29.4722 56.438 30.1926 56.438ZM30.8476 75.9084C30.8476 76.04 30.7821 76.1715 30.5856 76.1715H29.7997C29.6687 76.1715 29.5377 76.1058 29.5377 75.9084V63.0158C29.5377 62.8843 29.6032 62.7527 29.7997 62.7527H30.5856C30.7821 62.7527 30.8476 62.8185 30.8476 63.0158V75.9084Z" fill="white"/>
<path d="M36.4802 62.7526C36.6767 62.7526 36.7422 62.8184 36.8077 63.0157L37.0041 65.9758C37.7246 63.9366 39.2309 62.4895 41.5232 62.4895C43.8155 62.4895 45.5838 63.6735 46.1078 66.2389C46.8937 64.0682 48.4655 62.4895 50.8888 62.4895C53.836 62.4895 55.7353 64.3313 55.7353 68.4753V75.9083C55.7353 76.1057 55.6698 76.1714 55.5388 76.1714H54.7529C54.5564 76.1714 54.4909 76.1057 54.4909 75.9083V68.4096C54.4909 65.1864 53.0501 63.6735 50.7578 63.6735C48.1381 63.6735 46.3697 66.1731 46.3042 69.5936V75.8425C46.3042 76.0399 46.2388 76.1057 46.0423 76.1057H45.3218C45.1908 76.1057 45.0599 76.0399 45.0599 75.8425V68.4096C45.0599 65.1864 43.619 63.6735 41.2612 63.6735C38.707 63.6735 37.0041 66.1731 36.8077 69.3305V75.9083C36.8077 76.1057 36.7422 76.1714 36.5457 76.1714H36.0217C35.8253 76.1714 35.7598 76.1057 35.7598 75.9083V63.0815C35.7598 62.8842 35.8253 62.8184 36.0217 62.8184L36.4802 62.7526Z" fill="white"/>
<path d="M72.2397 63.0157C72.3051 62.8184 72.3706 62.7526 72.5016 62.7526H73.0256C73.2221 62.7526 73.2875 62.8184 73.2875 63.0157V75.9083C73.2875 76.1057 73.2221 76.1714 73.0256 76.1714H72.5016C72.3051 76.1714 72.2397 76.1057 72.2397 75.9083L72.0432 72.9483C70.9953 75.119 68.8995 76.4345 66.1487 76.4345C62.0881 76.4345 59.3374 73.6061 59.3374 69.3962C59.3374 65.1864 62.0881 62.4895 66.2142 62.4895C68.965 62.4895 71.0608 63.8051 72.1087 65.9758L72.2397 63.0157ZM66.2797 75.2505C69.6854 75.2505 72.0432 72.9483 72.1087 69.462C72.0432 66.0415 69.7509 63.7393 66.2797 63.7393C62.8741 63.7393 60.5818 66.0415 60.5818 69.462C60.5818 72.8825 62.8741 75.2505 66.2797 75.2505Z" fill="white"/>
<path d="M82.391 75.2506C83.2424 75.2506 83.8319 74.6586 84.1594 74.3955C84.2248 74.3297 84.2903 74.3297 84.2903 74.3297C84.3558 74.3297 84.4213 74.3955 84.4868 74.3955L84.9453 75.0533C85.0108 75.1849 85.0108 75.3164 84.8798 75.448C84.4868 75.8427 83.6354 76.5004 82.26 76.5004C80.0987 76.5004 79.0508 74.6586 79.1163 71.6328V63.9367H76.4966C76.3001 63.9367 76.2346 63.871 76.2346 63.6736V63.0158C76.2346 62.8843 76.3001 62.7527 76.4966 62.7527H79.1163L79.1818 58.0825C79.1818 57.8851 79.2473 57.8193 79.4438 57.8193H80.1642C80.3607 57.8193 80.4262 57.8851 80.4262 58.0825L80.3607 62.7527H84.1594C84.2903 62.7527 84.4213 62.8185 84.4213 63.0158V63.6736C84.4213 63.871 84.2903 63.9367 84.1594 63.9367H80.3607V71.3697C80.3607 74.4613 81.2121 75.1849 82.391 75.2506Z" fill="white"/>
<path d="M93.9181 75.2505C96.0138 75.2505 97.5202 74.4612 98.3716 73.4745C98.4371 73.4087 98.5681 73.3429 98.6336 73.3429C98.6991 73.3429 98.6991 73.3429 98.7646 73.4087L99.354 73.935C99.485 74.0665 99.4195 74.1981 99.2885 74.3296C98.0442 75.711 96.1448 76.5003 93.8526 76.5003C89.53 76.5003 86.5828 73.6718 86.5828 69.462C86.5828 65.2522 89.4645 62.4895 93.5906 62.4895C97.8477 62.4895 100.533 65.318 100.533 69.7251C100.533 69.9225 100.467 70.054 100.205 70.054H87.8926C88.1546 73.1456 90.5124 75.2505 93.9181 75.2505ZM99.2885 68.87C99.0266 65.7784 96.8653 63.6735 93.5906 63.6735C90.3814 63.6735 88.1546 65.7126 87.9581 68.87H99.2885Z" fill="white"/>
<path d="M113.435 76.5004C107.082 76.5004 102.76 72.0932 102.76 65.7127C102.76 58.5429 108.065 54.925 113.435 54.925C116.186 54.925 118.871 55.8459 120.902 57.7535C121.032 57.8851 121.032 58.0166 120.902 58.1482L119.133 60.4504C119.068 60.5162 119.002 60.5162 118.937 60.5162C118.871 60.5162 118.806 60.4504 118.74 60.4504C117.561 59.398 115.924 58.5429 113.435 58.5429C109.244 58.5429 106.362 61.4371 106.362 65.7785C106.362 70.0541 109.178 72.9484 113.435 72.9484C115.793 72.9484 117.496 72.0275 118.74 71.0408C118.806 70.975 118.871 70.975 119.002 70.975C119.068 70.975 119.133 71.0408 119.199 71.0408L121.032 73.343C121.098 73.4746 121.163 73.6719 121.032 73.7377C118.937 75.6453 116.251 76.5004 113.435 76.5004Z" fill="white"/>
<path d="M134.917 62.2921C134.983 62.0948 135.048 61.9632 135.245 61.9632H137.537C137.733 61.9632 137.864 62.0948 137.864 62.2921V75.9082C137.864 76.0398 137.733 76.2371 137.537 76.2371H135.245C135.048 76.2371 134.983 76.1056 134.917 75.9082L134.524 74.3296C133.542 75.7767 131.97 76.566 130.005 76.566C125.748 76.6318 122.866 73.5402 122.866 69.1331C122.866 64.7259 125.748 61.7659 130.005 61.7659C131.97 61.7659 133.542 62.5552 134.524 63.9366L134.917 62.2921ZM130.136 73.0798C132.494 73.0798 134.131 71.5011 134.197 69.0673C134.131 66.6993 132.559 65.1206 130.136 65.1206C127.778 65.1206 126.206 66.6993 126.206 69.0673C126.206 71.4353 127.844 73.0798 130.136 73.0798Z" fill="white"/>
<path d="M147.23 65.1865C146.247 65.1865 145.331 65.8442 144.807 66.8967V75.9084C144.807 76.1057 144.741 76.2372 144.479 76.2372H141.663C141.466 76.2372 141.335 76.1057 141.335 75.9084V62.2922C141.335 62.0949 141.466 61.9633 141.663 61.9633H143.628C143.89 61.9633 144.021 62.0949 144.021 62.2922L144.348 63.2131C145.265 62.2922 146.509 61.7002 147.95 61.7002C148.867 61.7002 149.653 61.9633 150.112 62.0949C150.308 62.1606 150.374 62.2922 150.308 62.4895L149.588 65.4496C149.522 65.5811 149.457 65.6469 149.326 65.6469C149.26 65.6469 149.26 65.5811 149.195 65.5811C148.736 65.3838 147.95 65.1865 147.23 65.1865Z" fill="white"/>
<path d="M152.535 76.1715C152.338 76.1715 152.207 76.0399 152.207 75.9084V54.6619C152.207 54.4646 152.338 54.333 152.535 54.333H155.351C155.482 54.333 155.678 54.4646 155.678 54.6619V63.6736C156.661 62.4895 158.102 61.766 159.936 61.766C164.193 61.766 167.009 64.726 167.009 69.1332C167.009 73.5403 164.193 76.5661 159.936 76.5661C157.905 76.5661 156.399 75.711 155.416 74.3297L154.958 75.9741C154.893 76.1715 154.762 76.303 154.565 76.303C154.565 76.1715 152.535 76.1715 152.535 76.1715ZM155.678 69.1332C155.678 71.5012 157.316 73.1457 159.674 73.1457C161.966 73.1457 163.603 71.5012 163.603 69.1332C163.603 66.7651 162.031 65.1207 159.674 65.1207C157.316 65.1207 155.678 66.6994 155.678 69.1332Z" fill="white"/>
<path d="M176.178 61.6343C180.566 61.6343 183.579 64.6601 183.579 69.0673C183.579 73.4744 180.632 76.5002 176.178 76.5002C171.724 76.5002 168.843 73.4744 168.843 69.0673C168.843 64.6601 171.79 61.6343 176.178 61.6343ZM176.178 73.0797C178.536 73.0797 180.108 71.4353 180.108 69.0673C180.108 66.6334 178.536 65.0548 176.178 65.0548C173.82 65.0548 172.248 66.6334 172.248 69.0673C172.248 71.4353 173.82 73.0797 176.178 73.0797Z" fill="white"/>
<path d="M186.264 62.2921C186.264 62.0947 186.395 61.9632 186.591 61.9632H188.818C189.015 61.9632 189.146 62.0947 189.146 62.2921L189.473 63.9365C190.39 62.4894 191.831 61.6343 193.927 61.6343C197.136 61.6343 199.297 63.9365 199.297 68.0148V75.9082C199.297 76.1056 199.166 76.2371 198.97 76.2371H196.154C195.957 76.2371 195.826 76.1056 195.826 75.9082V68.6726C195.826 66.3046 194.647 65.1863 193.01 65.1863C190.718 65.1863 189.735 67.357 189.67 69.3304V75.9082C189.67 76.1056 189.539 76.2371 189.342 76.2371H186.526C186.329 76.2371 186.198 76.1056 186.198 75.9082L186.264 62.2921Z" fill="white"/>
<path d="M121.098 0C115.793 0 110.881 1.8418 106.951 4.86761C105.117 6.31474 103.48 8.02498 102.105 9.99834C99.6813 13.4846 98.175 17.7602 97.9785 22.2989C97.9785 22.6278 97.9785 22.9567 97.9785 23.2856C97.9785 23.6145 97.9785 23.9434 97.9785 24.2723C97.7165 27.8901 96.2102 31.2448 93.6559 33.8759C93.4594 34.0733 93.3284 34.2048 93.132 34.4022C90.3812 36.9018 86.8446 38.2831 83.1114 38.2831C79.1163 38.2831 75.3832 36.7044 72.567 33.8759C69.7507 31.0475 68.1789 27.2981 68.1789 23.2856C68.1789 19.2731 69.7507 15.5237 72.567 12.761C75.3832 9.93256 79.1163 8.41965 83.1114 8.41965C86.8446 8.41965 90.3812 9.801 93.132 12.3006C94.1799 9.66944 95.5552 7.23564 97.2581 4.93339C93.3285 1.90758 88.4164 0.0657785 83.1114 0.0657785C70.3402 0.0657785 59.9922 10.4588 59.9922 23.2856C59.9922 36.1124 70.3402 46.5054 83.1114 46.5054C88.4164 46.5054 93.3285 44.6636 97.2581 41.6378C99.0919 40.1907 100.729 38.4804 102.105 36.5071C104.528 33.0208 106.034 28.7452 106.231 24.2065C106.231 23.8776 106.231 23.5487 106.231 23.2198C106.231 22.8909 106.231 22.562 106.231 22.2331C106.493 18.6153 107.999 15.2606 110.553 12.6295C110.75 12.4321 110.881 12.3006 111.077 12.1032C113.828 9.60366 117.365 8.22232 121.098 8.22232C125.093 8.22232 128.826 9.801 131.642 12.5637C134.458 15.3264 135.965 19.1416 135.965 23.0883C135.965 27.1007 134.393 30.8501 131.642 33.6786C128.892 36.5071 125.093 38.0858 121.098 38.0858C117.365 38.0858 113.828 36.7044 111.077 34.2048C110.029 36.836 108.654 39.2698 106.951 41.572C110.881 44.5978 115.793 46.4396 121.098 46.4396C133.869 46.4396 144.283 36.0466 144.283 23.2198C144.283 10.393 133.869 0 121.098 0Z" fill="url(#paint0_linear)"/>
<path d="M88.6783 25.6536C88.6783 25.6536 82.7184 29.9292 80.4916 29.9292C80.4916 29.9292 77.217 14.2081 95.2932 17.0366C95.2932 17.0366 98.6989 33.547 82.6529 31.6394C82.6529 31.5736 87.303 28.2189 88.6783 25.6536Z" fill="#8BB63F"/>
<path d="M81.8015 19.0099C81.8015 19.0099 81.2121 18.0232 81.3431 16.1157C81.3431 16.1157 80.8191 16.5103 80.8846 18.6152C80.8846 18.6152 77.2825 15.2605 82.26 12.6294C82.26 12.6294 86.3861 16.313 81.8015 19.0099Z" fill="#8BB63F"/>
<path d="M78.7233 21.5752C78.7233 21.5752 78.3959 20.1281 77.4135 19.4045C77.4135 19.4045 78.1339 21.5095 77.8719 22.233C77.8719 22.233 72.8289 21.9699 75.2522 16.6418C75.2522 16.6418 80.4262 16.7076 78.7233 21.5752Z" fill="#8BB63F"/>
<path d="M78.9199 28.0873C78.9199 28.0873 78.4614 20.3254 70.4712 23.9432C70.4712 23.9432 70.8642 32.8233 78.5269 29.4028C78.5269 29.4028 77.479 27.561 75.3832 26.0481C75.4487 26.0481 77.1515 26.2455 78.9199 28.0873Z" fill="#8BB63F"/>
<path d="M120.901 12.6953C115.072 12.6953 110.357 17.4314 110.357 23.2199C110.357 29.0084 115.072 33.7444 120.901 33.7444C126.73 33.7444 131.446 29.0084 131.446 23.2199C131.38 17.4314 126.665 12.6953 120.901 12.6953ZM125.748 28.8768H117.168V27.1666L121.556 23.0225C122.015 22.5621 122.342 22.1674 122.473 21.8385C122.604 21.5096 122.735 21.1807 122.735 20.8519C122.735 20.3914 122.604 20.0625 122.277 19.7994C121.949 19.5363 121.491 19.4047 120.901 19.4047C120.377 19.4047 119.984 19.4705 119.526 19.6678C119.067 19.8652 118.805 20.1283 118.543 20.523L116.644 19.2732C117.103 18.6154 117.692 18.0892 118.478 17.6945C119.264 17.2998 120.181 17.1025 121.163 17.1025C122.015 17.1025 122.735 17.234 123.39 17.4971C124.045 17.7603 124.503 18.1549 124.896 18.6812C125.289 19.2074 125.42 19.7994 125.42 20.4572C125.42 21.0492 125.289 21.6412 125.027 22.2332C124.765 22.7594 124.241 23.4172 123.521 24.075L120.901 26.5746H125.813L125.748 28.8768Z" fill="#44BAB6"/>
<defs>
<linearGradient id="paint0_linear" x1="59.966" y1="23.2527" x2="144.237" y2="23.2527" gradientUnits="userSpaceOnUse">
<stop offset="0.0005167" stop-color="#8BB63F"/>
<stop offset="1" stop-color="#44BAB6"/>
</linearGradient>
</defs>
</svg>
